<svg xmlns="http://www.w3.org/2000/svg" viewBox="0 0 616.74 123"><defs><style>.cls-1{font-size:53.02px;font-family:Montserrat-Black, Montserrat;letter-spacing:0em;}.cls-2{letter-spacing:-0.04em;}.cls-3{letter-spacing:-0.03em;}.cls-4{letter-spacing:-0.01em;}.cls-5{letter-spacing:0em;}</style></defs><title>max-mockup3</title><g id="Layer_2" data-name="Layer 2"><g id="Layer_1-2" data-name="Layer 1"><path d="M46.71.81H14.15c0,3.91-1.14,5.87-3.63,9.78H49.1C49.18,6.68,49.12,4.72,46.71.81Zm75.49,0c-2.35,3.91-4.67,5.87-9.5,9.78h38.44c2.49-3.91,3.62-5.87,3.62-9.78Zm-108,117.41H50.21c0-3.91,1.14-5.87,3.62-9.78H17.77C15.28,112.35,14.15,114.31,14.15,118.22Zm11.2-37.74c3.26,5.59,3.91,8.39,1.45,14H62.86c2.46-5.59,1.82-8.39-1.44-14Zm44.73,0c6.73,5.59,9.11,8.39,10.11,14H113.6c5.82-5.59,6.85-8.39,6.94-14ZM89.31,52.53C89,56.83,86.7,59,85.51,63.29c-4-4.31-4.35-6.46-9.21-10.76H12.15c2.89,5.59,1.1,8.38,4,14H119.58a14.12,14.12,0,0,1,.27-1.81c.3.72.48,1.09.85,1.81h36.21c-2.9-5.59-1.11-8.38-4-14ZM119,118.22h36.07c0-3.91,1.13-5.87,3.62-9.78H122.61C120.12,112.35,119,114.31,119,118.22Zm47.13-37.74H130.05c3.26,5.59,3.9,8.39,1.44,14h36.2C170.1,88.87,169.43,86.07,166.11,80.48Zm-24-55.91H95.29c-5.76,5.59-6.77,8.39-6.81,14H143.7C140.38,33,139.71,30.16,142.12,24.57Zm-93.52,0H1.5C-1,30.16-.32,33,2.94,38.55H58.57C51.9,33,49.55,30.16,48.6,24.57Z"/><path d="M252.91,7.94C245.56,3.14,233.32.81,220.32.81H162.45c0,3.91-1.14,5.87-3.62,9.78h97.29A17.24,17.24,0,0,0,252.91,7.94ZM160.45,52.53c2.9,5.59,1.11,8.38,4,14H204c-2.9-5.59-1.1-8.38-4-14Zm89.25,28c-2.42,4.48-8.94,6.85-17.19,6.85H215.88c-.39-2.74-1.06-4.11-2.66-6.85H173.66c3.26,5.59,3.91,8.39,1.44,14H288.19A24.91,24.91,0,0,0,292,90.69a11,11,0,0,0,2.13-10.21Zm-87.25,37.74h57.87a97.36,97.36,0,0,0,36.74-7.13c2.11-.81,4.14-1.67,6.31-2.65H166.08C163.59,112.35,162.45,114.31,162.45,118.22ZM284.16,52.53H244a12.09,12.09,0,0,1,2.56,7,21.81,21.81,0,0,0,1.44,7h40.12a19.37,19.37,0,0,1-1.58-7A13.19,13.19,0,0,0,284.16,52.53ZM264.39,28.2c-.6-1.25-.88-2.51-1.5-3.63H149.8c-2.46,5.59-1.81,8.39,1.45,14H190.8c-1.63-2.8-2.31-4.2-2.67-7h16.63c8.25,0,14.81,2.38,22.53,7h44.45A47.63,47.63,0,0,1,264.39,28.2Z"/><text class="cls-1" transform="translate(321.75 45.07)">M<tspan class="cls-2" x="50.69" y="0">A</tspan><tspan class="cls-3" x="91.41" y="0">X</tspan><tspan class="cls-4" x="130.32" y="0">W</tspan><tspan class="cls-5" x="193.57" y="0">ELL</tspan><tspan x="0" y="63.62">DENARI</tspan></text></g></g></svg>