<svg xmlns="http://www.w3.org/2000/svg" viewBox="0 0 762.53 98.72"><defs><style>.cls-1{font-size:44.09px;font-family:MonumentExtended-Ultrabold, Monument Extended;font-weight:700;letter-spacing:0em;}.cls-1,.cls-3{fill:#010101;}.cls-2{letter-spacing:0.01em;}</style></defs><title>max-final-horiz</title><g id="Layer_2" data-name="Layer 2"><g id="Layer_1-2" data-name="Layer 1"><text class="cls-1" transform="translate(132.39 63.69) scale(1.17 1)">M<tspan class="cls-2" x="49.16" y="0">AXWELL DE</tspan><tspan x="399.89" y="0">NA</tspan><tspan class="cls-2" x="485.16" y="0">RI</tspan></text><path class="cls-3" d="M60.78,34.5c-.53,5.32-2.13,10.63-6.91,13.29-6.38,3.72-11.17,10.1-11.7,17-2.66-1.06-4.25-3.19-6.91-3.72.53-8.5,6.38-14.88,12.23-20.73-4.79,3.72-9.57,7.44-12.76,12.76-1.6-1.06-3.72-.53-5.32-.53.54-5.32,2.66-10.1,3.72-14.89C30,45.13,25.69,53.11,26.22,61.61c-2.65,1.07-4.25,3.19-5.84,5.85-1.07-8.5,0-16.48,1.06-25,0-3.72.53-7.45-1.06-10.64,5.31-3.18,11.16-4.25,17-4.78,3.19,3.72,3.19,9,1.59,13.29,4.26-3.19,8.51-6.38,10.63-11.69A55.71,55.71,0,0,1,60.78,34.5Z"/><path class="cls-3" d="M80.45,59.49c-2.13,6.38-8,10.1-14.36,11.69-7.44,1.6-13.82-1.06-20.2-4.25.53-3.19.53-6.38,2.66-9,2.66-3.19,6.38-5.31,9.57-8C61.31,46.2,64,42,64,36.63c2.12,1.06,4.25,2.13,6.38,2.13,4.78,0,10.63,1.59,11.69,6.91.53,4.78.53,9-1.59,13.82Zm-9.57-1.07c0-1.59,1.59-3.72,1.06-5.31a5.57,5.57,0,0,0-4.78-2.66c-2.13,5.32-6.91,8.51-9,13.82a9.45,9.45,0,0,0,12.76-5.85Z"/><path class="cls-3" d="M49.36,98.72A49.36,49.36,0,1,1,98.72,49.36,49.41,49.41,0,0,1,49.36,98.72ZM49.36,2A47.36,47.36,0,1,0,96.72,49.36,47.42,47.42,0,0,0,49.36,2Z"/></g></g></svg>