<svg xmlns="http://www.w3.org/2000/svg" viewBox="0 0 695.6 133.39"><defs><style>.cls-1{font-size:70.09px;font-family:Funkturm, Funkturm;letter-spacing:-0.01em;}.cls-2{letter-spacing:-0.03em;}</style></defs><title>max-mockup1</title><g id="Layer_2" data-name="Layer 2"><g id="Layer_1-2" data-name="Layer 1"><path d="M46.71,13.32H14.15c0,3.92-1.14,5.87-3.63,9.79H49.1C49.18,19.19,49.12,17.24,46.71,13.32Zm75.49,0c-2.35,3.92-4.67,5.87-9.5,9.79h38.44c2.49-3.92,3.62-5.87,3.62-9.79Zm-108,117.42H50.21c0-3.92,1.14-5.87,3.62-9.79H17.77C15.28,124.87,14.15,126.82,14.15,130.74ZM25.35,93c3.26,5.59,3.91,8.38,1.45,14H62.86c2.46-5.6,1.82-8.39-1.44-14Zm44.73,0c6.73,5.59,9.11,8.38,10.11,14H113.6c5.82-5.6,6.85-8.39,6.94-14ZM89.31,65C89,69.35,86.7,71.5,85.51,75.8c-4-4.3-4.35-6.45-9.21-10.76H12.15c2.89,5.59,1.1,8.39,4,14H119.58a14.27,14.27,0,0,1,.27-1.82c.3.73.48,1.09.85,1.82h36.21c-2.9-5.59-1.11-8.39-4-14ZM119,130.74h36.07c0-3.92,1.13-5.87,3.62-9.79H122.61C120.12,124.87,119,126.82,119,130.74ZM166.11,93H130.05c3.26,5.59,3.9,8.38,1.44,14h36.2C170.1,101.38,169.43,98.59,166.11,93Zm-24-55.92H95.29c-5.76,5.6-6.77,8.39-6.81,14H143.7C140.38,45.47,139.71,42.68,142.12,37.08Zm-93.52,0H1.5c-2.47,5.6-1.82,8.39,1.44,14H58.57C51.9,45.47,49.55,42.68,48.6,37.08Z"/><path d="M252.91,20.45c-7.35-4.8-19.59-7.13-32.59-7.13H162.45c0,3.92-1.14,5.87-3.62,9.79h97.29A17.28,17.28,0,0,0,252.91,20.45ZM160.45,65c2.9,5.59,1.11,8.39,4,14H204c-2.9-5.59-1.1-8.39-4-14ZM249.7,93c-2.42,4.47-8.94,6.85-17.19,6.85H215.88c-.39-2.74-1.06-4.11-2.66-6.85H173.66c3.26,5.59,3.91,8.38,1.44,14H288.19A24.51,24.51,0,0,0,292,103.2,11,11,0,0,0,294.15,93Zm-87.25,37.74h57.87a97.56,97.56,0,0,0,36.74-7.13c2.11-.82,4.14-1.68,6.31-2.66H166.08C163.59,124.87,162.45,126.82,162.45,130.74ZM284.16,65H244a12.11,12.11,0,0,1,2.56,7A21.87,21.87,0,0,0,248,79h40.12a19.42,19.42,0,0,1-1.58-7A13.22,13.22,0,0,0,284.16,65ZM264.39,40.72c-.6-1.26-.88-2.52-1.5-3.64H149.8c-2.46,5.6-1.81,8.39,1.45,14H190.8c-1.63-2.79-2.31-4.19-2.67-7h16.63c8.25,0,14.81,2.38,22.53,7h44.45A47.36,47.36,0,0,1,264.39,40.72Z"/><text class="cls-1" transform="translate(337.22 59.75) scale(1.17 1)">MAXW<tspan class="cls-2" x="196.66" y="0">E</tspan><tspan x="234.58" y="0">LL</tspan><tspan x="0" y="65.16">DENARI</tspan></text></g></g></svg>