<svg xmlns="http://www.w3.org/2000/svg" viewBox="0 0 347.88 362.01"><defs><style>.cls-1{fill:#010101;}.cls-2{font-size:49.82px;fill:#231f20;font-family:MonumentExtended-Ultrabold, Monument Extended;font-weight:700;}.cls-2,.cls-4{letter-spacing:0em;}.cls-3{letter-spacing:0.01em;}.cls-5{letter-spacing:0.01em;}</style></defs><title>max-final-vert</title><g id="Layer_2" data-name="Layer 2"><g id="Layer_1-2" data-name="Layer 1"><path class="cls-1" d="M217.66,34c-2.43,24.28-9.71,48.57-31.57,60.71-29.14,17-51,46.14-53.43,77.71-12.14-4.86-19.42-14.57-31.57-17,2.43-38.85,29.15-68,55.86-94.71-21.86,17-43.71,34-58.28,58.28-7.29-4.85-17-2.42-24.29-2.42,2.43-24.29,12.14-46.15,17-68-14.57,34-34,70.42-31.57,109.28-12.14,4.86-19.43,14.57-26.71,26.71-4.86-38.85,0-75.28,4.85-114.14,0-17,2.43-34-4.85-48.56C57.38,7.29,84.09,2.43,110.81,0c14.57,17,14.57,41.28,7.28,60.71C137.52,46.14,157,31.57,166.66,7.29c17,7.28,34,14.57,51,26.71Z"/><path class="cls-1" d="M307.51,148.13c-9.71,29.15-36.43,46.15-65.57,53.43-34,7.29-63.14-4.86-92.28-19.43,2.43-14.57,2.43-29.14,12.14-41.28C174,126.28,191,116.57,205.52,104.42c14.57-17,26.71-36.42,26.71-60.71,9.71,4.86,19.43,9.72,29.14,9.72,21.86,0,48.57,7.28,53.43,31.57,2.43,21.85,2.43,41.28-7.29,63.13Zm-43.71-4.85c0-7.29,7.28-17,4.86-24.29-4.86-7.28-12.15-12.14-21.86-12.14-9.71,24.29-31.57,38.86-41.28,63.14,24.28,9.71,51-2.43,58.28-26.71Z"/><text class="cls-2" transform="translate(0 285.79)">M<tspan class="cls-3" x="55.55" y="0">AXWELL</tspan><tspan class="cls-3"><tspan x="54.83" y="59.78">DE</tspan><tspan class="cls-4" x="138.22" y="59.78">NA</tspan><tspan class="cls-5" x="234.57" y="59.78">RI</tspan></tspan></text></g></g></svg>