<svg xmlns="http://www.w3.org/2000/svg" viewBox="0 0 645.83 171.08"><defs><style>.cls-1{font-size:70.09px;font-family:Funkturm, Funkturm;letter-spacing:-0.01em;}.cls-2{letter-spacing:-0.03em;}</style></defs><title>max-mockup2</title><g id="Layer_2" data-name="Layer 2"><g id="Layer_1-2" data-name="Layer 1"><path d="M156.67,28.55c-2,20.39-8.16,40.78-26.51,51-24.47,14.27-42.83,38.74-44.87,65.25C75.1,140.7,69,132.55,58.79,130.51c2-32.63,24.47-57.1,46.9-79.53C87.33,65.25,69,79.53,56.75,99.92c-6.12-4.08-14.28-2-20.4-2,2-20.39,10.2-38.74,14.28-57.1C38.39,69.33,22.08,99.92,24.12,132.55,13.92,136.62,7.81,144.78,1.69,155c-4.08-32.63,0-63.22,4.08-95.84,0-14.28,2-28.55-4.08-40.79C22.08,6.12,44.51,2,66.94,0c12.24,14.27,12.24,34.67,6.12,51,16.31-12.24,32.63-24.47,40.78-44.86,14.28,6.11,28.55,12.23,42.83,22.43Z"/><path d="M232.11,124.39c-8.15,24.47-30.58,38.74-55.05,44.86-28.55,6.12-53-4.08-77.49-16.31,2-12.24,2-24.47,10.19-34.67C120,106,134.23,97.88,146.47,87.68c12.23-14.27,22.43-30.58,22.43-51,8.16,4.08,16.31,8.16,24.47,8.16,18.35,0,40.78,6.12,44.86,26.51,2,18.35,2,34.67-6.12,53Zm-36.7-4.08c0-6.12,6.12-14.27,4.08-20.39-4.08-6.12-10.2-10.2-18.35-10.2-8.16,20.39-26.51,32.63-34.67,53,20.39,8.16,42.82-2,48.94-22.43Z"/><text class="cls-1" transform="translate(287.44 78.59) scale(1.17 1)">MAXW<tspan class="cls-2" x="196.66" y="0">E</tspan><tspan x="234.58" y="0">LL</tspan><tspan x="0" y="65.16">DENARI</tspan></text></g></g></svg>