<svg xmlns="http://www.w3.org/2000/svg" viewBox="0 0 312 155.36"><defs><style>.cls-1{opacity:0.5;}.cls-2{fill:none;}.cls-2,.cls-8{stroke:#000;}.cls-3,.cls-7{font-size:41.76px;font-family:Montserrat-Black, Montserrat;}.cls-3{letter-spacing:-0.05em;}.cls-4{letter-spacing:-0.09em;}.cls-5{letter-spacing:-0.09em;}.cls-6{letter-spacing:-0.07em;}.cls-7{letter-spacing:-0.06em;}.cls-8{stroke-miterlimit:10;stroke-width:0.5px;}</style></defs><title>max-weird</title><g id="Layer_2" data-name="Layer 2"><g id="Layer_1-2" data-name="Layer 1"><g class="cls-1"><path class="cls-2" d="M128.81,117.15l-7.42-18.93-8.49,12.64-9.77-1.72L85.44,91.84l4.27,18.58-20.5-3.53L62.72,64.27,78.3,67.81l25.15,26.46,11-18.24L130,79.57l19.29,41.11Z"/><path class="cls-2" d="M134.92,80.68l27.7,6.3a101,101,0,0,1,34.87,15.61A57.86,57.86,0,0,1,209.92,114c3.18,4,4.44,7.26,3.73,9.69s-3.4,4-7.85,4.59-10.53.32-18-1l-32.9-5.67Zm45.37,35.86c4.63.85,7.79.71,9.44-.44s1.36-3.22-.71-6.23a27,27,0,0,0-8.7-7.81,38.51,38.51,0,0,0-11.91-4.66l-8.34-1.76,11.17,19.23Z"/></g><g class="cls-1"><path d="M97.31,85.65,89.89,66.72,81.4,79.36l-9.77-1.72L53.94,60.34l4.27,18.58-20.5-3.53L31.22,32.77,46.8,36.31,72,62.77l11-18.24,15.58,3.54,19.29,41.11Z"/><path d="M103.42,49.18l27.7,6.3A101,101,0,0,1,166,71.09a57.86,57.86,0,0,1,12.43,11.4c3.18,4,4.44,7.26,3.73,9.69s-3.4,4-7.85,4.59-10.53.32-18-1l-32.9-5.67ZM148.79,85c4.63.85,7.79.71,9.44-.44s1.36-3.22-.71-6.23a27,27,0,0,0-8.7-7.81,38.51,38.51,0,0,0-11.91-4.66l-8.34-1.76,11.17,19.23Z"/></g><text class="cls-3" transform="translate(94.34 67.63)">M<tspan class="cls-4" x="37.54" y="0">A</tspan><tspan class="cls-5" x="67.24" y="0">X</tspan><tspan class="cls-6" x="95.51" y="0">W</tspan><tspan x="142.95" y="0">ELL</tspan></text><text class="cls-7" transform="translate(23.84 138.13)">DENARI</text><line class="cls-8" x1="81" y1="155.18" x2="241" y2="0.18"/><line class="cls-8" y1="89.18" x2="248" y2="89.18"/></g></g></svg>