<?xml version="1.0" encoding="utf-8"?>
<!-- Generator: Adobe Illustrator 22.1.0, SVG Export Plug-In . SVG Version: 6.00 Build 0)  -->
<svg version="1.1" id="Layer_1" xmlns="http://www.w3.org/2000/svg" xmlns:xlink="http://www.w3.org/1999/xlink" x="0px" y="0px"
	 viewBox="0 0 1979.5 404.5" style="enable-background:new 0 0 1979.5 404.5;" xml:space="preserve">
<title>max-logos-horizontal</title>
<g id="Layer_2_1_">
	<g id="Layer_1-2">
		<g>
			<path d="M202,404C90.6,404,0,313.4,0,202C0,90.6,90.6,0,202,0s202,90.6,202,202C404,313.4,313.4,404,202,404z M202,2
				C91.7,2,2,91.7,2,202s89.7,200,200,200s200-89.7,200-200S312.3,2,202,2z"/>
		</g>
		<g>
			<path d="M727,404c-111.4,0-202-90.6-202-202C525,90.6,615.6,0,727,0s202,90.6,202,202C929,313.4,838.4,404,727,404z M727,2
				C616.7,2,527,91.7,527,202s89.7,200,200,200s200-89.7,200-200S837.3,2,727,2z"/>
		</g>
		<g>
			<path d="M1252,404c-111.4,0-202-90.6-202-202c0-111.4,90.6-202,202-202s202,90.6,202,202C1454,313.4,1363.4,404,1252,404z
				 M1252,2c-110.3,0-200,89.7-200,200s89.7,200,200,200s200-89.7,200-200S1362.3,2,1252,2z"/>
		</g>
		<g>
			<path d="M1789,246.1h-32.4c3.5-13.6,5.2-27.5,5.2-41.5c-6.5,19.9-12.8,27.3-29,41.5h-21.2c4.8-21.3,0.4-24.8-13.4-41.5
				c0.1,17.6-2.8,25.7-10.4,41.5h-32.4v-87.2h39.9c20,16.6,34.4,25.4,45.4,49.8c3.3-7.8,8.3-16.5,9.3-24.9s-2.9-16-1-24.9h40
				C1786.3,187.9,1786.3,217.1,1789,246.1z"/>
		</g>
		<g>
			<path d="M1899.6,202.5c0,22.7-17.2,43.8-40.9,43.6H1794c-5.1-28.8-5.1-58.4,0-87.2h64.8C1882.5,158.7,1899.6,179.8,1899.6,202.5z
				 M1856.3,202.5c0-13.7-15.3-16.6-26-16.2h-21.8v32.4h21.8C1841,219.1,1856.3,216.2,1856.3,202.5L1856.3,202.5z"/>
		</g>
		<g>
			<path d="M1263.5,239.5c-10.8,5.6-21.6,11.7-32.4,17c3.5-20,5.2-34,5.2-52c-6.5,24.2-12.8,35.9-29,61.8
				c-8.5,2.6-12.7,3.5-21.2,4.3c4.8-33.8,0.4-38.8-13.4-65.3c0.1,27.2-2.8,40.7-10.4,62.4c-10.8-3.6-21.6-10.5-32.4-22.1v-87.2
				c13.3-14.2,26.6-21.5,39.9-24.1c20,22.9,34.4,43.1,45.4,76.5c3.3-11.3,8.3-22.7,9.3-33.5s-2.9-22.1-1-33.3
				c13.3,6,26.6,13.6,39.9,20.5C1260.7,189.4,1260.7,214.6,1263.5,239.5z"/>
		</g>
		<g>
			<path d="M1374.1,202c0,12-4.3,20.9-11.5,22.9c-7.2,2.6-17.5-1.9-29.3-3.6c-21.6-3.8-43.2,4.7-64.8,15.6
				c-5.1-20.5-5.1-49.4,0-69.9c21.6,10.9,43.2,19.4,64.8,15.6c11.9-1.7,22.1-6.1,29.3-3.6C1369.8,181.1,1374.1,190,1374.1,202z
				 M1330.8,202c0-6-15.3-6.6-26-7.7c-11.4-1.1-15.7-1.9-21.8-2.8v20.9c6.2-0.9,10.4-1.7,21.8-2.8
				C1315.5,208.6,1330.8,208,1330.8,202L1330.8,202z"/>
		</g>
		<g>
			<path d="M1777.5,404.5c-111.4,0-202-90.6-202-202c0-111.4,90.6-202,202-202s202,90.6,202,202
				C1979.5,313.9,1888.9,404.5,1777.5,404.5z M1777.5,2.5c-110.3,0-200,89.7-200,200s89.7,200,200,200s200-89.7,200-200
				S1887.8,2.5,1777.5,2.5z"/>
		</g>
		<g>
			<path d="M101.4,143.3H68.8c0,3.9-1.1,5.9-3.6,9.8h38.6C103.9,149.2,103.8,147.2,101.4,143.3z M176.9,143.3
				c-2.4,3.9-4.7,5.9-9.5,9.8h38.4c2.5-3.9,3.6-5.9,3.6-9.8H176.9z M68.9,260.7H105c0-3.9,1.1-5.9,3.6-9.8H72.5
				C70,254.8,68.8,256.8,68.9,260.7L68.9,260.7z M80.1,223c3.3,5.6,3.9,8.4,1.4,14h36.1c2.5-5.6,1.8-8.4-1.4-14H80.1z M124.8,223
				c6.7,5.6,9.1,8.4,10.1,14h33.4c5.8-5.6,6.9-8.4,6.9-14H124.8z M144,195c-0.3,4.3-2.6,6.5-3.8,10.8c-4-4.3-4.4-6.4-9.2-10.8H66.8
				c2.9,5.6,1.1,8.4,4,14h103.4c0.1-0.6,0.1-1.2,0.3-1.8c0.3,0.6,0.5,1.2,0.9,1.8h36.2c-2.9-5.6-1.1-8.4-4-14H144z M173.7,260.7
				h36.1c0-3.9,1.1-5.9,3.6-9.8h-36.1C174.8,254.8,173.7,256.8,173.7,260.7L173.7,260.7z M220.8,223h-36.1c3.3,5.6,3.9,8.4,1.4,14
				h36.2C224.8,231.4,224.1,228.6,220.8,223z M196.8,167.1H150c-5.8,5.6-6.8,8.4-6.8,14h55.2C195.1,175.4,194.4,172.6,196.8,167.1
				L196.8,167.1z M103.3,167.1H56.2c-2.5,5.6-1.8,8.4,1.4,14h55.6C106.6,175.4,104.2,172.6,103.3,167.1L103.3,167.1z"/>
		</g>
		<g>
			<path d="M307.6,150.4c-7.4-4.8-19.6-7.1-32.6-7.1h-57.9c0,3.9-1.1,5.9-3.6,9.8h97.3C309.9,152.1,308.8,151.2,307.6,150.4z
				 M215.1,195c2.9,5.6,1.1,8.4,4,14h39.6c-2.9-5.6-1.1-8.4-4-14H215.1z M304.4,223c-2.4,4.5-8.9,6.9-17.2,6.9h-16.6
				c-0.4-2.7-1.1-4.1-2.7-6.9h-39.6c3.3,5.6,3.9,8.4,1.4,14h113.1c1.4-1.1,2.7-2.4,3.8-3.8c2.4-2.8,3.2-6.7,2.1-10.2L304.4,223z
				 M217.1,260.7H275c12.6,0,25.1-2.4,36.7-7.1c2.1-0.8,4.1-1.7,6.3-2.7h-97.3C218.3,254.8,217.1,256.8,217.1,260.7L217.1,260.7z
				 M338.9,195h-40.1c1.6,2,2.5,4.5,2.6,7c0.1,2.4,0.6,4.8,1.4,7h40.1c-1-2.2-1.5-4.6-1.6-7C341.2,199.5,340.3,197.1,338.9,195z
				 M319.1,170.7c-0.6-1.3-0.9-2.5-1.5-3.6H204.5c-2.5,5.6-1.8,8.4,1.4,14h39.6c-1.6-2.8-2.3-4.2-2.7-7h16.6c8.2,0,14.8,2.4,22.5,7
				h44.5C323.5,177.9,321.1,174.5,319.1,170.7L319.1,170.7z"/>
		</g>
		<g>
			<path d="M764,145c-2,20.4-8.2,40.8-26.5,51c-24.5,14.3-42.8,38.7-44.9,65.2c-10.2-4.1-16.3-12.2-26.5-14.2
				c2-32.6,24.5-57.1,46.9-79.5c-18.3,14.3-36.7,28.6-48.9,48.9c-6.1-4.1-14.3-2-20.4-2c2-20.4,10.2-38.7,14.3-57.1
				c-12.2,28.6-28.5,59.1-26.5,91.8c-10.2,4.1-16.3,12.2-22.4,22.4c-4.1-32.6,0-63.2,4.1-95.8c0-14.3,2-28.6-4.1-40.8
				c20.4-12.2,42.8-16.3,65.2-18.3c12.2,14.3,12.2,34.7,6.1,51c16.3-12.3,32.6-24.5,40.8-44.9C735.4,128.7,749.7,134.8,764,145z"/>
		</g>
		<g>
			<path d="M839.4,240.9c-8.2,24.5-30.6,38.7-55.1,44.9c-28.5,6.1-53-4.1-77.5-16.3c2-12.2,2-24.5,10.2-34.7
				c10.2-12.2,24.5-20.4,36.7-30.6c12.2-14.3,22.4-30.6,22.4-51c8.2,4.1,16.3,8.1,24.5,8.1c18.3,0,40.8,6.1,44.9,26.5
				C847.5,206.2,847.5,222.5,839.4,240.9L839.4,240.9z M802.7,236.8c0-6.1,6.1-14.3,4.1-20.4c-4.1-6.1-10.2-10.2-18.4-10.2
				c-8.2,20.4-26.5,32.6-34.7,53C774.2,267.3,796.6,257.2,802.7,236.8L802.7,236.8z"/>
		</g>
	</g>
</g>
</svg>
