<svg xmlns="http://www.w3.org/2000/svg" viewBox="0 0 1979.5 404.5"><defs><style>.cls-1{fill:none;stroke:#000;stroke-miterlimit:10;stroke-width:2px;}</style></defs><title>max-logos-horizontal</title><g id="Layer_2" data-name="Layer 2"><g id="Layer_1-2" data-name="Layer 1"><circle class="cls-1" cx="202" cy="202" r="201"/><circle class="cls-1" cx="727" cy="202" r="201"/><circle class="cls-1" cx="1252" cy="202" r="201"/><path d="M1789,246.11h-32.4a165,165,0,0,0,5.17-41.49c-6.54,19.86-12.78,27.31-29,41.49h-21.19c4.85-21.27.44-24.84-13.43-41.49.09,17.55-2.76,25.67-10.37,41.49h-32.39V158.89h39.87c20,16.6,34.39,25.45,45.44,49.84,3.27-7.82,8.3-16.49,9.34-24.92s-2.86-16-1-24.92H1789A463.76,463.76,0,0,0,1789,246.11Z"/><path d="M1899.61,202.5c0,22.69-17.15,43.77-40.87,43.61H1794a248.6,248.6,0,0,1,0-87.22h64.79C1882.46,158.73,1899.61,179.81,1899.61,202.5Zm-43.31,0c0-13.71-15.27-16.64-26-16.2h-21.84v32.4h21.84C1841,219.14,1856.3,216.21,1856.3,202.5Z"/><path d="M1263.46,239.53c-10.8,5.63-21.6,11.69-32.4,17,3.53-20,5.16-34,5.17-52-6.54,24.16-12.78,35.87-29,61.84-8.48,2.56-12.71,3.53-21.19,4.27,4.85-33.77.44-38.83-13.43-65.32.09,27.21-2.76,40.68-10.37,62.42-10.8-3.58-21.59-10.55-32.39-22.12V158.39c13.29-14.24,26.58-21.51,39.87-24.08,20,22.87,34.39,43.05,45.44,76.48,3.27-11.33,8.3-22.68,9.34-33.47s-2.86-22.08-1-33.33c13.29,6,26.58,13.55,39.87,20.48A343.73,343.73,0,0,0,1263.46,239.53Z"/><path d="M1374.11,202c0,12-4.28,20.92-11.54,22.91-7.25,2.55-17.47-1.85-29.33-3.56-21.59-3.79-43.19,4.67-64.79,15.61-5.14-20.53-5.14-49.39,0-69.92,21.6,10.94,43.2,19.4,64.79,15.61,11.86-1.71,22.08-6.11,29.33-3.55C1369.83,181.08,1374.11,190,1374.11,202Zm-43.31,0c0-6-15.27-6.64-26-7.66-11.43-1.08-15.69-1.85-21.84-2.78v20.88c6.15-.93,10.41-1.7,21.84-2.78C1315.53,208.64,1330.8,208,1330.8,202Z"/><circle class="cls-1" cx="1777.5" cy="202.5" r="201"/><path d="M101.41,143.29H68.85c0,3.92-1.14,5.87-3.63,9.79H103.8C103.88,149.16,103.82,147.21,101.41,143.29Zm75.49,0c-2.35,3.92-4.67,5.87-9.5,9.79h38.44c2.49-3.92,3.62-5.87,3.62-9.79Zm-108,117.42h36.06c0-3.92,1.14-5.87,3.62-9.79H72.47C70,254.84,68.85,256.79,68.85,260.71ZM80.05,223c3.26,5.59,3.91,8.38,1.44,14h36.07c2.46-5.6,1.82-8.39-1.44-14Zm44.73,0c6.73,5.59,9.11,8.38,10.11,14H168.3c5.82-5.6,6.85-8.39,6.94-14ZM144,195c-.34,4.31-2.6,6.46-3.79,10.76-4-4.3-4.35-6.45-9.21-10.76H66.85c2.89,5.59,1.1,8.39,4,14H174.28a14.27,14.27,0,0,1,.27-1.82,18.57,18.57,0,0,0,.85,1.82h36.2c-2.89-5.59-1.1-8.39-4-14Zm29.68,65.7h36.06c0-3.92,1.14-5.87,3.63-9.79H177.3C174.82,254.84,173.68,256.79,173.68,260.71ZM220.81,223H184.75c3.26,5.59,3.9,8.38,1.44,14h36.2C224.8,231.35,224.13,228.56,220.81,223Zm-24-55.92H150c-5.76,5.6-6.77,8.39-6.81,14H198.4C195.08,175.44,194.41,172.65,196.81,167.05Zm-93.51,0H56.2c-2.47,5.6-1.82,8.39,1.44,14h55.63C106.6,175.44,104.25,172.65,103.3,167.05Z"/><path d="M307.61,150.42c-7.35-4.8-19.59-7.13-32.59-7.13H217.15c0,3.92-1.14,5.87-3.62,9.79h97.29A17.28,17.28,0,0,0,307.61,150.42ZM215.15,195c2.9,5.59,1.1,8.39,4,14h39.56c-2.9-5.59-1.1-8.39-4-14Zm89.25,28c-2.42,4.47-8.94,6.85-17.19,6.85H270.58c-.39-2.74-1.07-4.11-2.66-6.85H228.36c3.26,5.59,3.91,8.38,1.44,14H342.89a24.51,24.51,0,0,0,3.83-3.78,11,11,0,0,0,2.13-10.2Zm-87.25,37.74H275a97.56,97.56,0,0,0,36.74-7.13c2.11-.82,4.14-1.68,6.3-2.66H220.78C218.29,254.84,217.15,256.79,217.15,260.71ZM338.86,195H298.74a12.11,12.11,0,0,1,2.56,7,21.87,21.87,0,0,0,1.44,7h40.12a19.42,19.42,0,0,1-1.58-7A13.22,13.22,0,0,0,338.86,195Zm-19.77-24.32c-.6-1.26-.88-2.52-1.5-3.64H204.5c-2.46,5.6-1.81,8.39,1.45,14H245.5c-1.63-2.79-2.31-4.19-2.68-7h16.64c8.25,0,14.8,2.38,22.53,7h44.45A47.36,47.36,0,0,1,319.09,170.69Z"/><path d="M764,145c-2,20.39-8.15,40.78-26.51,51-24.47,14.27-42.82,38.74-44.86,65.25C682.42,257.16,676.3,249,666.1,247c2-32.63,24.47-57.1,46.9-79.53-18.35,14.27-36.7,28.55-48.94,48.94-6.11-4.08-14.27-2-20.39-2,2-20.39,10.2-38.74,14.28-57.1-12.24,28.55-28.55,59.14-26.51,91.77-10.2,4.07-16.32,12.23-22.43,22.43-4.08-32.63,0-63.22,4.08-95.84,0-14.28,2-28.55-4.08-40.79,20.39-12.23,42.82-16.31,65.25-18.35,12.24,14.27,12.24,34.67,6.12,51C696.69,155.2,713,143,721.16,122.58,735.43,128.7,749.71,134.81,764,145Z"/><path d="M839.43,240.85c-8.15,24.47-30.59,38.74-55.06,44.86-28.54,6.12-53-4.08-77.48-16.31,2-12.24,2-24.47,10.19-34.67,10.2-12.23,24.47-20.39,36.71-30.59,12.23-14.27,22.43-30.58,22.43-51,8.15,4.07,16.31,8.15,24.47,8.15,18.35,0,40.78,6.12,44.86,26.51,2,18.35,2,34.67-6.12,53Zm-36.7-4.08c0-6.12,6.11-14.27,4.08-20.39-4.08-6.12-10.2-10.2-18.36-10.2-8.15,20.4-26.51,32.63-34.66,53,20.39,8.16,42.82-2,48.94-22.43Z"/></g></g></svg>