<svg xmlns="http://www.w3.org/2000/svg" viewBox="0 0 256.73 188.48"><defs><style>.cls-1{fill:none;stroke:#000;}.cls-2{font-size:12px;font-family:MonumentExtended-Ultrabold, Monument Extended;font-weight:700;}.cls-3{letter-spacing:-0.01em;}</style></defs><title>max-mtv</title><g id="Layer_2" data-name="Layer 2"><g id="Layer_1-2" data-name="Layer 1"><path d="M133.57,105.21c-10.79,5.63-21.59,11.7-32.39,17,3.52-20,5.15-34,5.17-52-6.55,24.16-12.78,35.86-29,61.84-8.47,2.56-12.71,3.52-21.18,4.27C61,102.54,56.64,97.48,42.77,71c.08,27.2-2.77,40.68-10.37,62.42C21.6,129.83,10.8,122.87,0,111.3V24.07C13.29,9.83,26.58,2.57,39.87,0c20,22.87,34.39,43,45.45,76.48C88.58,65.14,93.61,53.8,94.65,43s-2.85-22.08-1-33.33c13.29,6,26.58,13.55,39.87,20.48A343.64,343.64,0,0,0,133.57,105.21Z"/><path d="M244.23,67.69c0,12-4.29,20.91-11.54,22.9-7.26,2.55-17.47-1.84-29.33-3.55-21.6-3.8-43.2,4.66-64.8,15.6-5.14-20.53-5.14-49.38,0-69.91,21.6,10.94,43.2,19.4,64.8,15.6,11.86-1.71,22.07-6.1,29.33-3.55C239.94,46.77,244.23,55.7,244.23,67.69Zm-43.32,0c0-6-15.27-6.64-26-7.66-11.43-1.09-15.69-1.85-21.84-2.78V78.12c6.15-.93,10.41-1.69,21.84-2.78C185.64,74.33,200.91,73.65,200.91,67.69Z"/><path class="cls-1" d="M135.57,107.21c-10.79,5.63-21.59,11.7-32.39,17,3.52-20,5.15-34,5.17-52-6.55,24.16-12.78,35.86-29,61.84-8.47,2.56-12.71,3.52-21.18,4.27C63,104.54,58.64,99.48,44.77,73c.08,27.2-2.77,40.68-10.37,62.42C23.6,131.83,12.8,124.87,2,113.3V26.07C15.29,11.83,28.58,4.57,41.87,2c20,22.87,34.39,43,45.45,76.48C90.58,67.14,95.61,55.8,96.65,45s-2.85-22.08-1-33.33c13.29,6,26.58,13.55,39.87,20.48A343.64,343.64,0,0,0,135.57,107.21Z"/><path class="cls-1" d="M246.23,69.69c0,12-4.29,20.91-11.54,22.9-7.26,2.55-17.47-1.84-29.33-3.55-21.6-3.8-43.2,4.66-64.8,15.6-5.14-20.53-5.14-49.38,0-69.91,21.6,10.94,43.2,19.4,64.8,15.6,11.86-1.71,22.07-6.1,29.33-3.55C241.94,48.77,246.23,57.7,246.23,69.69Zm-43.32,0c0-6-15.27-6.64-26-7.66-11.43-1.09-15.69-1.85-21.84-2.78V80.12c6.15-.93,10.41-1.69,21.84-2.78C187.64,76.33,202.91,75.65,202.91,69.69Z"/><path class="cls-1" d="M137.57,109.21c-10.79,5.63-21.59,11.7-32.39,17,3.52-20,5.15-34,5.17-52-6.55,24.16-12.78,35.86-29,61.84-8.47,2.56-12.71,3.52-21.18,4.27C65,106.54,60.64,101.48,46.77,75c.08,27.2-2.77,40.68-10.37,62.42C25.6,133.83,14.8,126.87,4,115.3V28.07C17.29,13.83,30.58,6.57,43.87,4c20,22.87,34.39,43,45.45,76.48C92.58,69.14,97.61,57.8,98.65,47s-2.85-22.08-1-33.33c13.29,6,26.58,13.55,39.87,20.48A343.64,343.64,0,0,0,137.57,109.21Z"/><path class="cls-1" d="M248.23,71.69c0,12-4.29,20.91-11.54,22.9-7.26,2.55-17.47-1.84-29.33-3.55-21.6-3.8-43.2,4.66-64.8,15.6-5.14-20.53-5.14-49.38,0-69.91,21.6,10.94,43.2,19.4,64.8,15.6,11.86-1.71,22.07-6.1,29.33-3.55C243.94,50.77,248.23,59.7,248.23,71.69Zm-43.32,0c0-6-15.27-6.64-26-7.66-11.43-1.09-15.69-1.85-21.84-2.78V82.12c6.15-.93,10.41-1.69,21.84-2.78C189.64,78.33,204.91,77.65,204.91,71.69Z"/><path class="cls-1" d="M139.57,111.21c-10.79,5.63-21.59,11.7-32.39,17,3.52-20,5.15-34,5.17-52-6.55,24.16-12.78,35.86-29,61.84-8.47,2.56-12.71,3.52-21.18,4.27C67,108.54,62.64,103.48,48.77,77c.08,27.2-2.77,40.68-10.37,62.42C27.6,135.83,16.8,128.87,6,117.3V30.07C19.29,15.83,32.58,8.57,45.87,6c20,22.87,34.39,43,45.45,76.48C94.58,71.14,99.61,59.8,100.65,49s-2.85-22.08-1-33.33c13.29,6,26.58,13.55,39.87,20.48A343.64,343.64,0,0,0,139.57,111.21Z"/><path class="cls-1" d="M250.23,73.69c0,12-4.29,20.91-11.54,22.9-7.26,2.55-17.47-1.84-29.33-3.55-21.6-3.8-43.2,4.66-64.8,15.6-5.14-20.53-5.14-49.38,0-69.91,21.6,10.94,43.2,19.4,64.8,15.6,11.86-1.71,22.07-6.1,29.33-3.55C245.94,52.77,250.23,61.7,250.23,73.69Zm-43.32,0c0-6-15.27-6.64-26-7.66-11.43-1.09-15.69-1.85-21.84-2.78V84.12c6.15-.93,10.41-1.69,21.84-2.78C191.64,80.33,206.91,79.65,206.91,73.69Z"/><path class="cls-1" d="M141.57,113.21c-10.79,5.63-21.59,11.7-32.39,17,3.52-20,5.15-34,5.17-52-6.55,24.16-12.78,35.86-29,61.84-8.47,2.56-12.71,3.52-21.18,4.27C69,110.54,64.64,105.48,50.77,79c.08,27.2-2.77,40.68-10.37,62.42C29.6,137.83,18.8,130.87,8,119.3V32.07C21.29,17.83,34.58,10.57,47.87,8c20,22.87,34.39,43,45.45,76.48,3.26-11.34,8.29-22.68,9.33-33.47s-2.85-22.08-1-33.33c13.29,6,26.58,13.55,39.87,20.48A343.64,343.64,0,0,0,141.57,113.21Z"/><path class="cls-1" d="M252.23,75.69c0,12-4.29,20.91-11.54,22.9-7.26,2.55-17.47-1.84-29.33-3.55-21.6-3.8-43.2,4.66-64.8,15.6-5.14-20.53-5.14-49.38,0-69.91,21.6,10.94,43.2,19.4,64.8,15.6,11.86-1.71,22.07-6.1,29.33-3.55C247.94,54.77,252.23,63.7,252.23,75.69Zm-43.32,0c0-6-15.27-6.64-26-7.66-11.43-1.09-15.69-1.85-21.84-2.78V86.12c6.15-.93,10.41-1.69,21.84-2.78C193.64,82.33,208.91,81.65,208.91,75.69Z"/><path class="cls-1" d="M143.57,115.21c-10.79,5.63-21.59,11.7-32.39,17,3.52-20,5.15-34,5.17-52-6.55,24.16-12.78,35.86-29,61.84-8.47,2.56-12.71,3.52-21.18,4.27C71,112.54,66.64,107.48,52.77,81c.08,27.2-2.77,40.68-10.37,62.42C31.6,139.83,20.8,132.87,10,121.3V34.07C23.29,19.83,36.58,12.57,49.87,10c20,22.87,34.39,43,45.45,76.48,3.26-11.34,8.29-22.68,9.33-33.47s-2.85-22.08-1-33.33c13.29,6,26.58,13.55,39.87,20.48A343.64,343.64,0,0,0,143.57,115.21Z"/><path class="cls-1" d="M254.23,77.69c0,12-4.29,20.91-11.54,22.9-7.26,2.55-17.47-1.84-29.33-3.55-21.6-3.8-43.2,4.66-64.8,15.6-5.14-20.53-5.14-49.38,0-69.91,21.6,10.94,43.2,19.4,64.8,15.6,11.86-1.71,22.07-6.1,29.33-3.55C249.94,56.77,254.23,65.7,254.23,77.69Zm-43.32,0c0-6-15.27-6.64-26-7.66-11.43-1.09-15.69-1.85-21.84-2.78V88.12c6.15-.93,10.41-1.69,21.84-2.78C195.64,84.33,210.91,83.65,210.91,77.69Z"/><path class="cls-1" d="M145.57,117.21c-10.79,5.63-21.59,11.7-32.39,17,3.52-20,5.15-34,5.17-52-6.55,24.16-12.78,35.86-29,61.84-8.47,2.56-12.71,3.52-21.18,4.27C73,114.54,68.64,109.48,54.77,83c.08,27.2-2.77,40.68-10.37,62.42C33.6,141.83,22.8,134.87,12,123.3V36.07C25.29,21.83,38.58,14.57,51.87,12c20,22.87,34.39,43,45.45,76.48,3.26-11.34,8.29-22.68,9.33-33.47s-2.85-22.08-1-33.33c13.29,6,26.58,13.55,39.87,20.48A343.64,343.64,0,0,0,145.57,117.21Z"/><path class="cls-1" d="M256.23,79.69c0,12-4.29,20.91-11.54,22.9-7.26,2.55-17.47-1.84-29.33-3.55-21.6-3.8-43.2,4.66-64.8,15.6-5.14-20.53-5.14-49.38,0-69.91,21.6,10.94,43.2,19.4,64.8,15.6,11.86-1.71,22.07-6.1,29.33-3.55C251.94,58.77,256.23,67.7,256.23,79.69Zm-43.32,0c0-6-15.27-6.64-26-7.66-11.43-1.09-15.69-1.85-21.84-2.78V90.12c6.15-.93,10.41-1.69,21.84-2.78C197.64,86.33,212.91,85.65,212.91,79.69Z"/><text class="cls-2" transform="translate(56.14 184.52)"><tspan class="cls-3">M</tspan><tspan x="13.22" y="0">AXWELL DE</tspan><tspan class="cls-3" x="107.28" y="0">NA</tspan><tspan x="130.18" y="0">RI</tspan></text></g></g></svg>