<svg xmlns="http://www.w3.org/2000/svg" viewBox="0 0 766.17 162.52"><defs><style>.cls-1{font-size:68.29px;font-family:MonumentExtended-Ultrabold, Monument Extended;font-weight:700;}.cls-2{letter-spacing:-0.01em;}.cls-3{letter-spacing:0em;}.cls-4{letter-spacing:-0.01em;}</style></defs><title>max-mockup4</title><g id="Layer_2" data-name="Layer 2"><g id="Layer_1-2" data-name="Layer 1"><path d="M133.57,117.92c-10.79,5.63-21.59,11.7-32.39,17,3.52-20,5.15-34,5.17-52-6.55,24.16-12.78,35.86-29,61.83-8.47,2.57-12.71,3.53-21.18,4.28,4.84-33.78.44-38.84-13.43-65.32.08,27.2-2.77,40.68-10.37,62.41C21.6,142.54,10.8,135.58,0,124V36.78c13.29-14.24,26.58-21.5,39.87-24.07,20,22.87,34.39,43,45.45,76.48,3.26-11.34,8.29-22.68,9.33-33.47s-2.85-22.08-1-33.33c13.29,6,26.58,13.55,39.87,20.48A343.64,343.64,0,0,0,133.57,117.92Z"/><path d="M244.23,80.39c0,12-4.29,20.92-11.54,22.91-7.26,2.55-17.47-1.84-29.33-3.55-21.6-3.79-43.2,4.66-64.8,15.6-5.14-20.53-5.14-49.38,0-69.91,21.6,10.94,43.2,19.4,64.8,15.6,11.86-1.71,22.07-6.1,29.33-3.55C239.94,59.48,244.23,68.41,244.23,80.39Zm-43.32,0c0-6-15.27-6.64-26-7.65C163.45,71.65,159.19,70.89,153,70V90.83c6.15-.93,10.41-1.69,21.84-2.78C185.64,87,200.91,86.36,200.91,80.39Z"/><text class="cls-1" transform="translate(295.54 58.04)"><tspan class="cls-2">M<tspan class="cls-3" x="75.25" y="0">AXWELL</tspan></tspan><tspan x="0" y="81.94">DE</tspan><tspan class="cls-4" x="112.53" y="81.94">NA</tspan><tspan x="242.82" y="81.94">RI</tspan></text></g></g></svg>