<svg xmlns="http://www.w3.org/2000/svg" xmlns:xlink="http://www.w3.org/1999/xlink" viewBox="0 0 2028 1306"><defs><style>.cls-1,.cls-10,.cls-11,.cls-2,.cls-3,.cls-4,.cls-5,.cls-6,.cls-7,.cls-8,.cls-9{fill:none;}.cls-10,.cls-11,.cls-2,.cls-3,.cls-4,.cls-5,.cls-6,.cls-7,.cls-8,.cls-9{stroke:#231f20;stroke-linecap:round;stroke-dasharray:0 6.5;}.cls-2{stroke-width:5px;}.cls-3{stroke-width:4.69px;}.cls-4{stroke-width:4.39px;}.cls-5{stroke-width:4.08px;}.cls-6{stroke-width:3.78px;}.cls-7{stroke-width:3.47px;}.cls-8{stroke-width:3.17px;}.cls-9{stroke-width:2.86px;}.cls-10{stroke-width:2.56px;}.cls-11{stroke-width:2.25px;}.cls-12{fill:#fff;}.cls-13{font-size:16.57px;font-family:MonumentExtended-Ultrabold, Monument Extended;font-weight:700;}.cls-14{letter-spacing:-0.02em;}.cls-15{letter-spacing:-0.01em;}.cls-16{letter-spacing:-0.08em;}.cls-17{letter-spacing:-0.01em;}.cls-18{letter-spacing:0em;}.cls-19{fill:url(#Undulating_Coarse_Dots);}</style><pattern id="Undulating_Coarse_Dots" data-name="Undulating Coarse Dots" width="83" height="65" patternUnits="userSpaceOnUse" viewBox="0 0 83 65"><rect class="cls-1" width="83" height="65"/><line class="cls-2" x1="83" y1="65" x2="83" y2="130.5"/><line class="cls-2" y1="65" y2="130.5"/><line class="cls-3" x1="4.61" y1="61.75" x2="4.61" y2="130.5"/><line class="cls-4" x1="9.22" y1="65" x2="9.22" y2="130.5"/><line class="cls-5" x1="13.83" y1="61.75" x2="13.83" y2="130.5"/><line class="cls-6" x1="18.44" y1="65" x2="18.44" y2="130.5"/><line class="cls-7" x1="23.06" y1="61.75" x2="23.06" y2="130.5"/><line class="cls-8" x1="27.67" y1="65" x2="27.67" y2="130.5"/><line class="cls-9" x1="32.28" y1="61.75" x2="32.28" y2="130.5"/><line class="cls-10" x1="36.89" y1="65" x2="36.89" y2="130.5"/><line class="cls-11" x1="41.5" y1="61.75" x2="41.5" y2="130.5"/><line class="cls-2" x1="83" y1="65" x2="83" y2="130.5"/><line class="cls-3" x1="78.39" y1="61.75" x2="78.39" y2="130.5"/><line class="cls-4" x1="73.78" y1="65" x2="73.78" y2="130.5"/><line class="cls-5" x1="69.17" y1="61.75" x2="69.17" y2="130.5"/><line class="cls-6" x1="64.56" y1="65" x2="64.56" y2="130.5"/><line class="cls-7" x1="59.94" y1="61.75" x2="59.94" y2="130.5"/><line class="cls-8" x1="55.33" y1="65" x2="55.33" y2="130.5"/><line class="cls-9" x1="50.72" y1="61.75" x2="50.72" y2="130.5"/><line class="cls-10" x1="46.11" y1="65" x2="46.11" y2="130.5"/><line class="cls-2" y1="65" y2="130.5"/><line class="cls-2" x1="83" x2="83" y2="65.5"/><line class="cls-2" y2="65.5"/><line class="cls-3" x1="4.61" y1="-3.25" x2="4.61" y2="65.5"/><line class="cls-4" x1="9.22" x2="9.22" y2="65.5"/><line class="cls-5" x1="13.83" y1="-3.25" x2="13.83" y2="65.5"/><line class="cls-6" x1="18.44" x2="18.44" y2="65.5"/><line class="cls-7" x1="23.06" y1="-3.25" x2="23.06" y2="65.5"/><line class="cls-8" x1="27.67" x2="27.67" y2="65.5"/><line class="cls-9" x1="32.28" y1="-3.25" x2="32.28" y2="65.5"/><line class="cls-10" x1="36.89" x2="36.89" y2="65.5"/><line class="cls-11" x1="41.5" y1="-3.25" x2="41.5" y2="65.5"/><line class="cls-2" x1="83" x2="83" y2="65.5"/><line class="cls-3" x1="78.39" y1="-3.25" x2="78.39" y2="65.5"/><line class="cls-4" x1="73.78" x2="73.78" y2="65.5"/><line class="cls-5" x1="69.17" y1="-3.25" x2="69.17" y2="65.5"/><line class="cls-6" x1="64.56" x2="64.56" y2="65.5"/><line class="cls-7" x1="59.94" y1="-3.25" x2="59.94" y2="65.5"/><line class="cls-8" x1="55.33" x2="55.33" y2="65.5"/><line class="cls-9" x1="50.72" y1="-3.25" x2="50.72" y2="65.5"/><line class="cls-10" x1="46.11" x2="46.11" y2="65.5"/><line class="cls-2" y2="65.5"/><line class="cls-2" x1="83" y1="-65" x2="83" y2="0.5"/><line class="cls-2" y1="-65" y2="0.5"/><line class="cls-3" x1="4.61" y1="-68.25" x2="4.61" y2="0.5"/><line class="cls-4" x1="9.22" y1="-65" x2="9.22" y2="0.5"/><line class="cls-5" x1="13.83" y1="-68.25" x2="13.83" y2="0.5"/><line class="cls-6" x1="18.44" y1="-65" x2="18.44" y2="0.5"/><line class="cls-7" x1="23.06" y1="-68.25" x2="23.06" y2="0.5"/><line class="cls-8" x1="27.67" y1="-65" x2="27.67" y2="0.5"/><line class="cls-9" x1="32.28" y1="-68.25" x2="32.28" y2="0.5"/><line class="cls-10" x1="36.89" y1="-65" x2="36.89" y2="0.5"/><line class="cls-11" x1="41.5" y1="-68.25" x2="41.5" y2="0.5"/><line class="cls-2" x1="83" y1="-65" x2="83" y2="0.5"/><line class="cls-3" x1="78.39" y1="-68.25" x2="78.39" y2="0.5"/><line class="cls-4" x1="73.78" y1="-65" x2="73.78" y2="0.5"/><line class="cls-5" x1="69.17" y1="-68.25" x2="69.17" y2="0.5"/><line class="cls-6" x1="64.56" y1="-65" x2="64.56" y2="0.5"/><line class="cls-7" x1="59.94" y1="-68.25" x2="59.94" y2="0.5"/><line class="cls-8" x1="55.33" y1="-65" x2="55.33" y2="0.5"/><line class="cls-9" x1="50.72" y1="-68.25" x2="50.72" y2="0.5"/><line class="cls-10" x1="46.11" y1="-65" x2="46.11" y2="0.5"/><line class="cls-2" y1="-65" y2="0.5"/></pattern></defs><title>whocares-full</title><g id="Layer_2" data-name="Layer 2"><g id="Layer_1-2" data-name="Layer 1"><rect class="cls-12" width="2028" height="1306"/><text class="cls-13" transform="translate(865.87 879.18)">a <tspan class="cls-14" x="20.35" y="0">b</tspan><tspan class="cls-15" x="34.03" y="0">an</tspan><tspan x="61.64" y="0">d consi</tspan><tspan class="cls-14" x="142.63" y="0">s</tspan><tspan x="156.12" y="0">ting </tspan><tspan class="cls-15" x="205.99" y="0">o</tspan><tspan x="219.68" y="0">f </tspan><tspan class="cls-15" x="-287.5" y="28">w</tspan><tspan x="-265.26" y="28">i</tspan><tspan class="cls-15" x="-260.62" y="28">n</tspan><tspan x="-246.57" y="28">ter </tspan><tspan class="cls-16" x="-204.78" y="28">y</tspan><tspan x="-191.51" y="28">ocom . r</tspan><tspan class="cls-16" x="-99.32" y="28">y</tspan><tspan class="cls-15" x="-86.04" y="28">a</tspan><tspan x="-72.49" y="28">n fi</tspan><tspan class="cls-15" x="-37.13" y="28">n</tspan><tspan x="-23.08" y="28">e . co</tspan><tspan class="cls-15" x="36.3" y="28">r</tspan><tspan class="cls-16" x="47.11" y="28">e</tspan><tspan x="59.6" y="28">y </tspan><tspan class="cls-15" x="80.83" y="28">h</tspan><tspan x="94.88" y="28">albert . j</tspan><tspan class="cls-15" x="187.85" y="28">a</tspan><tspan x="201.4" y="28">cob </tspan><tspan class="cls-15" x="249.72" y="28">har</tspan><tspan x="288.13" y="28">ding . em</tspan><tspan class="cls-17" x="388.54" y="28">m</tspan><tspan class="cls-18" x="410.18" y="28">a to</tspan><tspan class="cls-15" x="454.75" y="28">ma</tspan><tspan class="cls-18" x="489.94" y="28">sik</tspan></text><path class="cls-19" d="M743.36,487.58c-30,34.36-66.16,65.88-88.17,105.67-18.89,34.14-34.9,70.75-52.65,105.61-10.75-9.21-15.87-14.28-26.49-23.72,4.05-18.74,20.12-62.85,5.63-83.65-8.52,22-19.07,43.22-29.11,64.56-11.36-8.09-17.29-11.7-30.51-16.41-6.47-31.4-19.47-57.4-30.84-87.19,14.8-.11,23.44-1.29,42.07-4.9-5.44,32.13,5.91,35.76,13.47,56.3,6.76-25.75,22.12-46.62,36.69-68.46,19.55-5.44,29.81-8.59,50.37-15-8.57,19.34-34,59.71-17.22,83.42,10.87-39.78,47.93-70.13,73.09-100.79C711.78,496.3,722.74,493,743.36,487.58Z"/><path class="cls-19" d="M785.2,586.9c.7,48.26-30.15,97.8-46.86,141.71-16.54,2.72-24.46,3.81-39,5,17.61-42.23,48.61-88,53.86-133.73.17-14.16-4.69-20.27-19.26-20.37A40.2,40.2,0,0,0,707.51,590c4.18,46-35.79,99.44-53,140.31-11.16-3.42-16.26-6-26-12,18.91-44,31.87-83.48,46.36-126.33,12.61-37.29,45.83-70.63,71.3-102.46A260.47,260.47,0,0,0,688.81,513c7.73,4.7,12,6.71,22.09,9.32,26.56-13.61,51.11-34.45,79.22-44.5L762.77,513c19.62-16.12,42.13-39.35,68.59-38.84C877.11,475,788.94,573.66,785.2,586.9Z"/><path class="cls-19" d="M787.35,594.37c-1.49-25.69,79.75-113.09,106.92-88.88,28.74,25.6-.65,69.63-3.64,94.91-5.13,43.26-14.28,98.61-74.07,114.38C742.89,734.21,789.2,626.16,787.35,594.37Zm73,4.18c3.58-15.53-4.63-18.39-18.26-19S820,582,818,595.92s5.87,17.25,18.89,18.56S856.77,614.08,860.34,598.55Z"/><path class="cls-19" d="M960.36,548.8c22.77,5.9,46.22,13.75,41.72,44.26-12.15.55-18.19.66-31.54.69.26-9.76-8.73-10.27-20.29-10.33-14.4-.07-20.57.89-26.31,18.58s2.75,20.44,16.71,20.94c11.22.39,17.81-.53,23.63-10.7,13.24.08,20.31-.12,33.89-.67-12.47,31.77,21.82,69.3-29.52,73.27-39.9,3.09-88.35-39.09-75.48-84.3C900.34,575.34,931.44,541.3,960.36,548.8Z"/><path class="cls-19" d="M1102.09,594.36c32,29.81,27.35,113.63,33.37,154.07-13.26-8.51-19.9-13-33.17-21.55-1-7-3.66-18.33-8.69-40.19-1.55,46.1-18.52,23.66-32.59,16.77-30.51-14.94-59.45-54.53-63.74-77.3-3.09-16.47,24.57-38.14,46.78-40,9.23-.78,16.29.1,24.24,3.39-5.71-14.29-10.23-11.42-18.87-10.53a129.85,129.85,0,0,0-31.06,7.2c-2-10.47.54-15.39.15-26.06a161.91,161.91,0,0,1,50.17-9C1102.31,550.65,1063,546.12,1102.09,594.36Zm-24.32,18.09c-6-1.25-13.72-1.57-23.6-.78-15.89,1.27-24.14,4.67-23.23,9.25.79,4,7.3,10.38,16.27,10.46,11.91.11,22.06-10.58,31.1-15A13.74,13.74,0,0,0,1077.77,612.45Z"/><path class="cls-19" d="M1211.12,553.78c-4.42,9.79-48.24,5.87-44.71,17.31-7.79-1.83-12-2.11-17.29-1.84-10.23.53-27.92.17-19.09,16.39,48.14,39,36.78,128.69,42.7,185-13.22-7-19.85-11.16-33.12-19.57q-10.36-67.5-20.55-135a55,55,0,0,0-13.54-22.63,29.25,29.25,0,0,1-10.23-20.49,124.94,124.94,0,0,0,30.24-20.53l32.64-.07c-1.2,8.48-7.18,6.89-18.17,10.33,28.28-7,37.09-13.16,50.4-13.14C1199.91,549.53,1206.22,552.55,1211.12,553.78Z"/><path class="cls-19" d="M1287,602.77c13,.05,19.53.09,32.63.16,4.23,46.72,10.71,152.31-38.76,180.47-29.67,16.89-36.9-25.89-42.34-45.85-12.66-46.46-10.76-122.74-50.55-149.68-6.09-4.12-12.61-10.94-18.92-16.4,25.48-15.61,70.11-19.43,99.71-22a40.93,40.93,0,0,1,31.22,10.2q-26.67,18.45,15.38,37.22c-27.06-.39-54.13-.79-81.19-.87,21.31,12.83,23.85,15.86,32.82,15.86C1278.86,611.93,1286.34,609.4,1287,602.77Zm-83.27-30.11c17.9.33,27.52.64,47.3,1.39-9.29-8.58-9.52-7.64-19.42-7.91S1202.41,564.21,1203.77,572.66Z"/><path class="cls-19" d="M1357.05,605.83c1.31,4.91,5,10.66,24.55,9,18.06-1.58,20.93-5.08,21.09-6.9.19-2.09-3.25-3.83-23.44-4.61-28-1.09-83.61-24.41-81.8-31.33,2.06-7.86,55.94-21.36,83.93-20.85,29.91.53,46.57,2.94,47.88,26.74-15-.44-22.86-.73-38.85-1.39.15-4.32-5.51-4.36-23.26-5.08-20.24-.81-26.78-1.21-28.07,1.63-1.4,3.09,4.51,4,29.9,5.65,19.44,1.24,65.8,3.58,66.47,28,.87,31.33-25.07,53.33-48.16,76.77-56.31,57.16-56.78-31.85-63.15-77.61Z"/><path class="cls-19" d="M1472,609.56V634c-13,.35-19.35,2.28-31.83,8.22.26-7.11-1.05-25.68-.84-33.28C1452.38,609,1458.91,609.13,1472,609.56Z"/><path d="M758.35,456.07C730.93,491.52,687.8,520,670.18,561.75,654.89,598,635,632.1,617.53,667.36c-9-7.75-17.66-15.82-26.5-23.73,4.37-30.52,17.37-54.27,5.63-83.65-8.78,22-19.74,42.83-29.1,64.57a182.21,182.21,0,0,0-30.51-16.42c-6.15-30.73-18.52-58.39-30.84-87.18,14.22-.19,28.1-2.44,42.07-4.9,5.76,9.73,1.47,20.48,3.66,31,1.74,8.31,6.88,17.4,9.8,25.35,9.13-26.13,22.56-44.47,36.69-68.46,16.86-4.78,33.63-9.81,50.38-15-3.24,20.52-24.45,37.21-25.55,57.15-.44,7.94,5.77,18.94,8.33,26.27,15-40.79,47.6-66,73.09-100.79C722.51,466.15,740.37,460.93,758.35,456.07Z"/><path d="M800.19,555.39c-2.6,49.86-29.92,95.25-46.86,141.72-12.94,2.14-26,3.91-39,5C725.6,671,740.8,641.24,754.13,611c5.7-12.94,15.57-27.81,14-42.66.69-13-6.39-20.26-19.26-20.36-8.8-.07-20,4.21-26.4,10.49,0,49.41-35.55,95-53,140.31a105.34,105.34,0,0,1-26-12q11.09-29.32,24.52-57.65,11.9-24.9,21.39-50.8c1.06-6.59-.14-13.25.45-19.83,1.4-15.67,5.55-19.36,16.89-33.5q19.15-22.77,38.33-45.5Q760,470.22,759.87,455c-18.67,7.91-36,23-56.07,26.52,7.73,4.7,12,6.71,22.09,9.31,29.77-3.41,49.47-40.29,79-45.12-4.35,12.66-19.33,26.63-27.11,35.79,17.89-15.07,43-42,68.59-38.84,12,1.45,19.41,2.7,15.15,16.86-4.91,16.32-19.9,31.82-29.93,45.06C821.77,517.49,798.66,537.64,800.19,555.39Z"/><path d="M802.34,562.87c1.06-12.22,4.76-17.68,12.93-27.13a485.64,485.64,0,0,1,57.79-56.12c14.12-11.62,22.44-18.26,36.2-5.64,10.68,9.8,16.55,19.2,13.17,34.58-2.45,11.19-9,20.76-12.23,31.64-2.77,9.47-1.61,19.49-4.59,28.7-7.71,23.85-6.42,51.91-17.05,75.57-11.07,24.64-32.19,33-57,38.81-24.11,5.64-44.27,6.12-44.2-23.63.06-23.17,8.8-45.84,13.45-68.26C802.89,581.3,801.48,572.77,802.34,562.87Zm73,4.18c2.73-12.26-7.44-18.2-18.27-19.06-11.53-.91-22.3,4.36-24.06,16.42-1.86,12.76,7.9,17.44,18.89,18.57C863.69,584.18,872.7,578.88,875.33,567.05Z"/><path d="M975.35,517.3c27.59,6.12,45,12.11,41.72,44.26-10.51.5-21,.62-31.54.69.25-9.77-8.85-10.16-20.3-10.33-14.06-.21-21.69,5.16-26.31,18.58-4.84,14.1,3.31,20.76,16.72,20.93,11,.14,17.81-.52,23.63-10.69,11.32-.06,22.58-.29,33.89-.68-9.77,19.94,8.93,37.74,3.89,57.22-3.78,14.62-20.27,14.91-33.41,16.06-20.91,1.83-41.09,3.44-55.57-14.71C914.33,621.4,901.5,590.78,908.16,569c6.07-19.83,16.28-38.35,34.92-50C953.86,512.27,963.44,514.66,975.35,517.3Z"/><path d="M1117.08,562.85c11.24,13.63,12.22,22.1,14.83,39.15,5.88,38.36,13.54,76.44,18.54,114.93-11.09-7.14-22.1-14.4-33.18-21.55-2.33-13.5-5.63-26.84-8.68-40.19-3.84,28.65-9.36,29.2-32.6,16.77-29.75-15.92-56.26-49.42-63.73-77.3-5.23-19.52,27.82-38.08,46.78-40a46.36,46.36,0,0,1,24.23,3.38c-5.71-14.28-10.27-11.35-18.86-10.52-10.61,1-20.86,4.12-31.07,7.2-2-10.47.54-15.4.16-26.06,16.55-5.1,33.42-9.14,50.17-9,5.89.05,31.67-.95,33.32,9a22.58,22.58,0,0,1-9.71,10.52Q1101.61,553.5,1117.08,562.85ZM1092.75,581c-6-1.25-13.71-1.58-23.59-.78-15.9,1.27-24.14,4.66-23.23,9.25.79,4,8.42,11.33,16.27,10.46,11.52-1.29,19.78-8.51,31.09-15A13,13,0,0,0,1092.75,581Z"/><path d="M1226.11,522.28c-12,10.55-35.9,3.48-44.71,17.31a56.92,56.92,0,0,0-17.3-1.84c-8.48.33-28.34,2.31-19.09,16.38,15.23,13.44,23.85,18.58,25.75,39,4.54,48.78,12.67,97.19,17,146-11.3-6.06-22.29-12.69-33.11-19.58-5.61-41.5-13.28-82.68-19.12-124.14-2.21-15.71-5.25-21.22-15.13-33.58-4.79-6-13.17-13-9.59-21,4.65-10.37,24.59-8.16,29.75-20l32.64-.07c-1.2,8.47-7.17,6.89-18.16,10.32,15.59-3.83,34.59-12.87,50.4-13.14C1214.72,517.86,1221.21,521.05,1226.11,522.28Z"/><path d="M1302,571.27l32.63.16c4.77,12.44.09,33.69-.23,46.91-.58,24.39-1.07,49.19-4.87,73.34s-11.7,47.58-33.65,60.22c-28.74,16.54-37.33-24-42.31-44.29-9.18-37.4-14.65-75.77-20.87-113.73-3.57-21.82-11.29-25.36-29.71-37.51-11-7.26-25.53-14.24-10-22.45,10.77-5.72,28.67-4.72,40.55-6.64,16.53-2.67,33.89-9.46,50.27-9.27,6.89.08,28.78,1.47,31.22,10.2.65,2.31-7.18,5.66-7.5,7.39-2.51,13.55,12.3,20.94,22.89,29.82q-40.61-.61-81.2-.86c9.45,5.67,21.78,15.35,32.82,15.86C1293.29,580.94,1301.33,577.89,1302,571.27Zm-83.26-30.11q23.65.45,47.3,1.39c-9.3-8.59-9.58-7.58-19.43-7.91C1238.26,534.36,1223.91,532.83,1218.76,541.16Z"/><path d="M1372,574.33c2.91,9.77,16.57,10,24.55,8.95,17.11-2.31,20.92-5.07,21.09-6.89.19-2.09-3.1-3.67-23.44-4.62-18.63-.87-86.9-16.55-81.81-31.33,4.43-12.83,61.92-21.25,83.93-20.85,19.72.37,49.86-.31,47.88,26.74q-19.42-.57-38.85-1.38c.15-4.32-5.61-4.27-23.26-5.08-8.33-.38-27.57-.18-28.06,1.63-.56,2,23.51,5.11,29.9,5.65,16.56,1.38,68.41,2,66.47,28-2.62,35-23.41,52.17-48.16,76.77-8.24,8.19-23.77,31-37.67,25.35-8.63-3.5-11.52-22.34-13.53-30.27-6-23.85-8.4-48.41-11.95-72.69Z"/><path d="M1487,578.05v24.46c-12.18,1.36-20.46,3.63-31.83,8.23-.06-11.11-.75-22.18-.84-33.29C1465.22,577.56,1476.09,577.75,1487,578.05Z"/></g></g></svg>