<?xml version="1.0" encoding="utf-8"?>
<!-- Generator: Adobe Illustrator 22.1.0, SVG Export Plug-In . SVG Version: 6.00 Build 0)  -->
<svg version="1.1" id="Layer_1" xmlns="http://www.w3.org/2000/svg" xmlns:xlink="http://www.w3.org/1999/xlink" x="0px" y="0px"
	 viewBox="0 0 500 500" style="enable-background:new 0 0 500 500;" xml:space="preserve">
<style type="text/css">
	.st0{fill:#FFFFFF;}
	.st1{fill:#010101;}
	.st2{enable-background:new    ;}
	.st3{fill:#231F20;}
</style>
<title>max_1</title>
<g id="Layer_2_1_">
	<g id="Layer_1-2">
		<g>
			<rect class="st0" width="500" height="500"/>
		</g>
		<g>
			<path class="st1" d="M293.7,103c-2.4,24.3-9.7,48.6-31.6,60.7c-29.1,17-51,46.1-53.4,77.7c-12.1-4.9-19.4-14.6-31.6-17
				c2.4-38.9,29.1-68,55.9-94.7c-21.9,17-43.7,34-58.3,58.3c-7.3-4.9-17-2.4-24.3-2.4c2.4-24.3,12.1-46.1,17-68
				c-14.6,34-34,70.4-31.6,109.3c-12.1,4.9-19.4,14.6-26.7,26.7c-4.9-38.9,0-75.3,4.8-114.1c0-17,2.4-34-4.8-48.6
				c24.3-14.6,51-19.4,77.7-21.9c14.6,17,14.6,41.3,7.3,60.7c19.4-14.6,38.9-29.1,48.6-53.4C259.7,83.6,276.7,90.9,293.7,103z"/>
		</g>
		<g>
			<path class="st1" d="M383.6,217.1c-9.7,29.1-36.4,46.1-65.6,53.4c-34,7.3-63.1-4.9-92.3-19.4c2.4-14.6,2.4-29.1,12.1-41.3
				c12.1-14.6,29.1-24.3,43.7-36.4c14.6-17,26.7-36.4,26.7-60.7c9.7,4.9,19.4,9.7,29.1,9.7c21.9,0,48.6,7.3,53.4,31.6
				C393.3,175.8,393.3,195.3,383.6,217.1L383.6,217.1z M339.9,212.3c0-7.3,7.3-17,4.9-24.3c-4.9-7.3-12.1-12.1-21.9-12.1
				c-9.7,24.3-31.6,38.9-41.3,63.1C305.9,248.7,332.6,236.6,339.9,212.3L339.9,212.3z"/>
		</g>
		<g class="st2">
			<path class="st3" d="M130.5,354.8h-13v-16.6l-9.5,16.6h-8.5L90,338.2v16.6h-13v-34.9H93l10.8,19.9l10.8-19.9h15.9V354.8z"/>
		</g>
		<g class="st2">
			<path class="st3" d="M163.6,348.5h-14.8l-2.4,6.3h-14.2l14.4-34.9h19.2l14.4,34.9H166L163.6,348.5z M160.2,339.5l-4-10.7l-4,10.7
				H160.2z"/>
			<path class="st3" d="M198.2,337.3l-16.5-17.4h16.9l8.8,10l8.8-10h16.9l-16.5,17.4l16.5,17.4h-16.9l-8.8-10l-8.8,10h-16.9
				L198.2,337.3z"/>
			<path class="st3" d="M307.5,319.9L296,354.8h-19.2l-5.7-20.1l-5.7,20.1h-19.2l-11.5-34.9h13.9l7.2,24.6l7.6-24.6h15.4l7.6,24.6
				l7.2-24.6H307.5z"/>
			<path class="st3" d="M322.4,329.9v3.2h23.9v8.5h-23.9v3.2h23.9v10h-36.9v-34.9h36.9v10H322.4z"/>
			<path class="st3" d="M384.2,343.8v11h-35.9v-34.9h13v23.9H384.2z"/>
			<path class="st3" d="M422.1,343.8v11h-35.9v-34.9h13v23.9H422.1z"/>
		</g>
		<g class="st2">
			<path class="st3" d="M174.1,397.1c0,11.9-7.9,17.4-16.3,17.4h-25.9v-34.9h25.9C166.2,379.7,174.1,385.3,174.1,397.1z
				 M161.2,397.1c0-6.5-4.6-6.5-7.4-6.5h-9v13h9C156.6,403.6,161.2,403.6,161.2,397.1z"/>
			<path class="st3" d="M189.1,389.6v3.2H213v8.5h-23.9v3.2H213v10h-36.9v-34.9H213v10H189.1z"/>
		</g>
		<g class="st2">
			<path class="st3" d="M260.2,379.7v34.9h-16.9l-15-20.6v20.6h-13v-34.9h16.9l15,20.6v-20.6H260.2z"/>
			<path class="st3" d="M292.7,408.3h-14.8l-2.4,6.3h-14.2l14.4-34.9h19.2l14.4,34.9h-14.2L292.7,408.3z M289.3,399.3l-4-10.7
				l-4,10.7H289.3z"/>
		</g>
		<g class="st2">
			<path class="st3" d="M346.2,404.5l6.2,10H337l-4.8-8.2h-7.6v8.2h-13v-34.9H339c7.9,0,13.4,5.6,13.4,13.4
				C352.4,398.1,350,402.3,346.2,404.5z M324.6,395.4h12c1.3,0,2.9,0,2.9-2.4s-1.6-2.4-2.9-2.4h-12V395.4z"/>
			<path class="st3" d="M367.3,414.6h-13v-34.9h13V414.6z"/>
		</g>
	</g>
</g>
</svg>
