<svg xmlns="http://www.w3.org/2000/svg" viewBox="0 0 500 500"><defs><style>.cls-1{fill:#fff;}.cls-2{fill:#010101;}.cls-3{font-size:49.82px;fill:#231f20;font-family:MonumentExtended-Ultrabold, Monument Extended;font-weight:700;}.cls-3,.cls-5{letter-spacing:0em;}.cls-4{letter-spacing:0.01em;}.cls-6{letter-spacing:0.01em;}</style></defs><title>max_1</title><g id="Layer_2" data-name="Layer 2"><g id="Layer_1-2" data-name="Layer 1"><rect class="cls-1" width="500" height="500"/><path class="cls-2" d="M293.72,103c-2.43,24.29-9.71,48.57-31.57,60.71-29.14,17-51,46.14-53.43,77.71-12.14-4.85-19.42-14.57-31.57-17,2.43-38.85,29.15-68,55.86-94.71-21.86,17-43.71,34-58.28,58.29-7.29-4.86-17-2.43-24.29-2.43,2.43-24.29,12.14-46.14,17-68-14.57,34-34,70.43-31.57,109.28-12.14,4.86-19.43,14.57-26.71,26.71-4.86-38.85,0-75.28,4.85-114.13,0-17,2.43-34-4.85-48.57,24.28-14.57,51-19.43,77.71-21.86,14.57,17,14.57,41.29,7.28,60.71,19.43-14.57,38.86-29.14,48.57-53.42,17,7.28,34,14.57,51,26.71Z"/><path class="cls-2" d="M383.57,217.13c-9.71,29.14-36.43,46.14-65.57,53.42-34,7.29-63.14-4.85-92.28-19.42,2.43-14.57,2.43-29.15,12.15-41.29C250,195.27,267,185.56,281.58,173.42c14.57-17,26.71-36.43,26.71-60.72,9.71,4.86,19.43,9.72,29.14,9.72,21.86,0,48.57,7.28,53.43,31.57,2.43,21.85,2.43,41.28-7.29,63.14Zm-43.71-4.86c0-7.28,7.28-17,4.86-24.28-4.86-7.29-12.15-12.15-21.86-12.15-9.71,24.29-31.57,38.86-41.28,63.14,24.28,9.72,51-2.42,58.28-26.71Z"/><text class="cls-3" transform="translate(76.06 354.78)">M<tspan class="cls-4" x="55.55" y="0">AXWELL</tspan><tspan class="cls-4"><tspan x="54.83" y="59.78">DE</tspan><tspan class="cls-5" x="138.22" y="59.78">NA</tspan><tspan class="cls-6" x="234.57" y="59.78">RI</tspan></tspan></text></g></g></svg>