<svg xmlns="http://www.w3.org/2000/svg" viewBox="0 0 616 616"><defs><style>.cls-1{fill:#fff;}.cls-12,.cls-13,.cls-14,.cls-2,.cls-8{fill:#1c2a2c;}.cls-12,.cls-3{opacity:0.5;}.cls-4{opacity:0.3;}.cls-5{opacity:0.1;}.cls-6{opacity:0.03;}.cls-7{opacity:0.01;}.cls-12,.cls-13,.cls-14,.cls-8{font-size:60.72px;font-family:Montserrat-ExtraBold, Montserrat;font-weight:700;}.cls-9{letter-spacing:-0.01em;}.cls-10{letter-spacing:0em;}.cls-11{letter-spacing:-0.01em;}.cls-13{opacity:0.2;}.cls-14{opacity:0.05;}</style></defs><title>rip_2</title><g id="Layer_2" data-name="Layer 2"><g id="Layer_1-2" data-name="Layer 1"><rect class="cls-1" width="616" height="616"/><path class="cls-2" d="M364.76,385.35c2-19.36,2-19.36-15.74-23-1-.21-2-.46-3-.72-18.9-5-20.64-4-30.09,13.29-1.55,2.84-5.72,6.07-8.51,5.92-3.29-.18-6.69-3.51-9.46-6.11-1.52-1.43-1.73-4.19-2.7-6.28-4.18-9-9.4-11.54-19.11-9.45-6.49,1.4-13,2.78-19.5,4.08-11.17,2.24-13.42,5.86-11,17.31.5,2.42,1.22,5.75,0,7.35-2.07,2.85-5.35,6.17-8.44,6.53s-7.28-2-9.41-4.55c-9.3-11-15-12.07-26.88-4.17-5.75,3.81-11.45,7.73-17.46,11.08-5.22,2.9-10.46,2.74-14.23-2.74s-2.06-10.22,2.75-14.05c7.6-6,15.11-12.21,23.05-17.77,10.13-7.08,12-10.69,8.8-22.48-1.36-5.09-.13-9.49,4.67-10.46,3.84-.78,10.6-.09,12.06,2.35,7.91,13.2,18.66,12.94,31.36,9.36a155.59,155.59,0,0,1,24.86-4.43c8.38-.95,14.12-4.46,18-12.21,2-3.88,6.74-9.5,9.45-9.09,3.84.58,8.06,5.44,10.13,9.49,3.8,7.46,9.13,11,17.29,11.93,11.93,1.39,23.79,3.39,35.62,5.46,8.6,1.51,15.65.29,20.32-8.12,3.05-5.5,8.12-7.05,13.81-4.42,5.33,2.47,7.23,6.73,5.45,12.68-2.43,8.09.7,14,8,17.82,7.49,3.9,15.49,7,22.41,11.71,3.71,2.53,7.65,7.61,7.9,11.75.61,10-8.35,14.7-17.43,10.05-7.71-3.94-15.19-8.43-23.15-11.79-8.77-3.69-12-2.19-17.14,6a36.07,36.07,0,0,1-2.11,3.2c-3.33,4.14-7.75,7-12.63,4C369.42,392.73,367.38,388.57,364.76,385.35Z"/><path class="cls-2" d="M554.56,219.94a45.89,45.89,0,0,1-5.58-1.15q-82.38-25.6-164.72-51.35a43,43,0,0,1-9.72-4.47c-6.21-3.85-7.35-9.58-4.7-16,2.55-6.18,7.64-8.3,13.79-6.62q19.59,5.35,39,11.47,65.52,20.55,130.95,41.34c2.43.77,4.86,1.6,7.22,2.57,6.55,2.68,10.74,7,9.52,14.68C569.27,216.79,564.42,219.87,554.56,219.94Z"/><path class="cls-2" d="M60.65,218.15c-7.89-.08-13.09-1.89-14.73-9.06-1.54-6.76,1-12,9-14.64,33.33-10.88,66.7-21.68,100.23-31.89,21.3-6.48,42.85-12.19,64.44-17.64,12.18-3.07,18.93.09,20.8,8.1,1.93,8.22-1.8,13.14-13.8,16.71Q147.85,193.18,69,216.3C65.81,217.23,62.52,217.75,60.65,218.15Z"/><path class="cls-2" d="M507.39,127.29a24.71,24.71,0,0,1-4.66-.75Q450.59,110.78,398.5,94.81a34.31,34.31,0,0,1-10.25-5c-5.11-3.79-6.28-9.12-3.9-15.08s7.35-8,13.1-6.51c15.08,4,30.06,8.33,45,12.78,22.07,6.57,44.08,13.35,66.11,20,1.47.45,2.94.89,4.38,1.41,8.68,3.16,12.64,8.25,11.63,14.93C523.55,124.27,518.68,127.33,507.39,127.29Z"/><path class="cls-2" d="M102.5,128.91c-8.61-.25-14.42-1.84-16-9.35-1.61-7.72,2.67-12.28,9.29-14.67,13.46-4.85,27-9.6,40.6-13.87,23.42-7.33,46.88-14.55,70.52-21.1,4.65-1.29,11.29-1,15.11,1.46,9.46,6.17,6.67,18.15-5,22.09-21.8,7.34-43.8,14.09-65.74,21Q130.4,121,109.48,127.33C106.58,128.21,103.55,128.68,102.5,128.91Z"/><g class="cls-3"><path class="cls-2" d="M364.76,393.62c2-19.36,2-19.36-15.74-23-1-.2-2-.46-3-.72-18.9-5-20.64-4-30.09,13.3-1.55,2.83-5.72,6.06-8.51,5.91-3.29-.17-6.69-3.51-9.46-6.1-1.52-1.43-1.73-4.2-2.7-6.28-4.18-9-9.4-11.55-19.11-9.45-6.49,1.39-13,2.77-19.5,4.08-11.17,2.24-13.42,5.86-11,17.31.5,2.42,1.22,5.74,0,7.35-2.07,2.84-5.35,6.17-8.44,6.53s-7.28-2-9.41-4.56c-9.3-11-15-12.07-26.88-4.17-5.75,3.81-11.45,7.74-17.46,11.09-5.22,2.9-10.46,2.73-14.23-2.74s-2.06-10.23,2.75-14.05c7.6-6,15.11-12.22,23.05-17.77,10.13-7.09,12-10.7,8.8-22.49-1.36-5.09-.13-9.48,4.67-10.46,3.84-.78,10.6-.09,12.06,2.35,7.91,13.2,18.66,12.95,31.36,9.36a156.71,156.71,0,0,1,24.86-4.43c8.38-.94,14.12-4.46,18-12.21,2-3.88,6.74-9.5,9.45-9.09,3.84.59,8.06,5.44,10.13,9.49,3.8,7.46,9.13,11,17.29,11.93,11.93,1.39,23.79,3.39,35.62,5.46,8.6,1.51,15.65.3,20.32-8.11,3.05-5.5,8.12-7.06,13.81-4.43,5.33,2.47,7.23,6.74,5.45,12.68-2.43,8.1.7,14,8,17.83,7.49,3.89,15.49,7,22.41,11.7,3.71,2.53,7.65,7.61,7.9,11.76.61,10-8.35,14.69-17.43,10.05-7.71-3.94-15.19-8.44-23.15-11.79-8.77-3.7-12-2.19-17.14,5.95a34.82,34.82,0,0,1-2.11,3.21c-3.33,4.13-7.75,7-12.63,4C369.42,401,367.38,396.84,364.76,393.62Z"/><path class="cls-2" d="M554.56,228.21a45.46,45.46,0,0,1-5.58-1.14q-82.38-25.6-164.72-51.35a43,43,0,0,1-9.72-4.48c-6.21-3.85-7.35-9.58-4.7-16,2.55-6.18,7.64-8.3,13.79-6.62q19.59,5.37,39,11.47,65.52,20.55,130.95,41.34c2.43.77,4.86,1.61,7.22,2.57,6.55,2.68,10.74,7,9.52,14.69C569.27,225.06,564.42,228.15,554.56,228.21Z"/><path class="cls-2" d="M60.65,226.43c-7.89-.09-13.09-1.89-14.73-9.07-1.54-6.76,1-12,9-14.63,33.33-10.89,66.7-21.68,100.23-31.89,21.3-6.49,42.85-12.2,64.44-17.64,12.18-3.08,18.93.09,20.8,8.1,1.93,8.21-1.8,13.13-13.8,16.7Q147.85,201.45,69,224.57C65.81,225.5,62.52,226,60.65,226.43Z"/><path class="cls-2" d="M507.39,135.57a26.54,26.54,0,0,1-4.66-.75Q450.59,119,398.5,103.08a34.53,34.53,0,0,1-10.25-5c-5.11-3.79-6.28-9.13-3.9-15.08s7.35-8,13.1-6.52c15.08,4,30.06,8.33,45,12.78,22.07,6.57,44.08,13.35,66.11,20,1.47.45,2.94.89,4.38,1.42,8.68,3.15,12.64,8.25,11.63,14.93C523.55,132.54,518.68,135.6,507.39,135.57Z"/><path class="cls-2" d="M102.5,137.19c-8.61-.26-14.42-1.85-16-9.36-1.61-7.72,2.67-12.28,9.29-14.66,13.46-4.85,27-9.61,40.6-13.88,23.42-7.33,46.88-14.55,70.52-21.1,4.65-1.29,11.29-1,15.11,1.46,9.46,6.17,6.67,18.16-5,22.1-21.8,7.33-43.8,14.08-65.74,21q-20.85,6.57-41.77,12.86C106.58,136.48,103.55,137,102.5,137.19Z"/></g><g class="cls-4"><path class="cls-2" d="M364.76,401.89c2-19.35,2-19.35-15.74-23-1-.21-2-.47-3-.73-18.9-5-20.64-4-30.09,13.3-1.55,2.83-5.72,6.07-8.51,5.92-3.29-.18-6.69-3.51-9.46-6.11-1.52-1.43-1.73-4.19-2.7-6.28-4.18-9-9.4-11.54-19.11-9.45q-9.74,2.1-19.5,4.08c-11.17,2.24-13.42,5.86-11,17.31.5,2.42,1.22,5.75,0,7.35-2.07,2.85-5.35,6.17-8.44,6.53s-7.28-2-9.41-4.56c-9.3-11-15-12.06-26.88-4.16-5.75,3.81-11.45,7.73-17.46,11.08-5.22,2.9-10.46,2.73-14.23-2.74s-2.06-10.23,2.75-14.05c7.6-6,15.11-12.22,23.05-17.77,10.13-7.09,12-10.69,8.8-22.49-1.36-5.09-.13-9.48,4.67-10.45,3.84-.79,10.6-.09,12.06,2.35,7.91,13.19,18.66,12.94,31.36,9.36a156.73,156.73,0,0,1,24.86-4.44c8.38-.94,14.12-4.45,18-12.2,2-3.89,6.74-9.5,9.45-9.09,3.84.58,8.06,5.44,10.13,9.48,3.8,7.46,9.13,11,17.29,11.94,11.93,1.39,23.79,3.38,35.62,5.46,8.6,1.51,15.65.29,20.32-8.12,3.05-5.5,8.12-7.05,13.81-4.42,5.33,2.46,7.23,6.73,5.45,12.68-2.43,8.09.7,14,8,17.82,7.49,3.9,15.49,7,22.41,11.71,3.71,2.53,7.65,7.6,7.9,11.75.61,10-8.35,14.69-17.43,10.05-7.71-3.94-15.19-8.43-23.15-11.79-8.77-3.7-12-2.19-17.14,6a34.82,34.82,0,0,1-2.11,3.21c-3.33,4.14-7.75,7-12.63,4C369.42,409.28,367.38,405.11,364.76,401.89Z"/><path class="cls-2" d="M554.56,236.49a45.89,45.89,0,0,1-5.58-1.15Q466.6,209.74,384.26,184a43,43,0,0,1-9.72-4.48c-6.21-3.84-7.35-9.58-4.7-16,2.55-6.18,7.64-8.3,13.79-6.61q19.59,5.35,39,11.47,65.52,20.55,130.95,41.34c2.43.77,4.86,1.6,7.22,2.57,6.55,2.67,10.74,7,9.52,14.68C569.27,233.33,564.42,236.42,554.56,236.49Z"/><path class="cls-2" d="M60.65,234.7c-7.89-.08-13.09-1.89-14.73-9.06-1.54-6.77,1-12,9-14.64,33.33-10.89,66.7-21.68,100.23-31.89,21.3-6.48,42.85-12.19,64.44-17.64,12.18-3.07,18.93.09,20.8,8.1,1.93,8.22-1.8,13.14-13.8,16.71Q147.85,209.73,69,232.84C65.81,233.78,62.52,234.29,60.65,234.7Z"/><path class="cls-2" d="M507.39,143.84a24.71,24.71,0,0,1-4.66-.75q-52.14-15.76-104.23-31.73a34.55,34.55,0,0,1-10.25-5c-5.11-3.79-6.28-9.12-3.9-15.08s7.35-8,13.1-6.51c15.08,4,30.06,8.33,45,12.78,22.07,6.56,44.08,13.34,66.11,20,1.47.44,2.94.88,4.38,1.41,8.68,3.16,12.64,8.25,11.63,14.93C523.55,140.81,518.68,143.88,507.39,143.84Z"/><path class="cls-2" d="M102.5,145.46c-8.61-.25-14.42-1.84-16-9.35-1.61-7.73,2.67-12.28,9.29-14.67,13.46-4.85,27-9.61,40.6-13.88,23.42-7.32,46.88-14.55,70.52-21.1,4.65-1.28,11.29-1,15.11,1.47,9.46,6.17,6.67,18.15-5,22.09-21.8,7.33-43.8,14.09-65.74,21q-20.85,6.55-41.77,12.85C106.58,144.75,103.55,145.22,102.5,145.46Z"/></g><g class="cls-5"><path class="cls-2" d="M364.76,410.17c2-19.36,2-19.36-15.74-23-1-.2-2-.46-3-.72-18.9-5-20.64-4-30.09,13.29-1.55,2.84-5.72,6.07-8.51,5.92-3.29-.18-6.69-3.51-9.46-6.11-1.52-1.43-1.73-4.19-2.7-6.28-4.18-9-9.4-11.54-19.11-9.45-6.49,1.4-13,2.78-19.5,4.08-11.17,2.24-13.42,5.86-11,17.31.5,2.42,1.22,5.75,0,7.36-2.07,2.84-5.35,6.16-8.44,6.52s-7.28-2-9.41-4.55c-9.3-11-15-12.07-26.88-4.17-5.75,3.81-11.45,7.73-17.46,11.08-5.22,2.9-10.46,2.74-14.23-2.74s-2.06-10.22,2.75-14.05c7.6-6,15.11-12.21,23.05-17.77,10.13-7.08,12-10.69,8.8-22.48-1.36-5.09-.13-9.48,4.67-10.46,3.84-.78,10.6-.09,12.06,2.35,7.91,13.2,18.66,12.94,31.36,9.36a155.59,155.59,0,0,1,24.86-4.43c8.38-1,14.12-4.46,18-12.21,2-3.88,6.74-9.5,9.45-9.09,3.84.58,8.06,5.44,10.13,9.49,3.8,7.46,9.13,11,17.29,11.93,11.93,1.39,23.79,3.39,35.62,5.46,8.6,1.51,15.65.29,20.32-8.12,3.05-5.5,8.12-7.05,13.81-4.42,5.33,2.47,7.23,6.73,5.45,12.68-2.43,8.1.7,14,8,17.82,7.49,3.9,15.49,7,22.41,11.71,3.71,2.53,7.65,7.61,7.9,11.75.61,10-8.35,14.7-17.43,10.06-7.71-3.95-15.19-8.44-23.15-11.79-8.77-3.7-12-2.19-17.14,5.95a34.67,34.67,0,0,1-2.11,3.2c-3.33,4.14-7.75,7-12.63,4C369.42,417.55,367.38,413.39,364.76,410.17Z"/><path class="cls-2" d="M554.56,244.76a45.89,45.89,0,0,1-5.58-1.15Q466.6,218,384.26,192.27a43.49,43.49,0,0,1-9.72-4.48c-6.21-3.85-7.35-9.58-4.7-16,2.55-6.18,7.64-8.3,13.79-6.62q19.59,5.35,39,11.47,65.52,20.55,130.95,41.34c2.43.77,4.86,1.6,7.22,2.57,6.55,2.68,10.74,7,9.52,14.68C569.27,241.61,564.42,244.69,554.56,244.76Z"/><path class="cls-2" d="M60.65,243c-7.89-.08-13.09-1.89-14.73-9.06-1.54-6.76,1-12,9-14.64,33.33-10.88,66.7-21.68,100.23-31.89,21.3-6.48,42.85-12.19,64.44-17.64,12.18-3.07,18.93.09,20.8,8.1,1.93,8.22-1.8,13.14-13.8,16.71Q147.85,218,69,241.12C65.81,242.05,62.52,242.57,60.65,243Z"/><path class="cls-2" d="M507.39,152.12a26.54,26.54,0,0,1-4.66-.75q-52.14-15.78-104.23-31.74a34.31,34.31,0,0,1-10.25-5c-5.11-3.78-6.28-9.12-3.9-15.08s7.35-8,13.1-6.51c15.08,4,30.06,8.33,45,12.78,22.07,6.57,44.08,13.35,66.11,20,1.47.45,2.94.89,4.38,1.41,8.68,3.16,12.64,8.25,11.63,14.93C523.55,149.09,518.68,152.15,507.39,152.12Z"/><path class="cls-2" d="M102.5,153.73c-8.61-.25-14.42-1.84-16-9.35-1.61-7.72,2.67-12.28,9.29-14.67,13.46-4.85,27-9.6,40.6-13.87,23.42-7.33,46.88-14.55,70.52-21.1,4.65-1.29,11.29-1,15.11,1.46,9.46,6.17,6.67,18.15-5,22.1-21.8,7.33-43.8,14.08-65.74,21q-20.85,6.57-41.77,12.86C106.58,153,103.55,153.5,102.5,153.73Z"/></g><g class="cls-6"><path class="cls-2" d="M364.76,418.44c2-19.36,2-19.35-15.74-23-1-.2-2-.46-3-.72-18.9-5-20.64-4-30.09,13.3-1.55,2.83-5.72,6.07-8.51,5.92-3.29-.18-6.69-3.52-9.46-6.11-1.52-1.43-1.73-4.2-2.7-6.28-4.18-9-9.4-11.55-19.11-9.45-6.49,1.39-13,2.77-19.5,4.08-11.17,2.24-13.42,5.86-11,17.31.5,2.42,1.22,5.75,0,7.35-2.07,2.84-5.35,6.17-8.44,6.53s-7.28-2-9.41-4.56c-9.3-11-15-12.06-26.88-4.17-5.75,3.81-11.45,7.74-17.46,11.09-5.22,2.9-10.46,2.73-14.23-2.74s-2.06-10.23,2.75-14.05c7.6-6,15.11-12.22,23.05-17.77,10.13-7.09,12-10.69,8.8-22.49-1.36-5.09-.13-9.48,4.67-10.46,3.84-.78,10.6-.09,12.06,2.35,7.91,13.2,18.66,12.95,31.36,9.36a156.71,156.71,0,0,1,24.86-4.43c8.38-.94,14.12-4.45,18-12.21,2-3.88,6.74-9.5,9.45-9.09,3.84.59,8.06,5.44,10.13,9.49,3.8,7.46,9.13,11,17.29,11.93,11.93,1.39,23.79,3.39,35.62,5.46,8.6,1.51,15.65.3,20.32-8.11,3.05-5.5,8.12-7.06,13.81-4.42,5.33,2.46,7.23,6.73,5.45,12.67-2.43,8.1.7,14,8,17.83,7.49,3.89,15.49,7,22.41,11.7,3.71,2.53,7.65,7.61,7.9,11.76.61,10-8.35,14.69-17.43,10.05-7.71-3.94-15.19-8.44-23.15-11.79-8.77-3.7-12-2.19-17.14,5.95a34.82,34.82,0,0,1-2.11,3.21c-3.33,4.13-7.75,7-12.63,4C369.42,425.83,367.38,421.66,364.76,418.44Z"/><path class="cls-2" d="M554.56,253a45.46,45.46,0,0,1-5.58-1.14q-82.38-25.6-164.72-51.35a43,43,0,0,1-9.72-4.48c-6.21-3.84-7.35-9.58-4.7-16,2.55-6.18,7.64-8.3,13.79-6.62q19.59,5.37,39,11.47,65.52,20.57,130.95,41.34c2.43.77,4.86,1.61,7.22,2.57,6.55,2.68,10.74,7,9.52,14.69C569.27,249.88,564.42,253,554.56,253Z"/><path class="cls-2" d="M60.65,251.25c-7.89-.09-13.09-1.89-14.73-9.07-1.54-6.76,1-12,9-14.63,33.33-10.89,66.7-21.68,100.23-31.89,21.3-6.49,42.85-12.2,64.44-17.64,12.18-3.08,18.93.09,20.8,8.1,1.93,8.21-1.8,13.13-13.8,16.7Q147.85,226.27,69,249.39C65.81,250.32,62.52,250.84,60.65,251.25Z"/><path class="cls-2" d="M507.39,160.39a26.54,26.54,0,0,1-4.66-.75Q450.59,143.86,398.5,127.9a34.53,34.53,0,0,1-10.25-5c-5.11-3.79-6.28-9.13-3.9-15.08s7.35-8,13.1-6.52c15.08,4,30.06,8.33,45,12.78,22.07,6.57,44.08,13.35,66.11,20.05,1.47.44,2.94.88,4.38,1.41,8.68,3.16,12.64,8.25,11.63,14.93C523.55,157.36,518.68,160.43,507.39,160.39Z"/><path class="cls-2" d="M102.5,162c-8.61-.26-14.42-1.85-16-9.36-1.61-7.72,2.67-12.27,9.29-14.66,13.46-4.85,27-9.61,40.6-13.88,23.42-7.33,46.88-14.55,70.52-21.1,4.65-1.29,11.29-1,15.11,1.46,9.46,6.17,6.67,18.16-5,22.1-21.8,7.33-43.8,14.09-65.74,21q-20.85,6.57-41.77,12.86C106.58,161.3,103.55,161.77,102.5,162Z"/></g><g class="cls-7"><path class="cls-2" d="M364.76,426.71c2-19.35,2-19.35-15.74-23-1-.21-2-.47-3-.72-18.9-5-20.64-4-30.09,13.29-1.55,2.84-5.72,6.07-8.51,5.92-3.29-.18-6.69-3.51-9.46-6.11-1.52-1.43-1.73-4.19-2.7-6.28-4.18-9-9.4-11.54-19.11-9.45-6.49,1.4-13,2.78-19.5,4.08-11.17,2.24-13.42,5.86-11,17.31.5,2.42,1.22,5.75,0,7.35-2.07,2.85-5.35,6.17-8.44,6.53s-7.28-2-9.41-4.56c-9.3-11-15-12.06-26.88-4.16-5.75,3.81-11.45,7.73-17.46,11.08-5.22,2.9-10.46,2.73-14.23-2.74S167.19,425,172,421.2c7.6-6,15.11-12.21,23.05-17.77,10.13-7.09,12-10.69,8.8-22.48-1.36-5.1-.13-9.49,4.67-10.46,3.84-.79,10.6-.09,12.06,2.35,7.91,13.19,18.66,12.94,31.36,9.36a155.59,155.59,0,0,1,24.86-4.43c8.38-.95,14.12-4.46,18-12.21,2-3.89,6.74-9.5,9.45-9.09,3.84.58,8.06,5.44,10.13,9.49,3.8,7.45,9.13,11,17.29,11.93,11.93,1.39,23.79,3.38,35.62,5.46,8.6,1.51,15.65.29,20.32-8.12,3.05-5.5,8.12-7.05,13.81-4.42,5.33,2.46,7.23,6.73,5.45,12.68-2.43,8.09.7,14,8,17.82,7.49,3.9,15.49,7,22.41,11.71,3.71,2.53,7.65,7.61,7.9,11.75.61,10-8.35,14.69-17.43,10.05-7.71-3.94-15.19-8.43-23.15-11.79-8.77-3.69-12-2.19-17.14,6a34.82,34.82,0,0,1-2.11,3.21c-3.33,4.14-7.75,7-12.63,4C369.42,434.1,367.38,429.94,364.76,426.71Z"/><path class="cls-2" d="M554.56,261.31a45.89,45.89,0,0,1-5.58-1.15q-82.38-25.61-164.72-51.35a43,43,0,0,1-9.72-4.48c-6.21-3.84-7.35-9.57-4.7-16,2.55-6.18,7.64-8.3,13.79-6.61q19.59,5.35,39,11.47,65.52,20.55,130.95,41.34c2.43.77,4.86,1.6,7.22,2.57,6.55,2.67,10.74,7,9.52,14.68C569.27,258.15,564.42,261.24,554.56,261.31Z"/><path class="cls-2" d="M60.65,259.52c-7.89-.08-13.09-1.89-14.73-9.06-1.54-6.76,1-12,9-14.64,33.33-10.88,66.7-21.68,100.23-31.89,21.3-6.48,42.85-12.19,64.44-17.64,12.18-3.07,18.93.09,20.8,8.1,1.93,8.22-1.8,13.14-13.8,16.71Q147.85,234.55,69,257.66C65.81,258.6,62.52,259.11,60.65,259.52Z"/><path class="cls-2" d="M507.39,168.66a24.71,24.71,0,0,1-4.66-.75q-52.14-15.76-104.23-31.73a34.55,34.55,0,0,1-10.25-5c-5.11-3.79-6.28-9.12-3.9-15.08s7.35-8,13.1-6.51c15.08,4,30.06,8.33,45,12.78,22.07,6.56,44.08,13.34,66.11,20,1.47.45,2.94.88,4.38,1.41,8.68,3.16,12.64,8.25,11.63,14.93C523.55,165.63,518.68,168.7,507.39,168.66Z"/><path class="cls-2" d="M102.5,170.28c-8.61-.25-14.42-1.84-16-9.35-1.61-7.72,2.67-12.28,9.29-14.67,13.46-4.85,27-9.6,40.6-13.87,23.42-7.33,46.88-14.55,70.52-21.1,4.65-1.29,11.29-1,15.11,1.46,9.46,6.17,6.67,18.15-5,22.09-21.8,7.34-43.8,14.09-65.74,21q-20.85,6.56-41.77,12.85C106.58,169.57,103.55,170.05,102.5,170.28Z"/></g><text class="cls-8" transform="translate(71.79 532.13)">RE<tspan class="cls-9" x="85.74" y="0">S</tspan><tspan class="cls-10" x="124.42" y="0">T IN </tspan><tspan class="cls-9" x="267.84" y="0">P</tspan><tspan x="311.99" y="0">E</tspan><tspan class="cls-11" x="352.79" y="0">A</tspan><tspan x="399.91" y="0">CH</tspan></text><text class="cls-12" transform="translate(71.79 536.13)">RE<tspan class="cls-9" x="85.74" y="0">S</tspan><tspan class="cls-10" x="124.42" y="0">T IN </tspan><tspan class="cls-9" x="267.84" y="0">P</tspan><tspan x="311.99" y="0">E</tspan><tspan class="cls-11" x="352.79" y="0">A</tspan><tspan x="399.91" y="0">CH</tspan></text><text class="cls-13" transform="translate(71.79 540.13)">RE<tspan class="cls-9" x="85.74" y="0">S</tspan><tspan class="cls-10" x="124.42" y="0">T IN </tspan><tspan class="cls-9" x="267.84" y="0">P</tspan><tspan x="311.99" y="0">E</tspan><tspan class="cls-11" x="352.79" y="0">A</tspan><tspan x="399.91" y="0">CH</tspan></text><text class="cls-14" transform="translate(71.79 544.13)">RE<tspan class="cls-9" x="85.74" y="0">S</tspan><tspan class="cls-10" x="124.42" y="0">T IN </tspan><tspan class="cls-9" x="267.84" y="0">P</tspan><tspan x="311.99" y="0">E</tspan><tspan class="cls-11" x="352.79" y="0">A</tspan><tspan x="399.91" y="0">CH</tspan></text></g></g></svg>