<svg xmlns="http://www.w3.org/2000/svg" viewBox="0 0 1247.03 1177.38"><defs><style>.cls-1{fill:#fff;}.cls-2{fill:#ea5975;}.cls-3{fill:#435aaf;}</style></defs><title>A</title><g id="Layer_2" data-name="Layer 2"><g id="Layer_1-2" data-name="Layer 1"><path class="cls-1" d="M1247.28.25V1177.63H.25V.25ZM1058.91,790.67a473.72,473.72,0,0,0,44.5-201.26c0-239.94-176.89-438.53-407.4-472.49-10.22-1.57-20.44-2.67-30.82-3.46-5.5-.63-11-.94-16.51-1.1-7.55-.47-15.41-.63-23.11-.63a38.32,38.32,0,0,0-4.25.16c-7.55,0-14.94.16-22.17.63-9.91.47-19.65,1.26-29.25,2.52-237.58,27.52-422,229.41-422,474.38a471.68,471.68,0,0,0,44.65,201.42,403.1,403.1,0,0,0,25.63,48.11c2.2,3.62,4.4,7.08,6.76,10.53a424.88,424.88,0,0,0,34.91,47.17c7.7,9.28,15.72,18.24,24.37,26.89a423.66,423.66,0,0,0,34.91,32.23,395.24,395.24,0,0,0,33.18,25.47,477.51,477.51,0,0,0,542,3.3,440.46,440.46,0,0,0,37.42-28.3c11.32-9.28,22-19.18,32.23-29.4,9.59-9.59,18.87-19.65,27.52-30.19a424.88,424.88,0,0,0,34.91-47.17c3.3-4.72,6.29-9.59,9.12-14.47A425.91,425.91,0,0,0,1058.91,790.67Z" transform="translate(-0.25 -0.25)"/><path class="cls-2" d="M1103.41,589.41a473.72,473.72,0,0,1-44.5,201.26l-9.59-19.81h-29.25V723.69l-37.89-78.62h-29.4V597.9L915,519.28H885.8V472.11L847.9,393.49H818.5V346.32l-37.74-78.62h-29.4V220.54L696,116.92C926.52,150.88,1103.41,349.47,1103.41,589.41Z" transform="translate(-0.25 -0.25)"/><path class="cls-1" d="M1049.32,770.86l9.59,19.81A425.91,425.91,0,0,1,1035.48,835l-31-64.15h44.81Z" transform="translate(-0.25 -0.25)"/><path class="cls-1" d="M1004.51,770.86l31,64.15c-2.83,4.87-5.82,9.75-9.12,14.47H992.72l-37.89-78.62Z" transform="translate(-0.25 -0.25)"/><path class="cls-2" d="M992.72,849.48h33.65a424.88,424.88,0,0,1-34.91,47.17H856.39l37.89,87.89a477.51,477.51,0,0,1-542-3.3l38.84-84.59H259.84a424.88,424.88,0,0,1-34.91-47.17H410.32l32.39-78.62H297V723.69h723.12v47.17H808l30.5,78.62H992.72Z" transform="translate(-0.25 -0.25)"/><polygon class="cls-1" points="981.93 644.82 1019.83 723.44 975.01 723.44 937.12 644.82 952.53 644.82 981.93 644.82"/><polygon class="cls-1" points="954.57 770.61 992.47 849.23 932.72 849.23 902.21 770.61 954.57 770.61"/><path class="cls-1" d="M950.89,896.65h40.57c-8.65,10.53-17.92,20.6-27.52,30.19Z" transform="translate(-0.25 -0.25)"/><polygon class="cls-1" points="937.12 644.82 975.01 723.44 925.33 723.44 887.43 644.82 937.12 644.82"/><path class="cls-3" d="M950.89,896.65l13.05,30.19C953.72,937.06,943,947,931.71,956.24l-25.63-59.59Z" transform="translate(-0.25 -0.25)"/><path class="cls-2" d="M952.78,597.9v47.17H272.11L233,723.69h64v47.17h-94.5l-9.91,20a471.68,471.68,0,0,1-44.65-201.42c0-245,184.44-446.86,422-474.38l-58.49,105.5H751.36v47.17H481.07l-39.15,78.62H818.5v47.17H644.13l30.82,78.62H885.8v47.17h-187l31,78.62h223Zm-372-125.79,32.39-78.62H411.42l-39.31,78.62H580.76ZM523.21,597.9l32.39-78.62H341.76L302.61,597.9h220.6Z" transform="translate(-0.25 -0.25)"/><polygon class="cls-1" points="914.79 519.03 952.53 597.65 907.72 597.65 869.98 519.03 885.55 519.03 914.79 519.03"/><polygon class="cls-3" points="902.21 770.61 932.72 849.23 887.91 849.23 857.4 770.61 902.21 770.61"/><path class="cls-1" d="M906.08,896.65l25.63,59.59a440.46,440.46,0,0,1-37.42,28.3l-37.89-87.89Z" transform="translate(-0.25 -0.25)"/><polygon class="cls-1" points="887.43 644.82 925.33 723.44 327.21 723.44 366.36 644.82 887.43 644.82"/><polygon class="cls-1" points="869.98 519.03 907.72 597.65 858.03 597.65 820.29 519.03 869.98 519.03"/><polygon class="cls-1" points="857.4 770.61 887.91 849.23 838.22 849.23 807.72 770.61 857.4 770.61"/><polygon class="cls-1" points="847.65 393.25 885.55 471.86 840.74 471.86 802.84 393.25 818.25 393.25 847.65 393.25"/><polygon class="cls-1" points="820.29 519.03 858.03 597.65 824.07 597.65 793.09 519.03 820.29 519.03"/><polygon class="cls-1" points="802.84 393.25 840.74 471.86 791.05 471.86 753.15 393.25 802.84 393.25"/><polygon class="cls-3" points="793.09 519.03 824.07 597.65 779.26 597.65 748.28 519.03 793.09 519.03"/><polygon class="cls-1" points="780.51 267.46 818.25 346.07 773.44 346.07 735.7 267.46 751.11 267.46 780.51 267.46"/><polygon class="cls-1" points="753.15 393.25 791.05 471.86 769.19 471.86 738.38 393.25 753.15 393.25"/><polygon class="cls-1" points="748.28 519.03 779.26 597.65 729.57 597.65 698.6 519.03 748.28 519.03"/><polygon class="cls-1" points="735.7 267.46 773.44 346.07 723.75 346.07 686.02 267.46 735.7 267.46"/><polygon class="cls-3" points="738.38 393.25 769.19 471.86 724.38 471.86 693.56 393.25 738.38 393.25"/><path class="cls-1" d="M696,116.92l55.35,103.62H706.55l-49.37-92.45,8-14.62C675.57,114.25,685.79,115.35,696,116.92Z" transform="translate(-0.25 -0.25)"/><polygon class="cls-1" points="693.56 393.25 724.38 471.86 674.7 471.86 643.88 393.25 693.56 393.25"/><polygon class="cls-1" points="686.02 267.46 723.75 346.07 714.32 346.07 683.5 267.46 686.02 267.46"/><polygon class="cls-3" points="683.5 267.46 714.32 346.07 669.51 346.07 654.1 306.92 670.29 267.46 683.5 267.46"/><polygon class="cls-1" points="656.93 127.83 706.3 220.29 656.61 220.29 631.61 173.43 656.93 127.83"/><polygon class="cls-1" points="670.29 267.46 654.1 306.92 638.69 267.46 670.29 267.46"/><polygon class="cls-1" points="654.1 306.92 669.51 346.07 638.06 346.07 654.1 306.92"/><path class="cls-3" d="M665.2,113.46l-8,14.62-8.49-15.72C654.19,112.52,659.69,112.83,665.2,113.46Z" transform="translate(-0.25 -0.25)"/><path class="cls-3" d="M648.69,112.36l8.49,15.72-25.31,45.6-22-41.2,11.48-20.6a38.32,38.32,0,0,1,4.25-.16C633.28,111.73,641.14,111.89,648.69,112.36Z" transform="translate(-0.25 -0.25)"/><polygon class="cls-1" points="631.61 173.43 656.61 220.29 605.67 220.29 631.61 173.43"/><polygon class="cls-1" points="638.69 267.46 654.1 306.92 638.06 346.07 619.82 346.07 606.77 312.9 625.48 267.46 638.69 267.46"/><polygon class="cls-3" points="609.6 132.24 631.61 173.43 605.67 220.29 560.86 220.29 609.6 132.24"/><polygon class="cls-1" points="625.48 267.46 606.77 312.9 589 267.46 625.48 267.46"/><path class="cls-1" d="M621.33,111.89l-11.48,20.6-10.69-20C606.39,112,613.78,111.89,621.33,111.89Z" transform="translate(-0.25 -0.25)"/><polygon class="cls-1" points="606.77 312.9 619.82 346.07 593.25 346.07 606.77 312.9"/><polygon class="cls-1" points="612.9 393.25 580.51 471.86 535.7 471.86 568.09 393.25 612.9 393.25"/><path class="cls-1" d="M599.16,112.52l10.69,20-48.74,88.05H511.42L569.91,115C579.5,113.77,589.25,113,599.16,112.52Z" transform="translate(-0.25 -0.25)"/><polygon class="cls-1" points="589 267.46 606.77 312.9 593.25 346.07 543.56 346.07 575.79 267.46 589 267.46"/><polygon class="cls-1" points="575.79 267.46 543.56 346.07 536.17 346.07 575.32 267.46 575.79 267.46"/><polygon class="cls-3" points="575.32 267.46 536.17 346.07 491.36 346.07 530.51 267.46 575.32 267.46"/><polygon class="cls-1" points="568.09 393.25 535.7 471.86 486.01 471.86 518.4 393.25 568.09 393.25"/><polygon class="cls-1" points="555.35 519.03 522.96 597.65 478.15 597.65 510.54 519.03 555.35 519.03"/><polygon class="cls-1" points="530.51 267.46 491.36 346.07 441.67 346.07 480.82 267.46 530.51 267.46"/><polygon class="cls-1" points="518.4 393.25 486.01 471.86 466.36 471.86 505.67 393.25 518.4 393.25"/><polygon class="cls-1" points="510.54 519.03 478.15 597.65 428.46 597.65 460.86 519.03 510.54 519.03"/><polygon class="cls-3" points="505.67 393.25 466.36 471.86 421.55 471.86 460.86 393.25 505.67 393.25"/><polygon class="cls-1" points="460.86 393.25 421.55 471.86 371.86 471.86 411.17 393.25 460.86 393.25"/><polygon class="cls-1" points="460.86 519.03 428.46 597.65 396.86 597.65 436.01 519.03 460.86 519.03"/><polygon class="cls-1" points="442.46 770.61 410.07 849.23 365.26 849.23 397.65 770.61 442.46 770.61"/><polygon class="cls-3" points="436.01 519.03 396.86 597.65 352.05 597.65 391.2 519.03 436.01 519.03"/><polygon class="cls-1" points="397.65 770.61 365.26 849.23 315.57 849.23 347.96 770.61 397.65 770.61"/><polygon class="cls-1" points="391.2 519.03 352.05 597.65 302.36 597.65 341.51 519.03 391.2 519.03"/><path class="cls-1" d="M391.14,896.65,352.3,981.24a395.24,395.24,0,0,1-33.18-25.47l27-59.12Z" transform="translate(-0.25 -0.25)"/><polygon class="cls-3" points="366.36 644.82 327.21 723.44 296.7 723.44 282.39 723.44 321.55 644.82 366.36 644.82"/><polygon class="cls-1" points="347.96 770.61 315.57 849.23 257.55 849.23 296.7 770.61 347.96 770.61"/><path class="cls-1" d="M346.17,896.65l-27,59.12a423.66,423.66,0,0,1-34.91-32.23l12.26-26.89Z" transform="translate(-0.25 -0.25)"/><polygon class="cls-1" points="321.55 644.82 282.39 723.44 232.71 723.44 271.86 644.82 321.55 644.82"/><path class="cls-3" d="M297,770.86,257.8,849.48H224.94c-2.36-3.46-4.56-6.92-6.76-10.53l34-68.08Z" transform="translate(-0.25 -0.25)"/><path class="cls-1" d="M296.48,896.65l-12.26,26.89c-8.65-8.65-16.67-17.61-24.37-26.89Z" transform="translate(-0.25 -0.25)"/><path class="cls-1" d="M252.14,770.86l-34,68.08a403.1,403.1,0,0,1-25.63-48.11l9.91-20Z" transform="translate(-0.25 -0.25)"/></g></g></svg>