<svg xmlns="http://www.w3.org/2000/svg" xmlns:xlink="http://www.w3.org/1999/xlink" viewBox="0 0 1179 1178"><defs><style>.cls-1{fill:none;}.cls-2{fill:#fff;}.cls-3{fill:#009245;}.cls-4{fill:#39b54a;}.cls-5{fill:#8cc63f;}.cls-6{fill:#006837;}.cls-7{fill:#d9e021;}.cls-8{fill:#22b573;}.cls-9{fill:#fcee21;}.cls-10{fill:#00a99d;}.cls-11{fill:#fbb03b;}.cls-12{fill:#29abe2;}.cls-13{fill:blue;}.cls-14{fill:#f0f;}.cls-15{fill:aqua;}.cls-16{fill:#c1272d;}.cls-17{fill:lime;}.cls-18{fill:#f7931e;}.cls-19{fill:#0071bc;}.cls-20{fill:red;}.cls-21{fill:#ed1c24;}.cls-22{fill:#f15a24;}.cls-23{fill:#0071b5;}.cls-24{fill:#2e3192;}.cls-25{clip-path:url(#clip-path);}.cls-26{fill:#573293;}.cls-27{fill:#583293;}.cls-28{fill:#593393;}.cls-29{fill:#5a3393;}.cls-30{fill:#5b3393;}.cls-31{fill:#5c3494;}.cls-32{fill:#5d3494;}.cls-33{fill:#5e3494;}.cls-34{fill:#5f3494;}.cls-35{fill:#603594;}.cls-36{fill:#613594;}.cls-37{fill:#623594;}.cls-38{fill:#633694;}.cls-39{fill:#643694;}.cls-40{fill:#653694;}.cls-41{fill:#663795;}.cls-42{fill:#673795;}.cls-43{fill:#683795;}.cls-44{fill:#693895;}.cls-45{fill:#6a3895;}.cls-46{fill:#6b3895;}.cls-47{fill:#6c3895;}.cls-48{fill:#6d3995;}.cls-49{fill:#6e3995;}.cls-50{fill:#6f3996;}.cls-51{fill:#703a96;}.cls-52{fill:#713a96;}.cls-53{fill:#723a96;}.cls-54{fill:#733b96;}.cls-55{fill:#743b96;}.cls-56{fill:#753b96;}.cls-57{fill:#763c96;}.cls-58{fill:#773c96;}.cls-59{fill:#783c97;}.cls-60{fill:#793c97;}.cls-61{fill:#7a3d97;}.cls-62{fill:#7b3d97;}.cls-63{fill:#7c3d97;}.cls-64{fill:#7d3e97;}.cls-65{fill:#7e3e97;}.cls-66{fill:#7f3e97;}.cls-67{fill:#803f97;}.cls-68{fill:#813f97;}.cls-69{fill:#823f98;}.cls-70{fill:#833f98;}.cls-71{fill:#844098;}.cls-72{fill:#854098;}.cls-73{fill:#864098;}.cls-74{fill:#874198;}.cls-75{fill:#884198;}.cls-76{fill:#894198;}.cls-77{fill:#8a4298;}.cls-78{fill:#8b4299;}.cls-79{fill:#8c4299;}.cls-80{fill:#8d4399;}.cls-81{fill:#8e4399;}.cls-82{fill:#8f4399;}.cls-83{fill:#904399;}.cls-84{fill:#914499;}.cls-85{fill:#924499;}.cls-86{fill:#934499;}.cls-87{fill:#94459a;}.cls-88{fill:#95459a;}.cls-89{fill:#96459a;}.cls-90{fill:#97469a;}.cls-91{fill:#98469a;}.cls-92{fill:#99469a;}.cls-93{fill:#9a479a;}.cls-94{fill:#9b479a;}.cls-95{fill:#9c479a;}.cls-96{fill:#9d479a;}.cls-97{fill:#9e489b;}.cls-98{fill:#9f489b;}.cls-99{fill:#a0489b;}.cls-100{fill:#a1499b;}.cls-101{fill:#a3499b;}.cls-102{fill:#a4499b;}.cls-103{fill:#a54a9b;}.cls-104{fill:#a64a9b;}.cls-105{fill:#a74a9b;}.cls-106{fill:#a84b9c;}.cls-107{fill:#a94b9c;}.cls-108{fill:#aa4b9c;}.cls-109{fill:#ab4b9c;}.cls-110{fill:#ac4c9c;}.cls-111{fill:#ad4c9c;}.cls-112{fill:#ae4c9c;}.cls-113{fill:#af4d9c;}.cls-114{fill:#b04d9c;}.cls-115{fill:#b14d9c;}.cls-116{fill:#b24e9d;}.cls-117{fill:#b34e9d;}.cls-118{fill:#b44e9d;}.cls-119{fill:#b54f9d;}.cls-120{fill:#b64f9d;}.cls-121{fill:#b74f9d;}.cls-122{fill:#b84f9d;}.cls-123{fill:#b9509d;}.cls-124{fill:#ba509d;}.cls-125{fill:#bb509e;}.cls-126{fill:#bc519e;}.cls-127{fill:#bd519e;}.cls-128{fill:#be519e;}.cls-129{fill:#bf529e;}.cls-130{fill:#c0529e;}.cls-131{fill:#c1529e;}.cls-132{fill:#c2539e;}.cls-133{fill:#c3539e;}.cls-134{fill:#c4539f;}.cls-135{fill:#c5539f;}.cls-136{fill:#c6549f;}.cls-137{fill:#c7549f;}.cls-138{fill:#c8549f;}.cls-139{fill:#c9559f;}.cls-140{fill:#ca559f;}.cls-141{fill:#cb559f;}.cls-142{fill:#cc569f;}.cls-143{fill:#cd569f;}.cls-144{fill:#ce56a0;}.cls-145{fill:#cf56a0;}.cls-146{fill:#d057a0;}.cls-147{fill:#d157a0;}.cls-148{fill:#d257a0;}.cls-149{fill:#d358a0;}.cls-150{fill:#d458a0;}.cls-151{fill:#d558a0;}.cls-152{fill:#d659a0;}.cls-153{fill:#d759a1;}.cls-154{fill:#d859a1;}.cls-155{fill:#d95aa1;}.cls-156{fill:#da5aa1;}.cls-157{fill:#db5aa1;}.cls-158{fill:#dc5aa1;}.cls-159{fill:#dd5ba1;}.cls-160{fill:#de5ba1;}.cls-161{fill:#df5ba1;}.cls-162{fill:#e05ca2;}.cls-163{fill:#e15ca2;}.cls-164{fill:#e25ca2;}.cls-165{fill:#e35da2;}.cls-166{fill:#e45da2;}.cls-167{fill:#e55da2;}.cls-168{fill:#e65ea2;}.cls-169{fill:#e75ea2;}.cls-170{fill:#e85ea2;}.cls-171{fill:#e95ea2;}.cls-172{fill:#ea5fa3;}.cls-173{fill:#eb5fa3;}.cls-174{fill:#ec5fa3;}.cls-175{fill:#ed60a3;}.cls-176{fill:#ee60a3;}.cls-177{fill:#ee5fa2;}.cls-178{fill:#ed5ea1;}.cls-179{fill:#ed5ea0;}.cls-180{fill:#ec5d9f;}.cls-181{fill:#ec5c9e;}.cls-182{fill:#ec5b9d;}.cls-183{fill:#eb5a9c;}.cls-184{fill:#eb5a9b;}.cls-185{fill:#ea599a;}.cls-186{fill:#ea5899;}.cls-187{fill:#ea5798;}.cls-188{fill:#e95697;}.cls-189{fill:#e95596;}.cls-190{fill:#e85595;}.cls-191{fill:#e85494;}.cls-192{fill:#e85393;}.cls-193{fill:#e75292;}.cls-194{fill:#e75191;}.cls-195{fill:#e65190;}.cls-196{fill:#e6508f;}.cls-197{fill:#e64f8e;}.cls-198{fill:#e54e8d;}.cls-199{fill:#e54d8c;}.cls-200{fill:#e44d8b;}.cls-201{fill:#e44c8a;}.cls-202{fill:#e44b89;}.cls-203{fill:#e34a88;}.cls-204{fill:#e34987;}.cls-205{fill:#e34986;}.cls-206{fill:#e24884;}.cls-207{fill:#e24783;}.cls-208{fill:#e14682;}.cls-209{fill:#e14581;}.cls-210{fill:#e14480;}.cls-211{fill:#e0447f;}.cls-212{fill:#e0437e;}.cls-213{fill:#df427d;}.cls-214{fill:#df417c;}.cls-215{fill:#df407b;}.cls-216{fill:#de407a;}.cls-217{fill:#de3f79;}.cls-218{fill:#dd3e78;}.cls-219{fill:#dd3d77;}.cls-220{fill:#dd3c76;}.cls-221{fill:#dc3c75;}.cls-222{fill:#dc3b74;}.cls-223{fill:#db3a73;}.cls-224{fill:#db3972;}.cls-225{fill:#db3871;}.cls-226{fill:#da3770;}.cls-227{fill:#da376f;}.cls-228{fill:#d9366e;}.cls-229{fill:#d9356d;}.cls-230{fill:#d9346c;}.cls-231{fill:#d8336b;}.cls-232{fill:#d8336a;}.cls-233{fill:#d73269;}.cls-234{fill:#d73168;}</style><clipPath id="clip-path"><path class="cls-1" d="M674.75,140.09H353.43V123.72H636.81A221.24,221.24,0,0,1,674.75,140.09Z"/></clipPath></defs><title>B</title><g id="Layer_2" data-name="Layer 2"><g id="Layer_1-2" data-name="Layer 1"><rect class="cls-2" width="1179" height="1178"/><g id="_Group_" data-name="&lt;Group&gt;"><path class="cls-3" d="M874.64,792.78c-.16,5.51-.49,11-1,16.37H740.57c1.13-5.35,2.11-10.7,2.76-16.37Z"/><path class="cls-4" d="M874.64,769.76H744.14A136.56,136.56,0,0,0,743,753.39H873.67A136.64,136.64,0,0,1,874.64,769.76Z"/><path class="cls-5" d="M870.91,730.37H738A126.22,126.22,0,0,0,731.65,714H868A138.4,138.4,0,0,1,870.91,730.37Z"/><path class="cls-6" d="M733.11,832H870.59a139.72,139.72,0,0,1-3.4,16.37H724.68A111.77,111.77,0,0,0,733.11,832Z"/><path class="cls-7" d="M861.67,691H718.2a130.92,130.92,0,0,0-13.94-16.37H855.84A151.53,151.53,0,0,1,861.67,691Z"/><path class="cls-8" d="M707,871.41H860.7c-1.78,5.51-3.89,11-6.16,16.37H688a135.53,135.53,0,0,0,11.83-9.24A98.69,98.69,0,0,0,707,871.41Z"/><path class="cls-9" d="M845.46,651.74h-173c-15.24-7.46-33.88-13-55.61-16.37H836.06A151.78,151.78,0,0,1,845.46,651.74Z"/><path class="cls-10" d="M630,910.8H843.52c-2.92,5.51-6.16,11-9.56,16.37H353.43V910.8H486v5.67h81.87C590.93,916.48,611.69,914.7,630,910.8Z"/><path class="cls-11" d="M820.17,612.34H353.43V596H806.07A147.83,147.83,0,0,1,820.17,612.34Z"/><path class="cls-12" d="M353.43,950.2H817.09c-4.38,5.67-9.08,11-14.1,16.37H353.43Z"/><path class="cls-13" d="M795.85,359.76c.16,3.4.16,6.81.16,10.21,0,2.11,0,4.05-.16,6.16H670a26.27,26.27,0,0,0,.16-3.57c0-4.38-.16-8.59-.32-12.81Z"/><path class="cls-14" d="M668.75,399.16H794.39A137.42,137.42,0,0,1,792,415.53H666A127.7,127.7,0,0,0,668.75,399.16Z"/><path class="cls-15" d="M793.91,336.91H667.13a102.75,102.75,0,0,0-3.73-16.54H791.48C792.45,325.88,793.42,331.39,793.91,336.91Z"/><path class="cls-16" d="M659.35,438.55H786.61a148.47,148.47,0,0,1-5.35,16.37H651.73A79.56,79.56,0,0,0,659.35,438.55Z"/><path class="cls-17" d="M786.29,297.51H654.16a82.18,82.18,0,0,0-10.38-16.37h137.8C783.37,286.65,785,292,786.29,297.51Z"/><path class="cls-18" d="M780.29,572.95H353.43V556.58H755.65A191.14,191.14,0,0,1,780.29,572.95Z"/><path class="cls-19" d="M353.43,989.43H779.32a260.19,260.19,0,0,1-21.56,16.37H353.43Z"/><path class="cls-20" d="M773,258.12H618.33C607,250.66,594,245.31,579.1,241.74H765.7C768.29,247.09,770.72,252.44,773,258.12Z"/><path class="cls-21" d="M634.06,477.79H771.37a165.29,165.29,0,0,1-9.24,16.54H610.88A88.56,88.56,0,0,0,634.06,477.79Z"/><path class="cls-20" d="M753.38,218.72H353.43V202.35H742.84A188.14,188.14,0,0,1,753.38,218.72Z"/><path class="cls-22" d="M353.43,517.18H745.92A213.54,213.54,0,0,1,732,533.56H353.43Z"/><path class="cls-23" d="M724.52,179.49H353.43V163H707.5c2.76,2.27,5.19,4.54,7.78,7C718.36,173,721.44,176.08,724.52,179.49Z"/><path class="cls-24" d="M714.63,1028.83c-3.57,1.46-7.13,2.76-10.86,4.05a390.8,390.8,0,0,1-60,12.32H353.43v-16.37Z"/><g class="cls-25"><path class="cls-26" d="M353.43,123.72v0Z"/><rect class="cls-26" x="353.43" y="123.72" width="1.09" height="16.37"/><rect class="cls-27" x="354.52" y="123.72" width="1.09" height="16.37"/><rect class="cls-28" x="355.61" y="123.72" width="1.09" height="16.37"/><rect class="cls-29" x="356.7" y="123.72" width="1.09" height="16.37"/><rect class="cls-30" x="357.78" y="123.72" width="1.09" height="16.37"/><rect class="cls-31" x="358.87" y="123.72" width="1.09" height="16.37"/><rect class="cls-32" x="359.96" y="123.72" width="1.09" height="16.37"/><rect class="cls-33" x="361.05" y="123.72" width="1.09" height="16.37"/><rect class="cls-34" x="362.13" y="123.72" width="1.09" height="16.37"/><rect class="cls-35" x="363.22" y="123.72" width="1.09" height="16.37"/><rect class="cls-36" x="364.31" y="123.72" width="1.09" height="16.37"/><rect class="cls-37" x="365.4" y="123.72" width="1.09" height="16.37"/><rect class="cls-38" x="366.49" y="123.72" width="1.09" height="16.37"/><rect class="cls-39" x="367.57" y="123.72" width="1.09" height="16.37"/><rect class="cls-40" x="368.66" y="123.72" width="1.09" height="16.37"/><rect class="cls-41" x="369.75" y="123.72" width="1.09" height="16.37"/><rect class="cls-42" x="370.84" y="123.72" width="1.09" height="16.37"/><rect class="cls-43" x="371.93" y="123.72" width="1.09" height="16.37"/><rect class="cls-44" x="373.01" y="123.72" width="1.09" height="16.37"/><rect class="cls-45" x="374.1" y="123.72" width="1.09" height="16.37"/><rect class="cls-46" x="375.19" y="123.72" width="1.09" height="16.37"/><rect class="cls-47" x="376.28" y="123.72" width="1.09" height="16.37"/><rect class="cls-48" x="377.36" y="123.72" width="1.09" height="16.37"/><rect class="cls-49" x="378.45" y="123.72" width="1.09" height="16.37"/><rect class="cls-50" x="379.54" y="123.72" width="1.09" height="16.37"/><rect class="cls-51" x="380.63" y="123.72" width="1.09" height="16.37"/><rect class="cls-52" x="381.72" y="123.72" width="1.09" height="16.37"/><rect class="cls-53" x="382.8" y="123.72" width="1.09" height="16.37"/><rect class="cls-54" x="383.89" y="123.72" width="1.09" height="16.37"/><rect class="cls-55" x="384.98" y="123.72" width="1.09" height="16.37"/><rect class="cls-56" x="386.07" y="123.72" width="1.09" height="16.37"/><rect class="cls-57" x="387.16" y="123.72" width="1.09" height="16.37"/><rect class="cls-58" x="388.24" y="123.72" width="1.09" height="16.37"/><rect class="cls-59" x="389.33" y="123.72" width="1.09" height="16.37"/><rect class="cls-60" x="390.42" y="123.72" width="1.09" height="16.37"/><rect class="cls-61" x="391.51" y="123.72" width="1.09" height="16.37"/><rect class="cls-62" x="392.6" y="123.72" width="1.09" height="16.37"/><rect class="cls-63" x="393.68" y="123.72" width="1.09" height="16.37"/><rect class="cls-64" x="394.77" y="123.72" width="1.09" height="16.37"/><rect class="cls-65" x="395.86" y="123.72" width="1.09" height="16.37"/><rect class="cls-66" x="396.95" y="123.72" width="1.09" height="16.37"/><rect class="cls-67" x="398.03" y="123.72" width="1.09" height="16.37"/><rect class="cls-68" x="399.12" y="123.72" width="1.09" height="16.37"/><rect class="cls-69" x="400.21" y="123.72" width="1.09" height="16.37"/><rect class="cls-70" x="401.3" y="123.72" width="1.09" height="16.37"/><rect class="cls-71" x="402.39" y="123.72" width="1.09" height="16.37"/><rect class="cls-72" x="403.47" y="123.72" width="1.09" height="16.37"/><rect class="cls-73" x="404.56" y="123.72" width="1.09" height="16.37"/><rect class="cls-74" x="405.65" y="123.72" width="1.09" height="16.37"/><rect class="cls-75" x="406.74" y="123.72" width="1.09" height="16.37"/><rect class="cls-76" x="407.83" y="123.72" width="1.09" height="16.37"/><rect class="cls-77" x="408.91" y="123.72" width="1.09" height="16.37"/><rect class="cls-78" x="410" y="123.72" width="1.09" height="16.37"/><rect class="cls-79" x="411.09" y="123.72" width="1.09" height="16.37"/><rect class="cls-80" x="412.18" y="123.72" width="1.09" height="16.37"/><rect class="cls-81" x="413.26" y="123.72" width="1.09" height="16.37"/><rect class="cls-82" x="414.35" y="123.72" width="1.09" height="16.37"/><rect class="cls-83" x="415.44" y="123.72" width="1.09" height="16.37"/><rect class="cls-84" x="416.53" y="123.72" width="1.09" height="16.37"/><rect class="cls-85" x="417.62" y="123.72" width="1.09" height="16.37"/><rect class="cls-86" x="418.7" y="123.72" width="1.09" height="16.37"/><rect class="cls-87" x="419.79" y="123.72" width="1.09" height="16.37"/><rect class="cls-88" x="420.88" y="123.72" width="1.09" height="16.37"/><rect class="cls-89" x="421.97" y="123.72" width="1.09" height="16.37"/><rect class="cls-90" x="423.06" y="123.72" width="1.09" height="16.37"/><rect class="cls-91" x="424.14" y="123.72" width="1.09" height="16.37"/><rect class="cls-92" x="425.23" y="123.72" width="1.09" height="16.37"/><rect class="cls-93" x="426.32" y="123.72" width="1.09" height="16.37"/><rect class="cls-94" x="427.41" y="123.72" width="1.09" height="16.37"/><rect class="cls-95" x="428.5" y="123.72" width="1.09" height="16.37"/><rect class="cls-96" x="429.58" y="123.72" width="1.09" height="16.37"/><rect class="cls-97" x="430.67" y="123.72" width="1.09" height="16.37"/><rect class="cls-98" x="431.76" y="123.72" width="1.09" height="16.37"/><rect class="cls-99" x="432.85" y="123.72" width="1.09" height="16.37"/><rect class="cls-100" x="433.93" y="123.72" width="1.09" height="16.37"/><rect class="cls-101" x="435.02" y="123.72" width="1.09" height="16.37"/><rect class="cls-102" x="436.11" y="123.72" width="1.09" height="16.37"/><rect class="cls-103" x="437.2" y="123.72" width="1.09" height="16.37"/><rect class="cls-104" x="438.29" y="123.72" width="1.09" height="16.37"/><rect class="cls-105" x="439.37" y="123.72" width="1.09" height="16.37"/><rect class="cls-106" x="440.46" y="123.72" width="1.09" height="16.37"/><rect class="cls-107" x="441.55" y="123.72" width="1.09" height="16.37"/><rect class="cls-108" x="442.64" y="123.72" width="1.09" height="16.37"/><rect class="cls-109" x="443.73" y="123.72" width="1.09" height="16.37"/><rect class="cls-110" x="444.81" y="123.72" width="1.09" height="16.37"/><rect class="cls-111" x="445.9" y="123.72" width="1.09" height="16.37"/><rect class="cls-112" x="446.99" y="123.72" width="1.09" height="16.37"/><rect class="cls-113" x="448.08" y="123.72" width="1.09" height="16.37"/><rect class="cls-114" x="449.16" y="123.72" width="1.09" height="16.37"/><rect class="cls-115" x="450.25" y="123.72" width="1.09" height="16.37"/><rect class="cls-116" x="451.34" y="123.72" width="1.09" height="16.37"/><rect class="cls-117" x="452.43" y="123.72" width="1.09" height="16.37"/><rect class="cls-118" x="453.52" y="123.72" width="1.09" height="16.37"/><rect class="cls-119" x="454.6" y="123.72" width="1.09" height="16.37"/><rect class="cls-120" x="455.69" y="123.72" width="1.09" height="16.37"/><rect class="cls-121" x="456.78" y="123.72" width="1.09" height="16.37"/><rect class="cls-122" x="457.87" y="123.72" width="1.09" height="16.37"/><rect class="cls-123" x="458.96" y="123.72" width="1.09" height="16.37"/><rect class="cls-124" x="460.04" y="123.72" width="1.09" height="16.37"/><rect class="cls-125" x="461.13" y="123.72" width="1.09" height="16.37"/><rect class="cls-126" x="462.22" y="123.72" width="1.09" height="16.37"/><rect class="cls-127" x="463.31" y="123.72" width="1.09" height="16.37"/><rect class="cls-128" x="464.4" y="123.72" width="1.09" height="16.37"/><rect class="cls-129" x="465.48" y="123.72" width="1.09" height="16.37"/><rect class="cls-130" x="466.57" y="123.72" width="1.09" height="16.37"/><rect class="cls-131" x="467.66" y="123.72" width="1.09" height="16.37"/><rect class="cls-132" x="468.75" y="123.72" width="1.09" height="16.37"/><rect class="cls-133" x="469.83" y="123.72" width="1.09" height="16.37"/><rect class="cls-134" x="470.92" y="123.72" width="1.09" height="16.37"/><rect class="cls-135" x="472.01" y="123.72" width="1.09" height="16.37"/><rect class="cls-136" x="473.1" y="123.72" width="1.09" height="16.37"/><rect class="cls-137" x="474.19" y="123.72" width="1.09" height="16.37"/><rect class="cls-138" x="475.27" y="123.72" width="1.09" height="16.37"/><rect class="cls-139" x="476.36" y="123.72" width="1.09" height="16.37"/><rect class="cls-140" x="477.45" y="123.72" width="1.09" height="16.37"/><rect class="cls-141" x="478.54" y="123.72" width="1.09" height="16.37"/><rect class="cls-142" x="479.63" y="123.72" width="1.09" height="16.37"/><rect class="cls-143" x="480.71" y="123.72" width="1.09" height="16.37"/><rect class="cls-144" x="481.8" y="123.72" width="1.09" height="16.37"/><rect class="cls-145" x="482.89" y="123.72" width="1.09" height="16.37"/><rect class="cls-146" x="483.98" y="123.72" width="1.09" height="16.37"/><rect class="cls-147" x="485.06" y="123.72" width="1.09" height="16.37"/><rect class="cls-148" x="486.15" y="123.72" width="1.09" height="16.37"/><rect class="cls-149" x="487.24" y="123.72" width="1.09" height="16.37"/><rect class="cls-150" x="488.33" y="123.72" width="1.09" height="16.37"/><rect class="cls-151" x="489.42" y="123.72" width="1.09" height="16.37"/><rect class="cls-152" x="490.5" y="123.72" width="1.09" height="16.37"/><rect class="cls-153" x="491.59" y="123.72" width="1.09" height="16.37"/><rect class="cls-154" x="492.68" y="123.72" width="1.09" height="16.37"/><rect class="cls-155" x="493.77" y="123.72" width="1.09" height="16.37"/><rect class="cls-156" x="494.86" y="123.72" width="1.09" height="16.37"/><rect class="cls-157" x="495.94" y="123.72" width="1.09" height="16.37"/><rect class="cls-158" x="497.03" y="123.72" width="1.09" height="16.37"/><rect class="cls-159" x="498.12" y="123.72" width="1.09" height="16.37"/><rect class="cls-160" x="499.21" y="123.72" width="1.09" height="16.37"/><rect class="cls-161" x="500.3" y="123.72" width="1.09" height="16.37"/><rect class="cls-162" x="501.38" y="123.72" width="1.09" height="16.37"/><rect class="cls-163" x="502.47" y="123.72" width="1.09" height="16.37"/><rect class="cls-164" x="503.56" y="123.72" width="1.09" height="16.37"/><rect class="cls-165" x="504.65" y="123.72" width="1.09" height="16.37"/><rect class="cls-166" x="505.73" y="123.72" width="1.09" height="16.37"/><rect class="cls-167" x="506.82" y="123.72" width="1.09" height="16.37"/><rect class="cls-168" x="507.91" y="123.72" width="1.09" height="16.37"/><rect class="cls-169" x="509" y="123.72" width="1.09" height="16.37"/><rect class="cls-170" x="510.09" y="123.72" width="1.09" height="16.37"/><rect class="cls-171" x="511.17" y="123.72" width="1.09" height="16.37"/><rect class="cls-172" x="512.26" y="123.72" width="1.09" height="16.37"/><rect class="cls-173" x="513.35" y="123.72" width="1.09" height="16.37"/><rect class="cls-174" x="514.44" y="123.72" width="1.09" height="16.37"/><rect class="cls-175" x="515.53" y="123.72" width="1.09" height="16.37"/><rect class="cls-176" x="516.61" y="123.72" width="1.09" height="16.37"/><rect class="cls-176" x="517.7" y="123.72" width="2.66" height="16.37"/><rect class="cls-177" x="520.36" y="123.72" width="2.66" height="16.37"/><rect class="cls-178" x="523.02" y="123.72" width="2.66" height="16.37"/><rect class="cls-179" x="525.69" y="123.72" width="2.66" height="16.37"/><rect class="cls-180" x="528.35" y="123.72" width="2.66" height="16.37"/><rect class="cls-181" x="531.01" y="123.72" width="2.66" height="16.37"/><rect class="cls-182" x="533.67" y="123.72" width="2.66" height="16.37"/><rect class="cls-183" x="536.33" y="123.72" width="2.66" height="16.37"/><rect class="cls-184" x="539" y="123.72" width="2.66" height="16.37"/><rect class="cls-185" x="541.66" y="123.72" width="2.66" height="16.37"/><rect class="cls-186" x="544.32" y="123.72" width="2.66" height="16.37"/><rect class="cls-187" x="546.98" y="123.72" width="2.66" height="16.37"/><rect class="cls-188" x="549.64" y="123.72" width="2.66" height="16.37"/><rect class="cls-189" x="552.31" y="123.72" width="2.66" height="16.37"/><rect class="cls-190" x="554.97" y="123.72" width="2.66" height="16.37"/><rect class="cls-191" x="557.63" y="123.72" width="2.66" height="16.37"/><rect class="cls-192" x="560.29" y="123.72" width="2.66" height="16.37"/><rect class="cls-193" x="562.95" y="123.72" width="2.66" height="16.37"/><rect class="cls-194" x="565.61" y="123.72" width="2.66" height="16.37"/><rect class="cls-195" x="568.28" y="123.72" width="2.66" height="16.37"/><rect class="cls-196" x="570.94" y="123.72" width="2.66" height="16.37"/><rect class="cls-197" x="573.6" y="123.72" width="2.66" height="16.37"/><rect class="cls-198" x="576.26" y="123.72" width="2.66" height="16.37"/><rect class="cls-199" x="578.92" y="123.72" width="2.66" height="16.37"/><rect class="cls-200" x="581.59" y="123.72" width="2.66" height="16.37"/><rect class="cls-201" x="584.25" y="123.72" width="2.66" height="16.37"/><rect class="cls-202" x="586.91" y="123.72" width="2.66" height="16.37"/><rect class="cls-203" x="589.57" y="123.72" width="2.66" height="16.37"/><rect class="cls-204" x="592.23" y="123.72" width="2.66" height="16.37"/><rect class="cls-205" x="594.89" y="123.72" width="2.66" height="16.37"/><rect class="cls-206" x="597.56" y="123.72" width="2.66" height="16.37"/><rect class="cls-207" x="600.22" y="123.72" width="2.66" height="16.37"/><rect class="cls-208" x="602.88" y="123.72" width="2.66" height="16.37"/><rect class="cls-209" x="605.54" y="123.72" width="2.66" height="16.37"/><rect class="cls-210" x="608.2" y="123.72" width="2.66" height="16.37"/><rect class="cls-211" x="610.87" y="123.72" width="2.66" height="16.37"/><rect class="cls-212" x="613.53" y="123.72" width="2.66" height="16.37"/><rect class="cls-213" x="616.19" y="123.72" width="2.66" height="16.37"/><rect class="cls-214" x="618.85" y="123.72" width="2.66" height="16.37"/><rect class="cls-215" x="621.51" y="123.72" width="2.66" height="16.37"/><rect class="cls-216" x="624.17" y="123.72" width="2.66" height="16.37"/><rect class="cls-217" x="626.84" y="123.72" width="2.66" height="16.37"/><rect class="cls-218" x="629.5" y="123.72" width="2.66" height="16.37"/><rect class="cls-219" x="632.16" y="123.72" width="2.66" height="16.37"/><rect class="cls-220" x="634.82" y="123.72" width="2.66" height="16.37"/><rect class="cls-221" x="637.48" y="123.72" width="2.66" height="16.37"/><rect class="cls-222" x="640.15" y="123.72" width="2.66" height="16.37"/><rect class="cls-223" x="642.81" y="123.72" width="2.66" height="16.37"/><rect class="cls-224" x="645.47" y="123.72" width="2.66" height="16.37"/><rect class="cls-225" x="648.13" y="123.72" width="2.66" height="16.37"/><rect class="cls-226" x="650.79" y="123.72" width="2.66" height="16.37"/><rect class="cls-227" x="653.46" y="123.72" width="2.66" height="16.37"/><rect class="cls-228" x="656.12" y="123.72" width="2.66" height="16.37"/><rect class="cls-229" x="658.78" y="123.72" width="2.66" height="16.37"/><rect class="cls-230" x="661.44" y="123.72" width="2.66" height="16.37"/><rect class="cls-231" x="664.1" y="123.72" width="2.66" height="16.37"/><rect class="cls-232" x="666.76" y="123.72" width="2.66" height="16.37"/><rect class="cls-233" x="669.43" y="123.72" width="2.66" height="16.37"/><rect class="cls-234" x="672.09" y="123.72" width="2.66" height="16.37"/><path class="cls-234" d="M674.75,140.09v0Z"/></g><path d="M672.48,651.74H486V635.37H616.87C638.6,638.77,657.24,644.28,672.48,651.74Z"/><path d="M486,910.8H630c-18.32,3.89-39.07,5.67-62.09,5.67H486Z"/><rect class="cls-8" x="353.43" y="871.41" width="132.61" height="16.37"/><rect class="cls-6" x="353.43" y="832.01" width="132.61" height="16.37"/><rect class="cls-3" x="353.43" y="792.78" width="132.61" height="16.37"/><rect class="cls-4" x="353.43" y="753.39" width="132.61" height="16.37"/><rect class="cls-5" x="353.43" y="713.99" width="132.61" height="16.37"/><rect class="cls-7" x="353.43" y="674.6" width="132.61" height="16.37"/><rect class="cls-9" x="353.43" y="635.37" width="132.61" height="16.37"/><rect class="cls-21" x="353.43" y="477.79" width="132.61" height="16.54"/><rect class="cls-16" x="353.43" y="438.55" width="132.61" height="16.37"/><rect class="cls-14" x="353.43" y="399.16" width="132.61" height="16.37"/><rect class="cls-13" x="353.43" y="359.76" width="132.61" height="16.37"/><rect class="cls-15" x="353.43" y="320.37" width="132.61" height="16.54"/><rect class="cls-17" x="353.43" y="281.14" width="132.61" height="16.37"/><rect class="cls-20" x="353.43" y="241.74" width="132.61" height="16.37"/><path d="M902.26,794.91,847,790.66c.24-3.15.24-6.73.24-10.52,0-3,0-5.65-.2-7.75l55.15-5.26c.45,4.72.45,9.12.45,13C902.66,784.59,902.66,789.63,902.26,794.91Z"/><path d="M897.77,837.33,843.41,826.7a182,182,0,0,0,2.66-19.85l55.21,4.6A235.89,235.89,0,0,1,897.77,837.33Z"/><path d="M886.86,880.51l-52.32-18.2a180.81,180.81,0,0,0,5.62-20l54.05,12.13A235.74,235.74,0,0,1,886.86,880.51Z"/><path d="M867.85,924l-48.67-26.46a200.69,200.69,0,0,0,9.71-20.25l51.3,20.92A256.86,256.86,0,0,1,867.85,924Z"/><path d="M838.44,967.84l-42.71-35.28a217.73,217.73,0,0,0,15-20.41l46.53,30.06A273.22,273.22,0,0,1,838.44,967.84Z"/><path d="M797.56,1010.28l-36.49-41.69c7.45-6.52,14.29-13.12,20.91-20.17l1.37-1.39,39.27,39.08-.55.55C814.4,994.81,806.15,1002.76,797.56,1010.28Z"/><path d="M724.87,1054.56l-20.48-51.47A189.56,189.56,0,0,0,742,983l31.48,45.58A245.12,245.12,0,0,1,724.87,1054.56Z"/><path d="M554.3,1078.25H325.73v-33h27.7v-22.35H554.3c31.53,0,60.41-1.72,85.83-5.11l7.32,54.91C619.61,1076.37,588.27,1078.25,554.3,1078.25Z"/><rect x="325.73" y="1005.81" width="55.4" height="23.02"/><rect x="325.73" y="966.57" width="55.4" height="22.86"/><rect x="325.73" y="927.18" width="55.4" height="23.02"/><rect x="325.73" y="887.78" width="55.4" height="23.02"/><rect x="325.73" y="848.39" width="55.4" height="23.02"/><rect x="325.73" y="809.16" width="55.4" height="22.86"/><rect x="325.73" y="769.76" width="55.4" height="23.02"/><rect x="325.73" y="730.37" width="55.4" height="23.02"/><rect x="325.73" y="690.97" width="55.4" height="23.02"/><rect x="325.73" y="651.74" width="55.4" height="22.86"/><rect x="325.73" y="612.35" width="55.4" height="23.02"/><rect x="325.73" y="572.95" width="55.4" height="23.02"/><rect x="325.73" y="533.56" width="55.4" height="23.02"/><rect x="325.73" y="494.32" width="55.4" height="22.86"/><rect x="325.73" y="454.93" width="55.4" height="22.86"/><rect x="325.73" y="415.53" width="55.4" height="23.02"/><rect x="325.73" y="376.14" width="55.4" height="23.02"/><rect x="325.73" y="336.91" width="55.4" height="22.86"/><rect x="325.73" y="297.51" width="55.4" height="22.86"/><rect x="325.73" y="258.12" width="55.4" height="23.02"/><rect x="325.73" y="218.72" width="55.4" height="23.02"/><rect x="325.73" y="179.49" width="55.4" height="22.86"/><rect x="325.73" y="140.09" width="55.4" height="22.86"/><path d="M627.33,149.75c-2.9-1.05-5.64-1.92-8.37-2.63l-.46-.12c-32.27-9-77.05-13.57-133.11-13.57h-132v-9.7h-27.7V78H485.4c61.83,0,110.17,5.09,147.78,15.55,4.35,1.14,8.65,2.49,13.12,4.12Z"/><path d="M689.5,184A184,184,0,0,0,661,164.16L688.46,116a239.49,239.49,0,0,1,37,25.87Z"/><path d="M720.36,218.53A229.38,229.38,0,0,0,704,198.12l41-37.27a283.5,283.5,0,0,1,20.3,25.31Z"/><path d="M740.62,253.51a194.37,194.37,0,0,0-10.76-20.16l47-29.26A248.51,248.51,0,0,1,790.77,230Z"/><path d="M755.19,289.53c-1.85-5.81-4.06-11.86-6.76-18.49-.18-.38-.33-.74-.49-1.11,0,.11.14.31.26.54l0-.08,1.86-.76,47.73-23.92c.4.8.72,1.5,1,2.21l.66,1.5c3.39,8.27,6.18,15.91,8.54,23.33Z"/><path d="M764.17,325a202,202,0,0,0-4.57-20.11L813,290.12a255.85,255.85,0,0,1,5.8,25.61Z"/><path d="M768.18,360.94c-.29-6.8-.88-13.71-1.75-20.54l55-7c1.07,8.36,1.79,16.84,2.14,25.18Z"/><path d="M821.93,402.15l-55.07-6a183.64,183.64,0,0,0,1.3-20h55.4A241.29,241.29,0,0,1,821.93,402.15Z"/><path d="M813.11,446.62l-53-16.12A154.52,154.52,0,0,0,764.64,411l54.65,9.1A210,210,0,0,1,813.11,446.62Z"/><path d="M795.93,490.6,746.82,465a147.94,147.94,0,0,0,8.33-19.29l52.22,18.49A202.91,202.91,0,0,1,795.93,490.6Z"/><path d="M767.5,534.54l-43.16-34.72a206.34,206.34,0,0,0,14.31-20.18l47,29.37A261.58,261.58,0,0,1,767.5,534.54Z"/><path d="M742,580.7A184.39,184.39,0,0,0,714.27,568l-40.94-14.83,30.79-30.79c2.57-2.57,5.15-5.14,7.72-7.86l16.25,15.35,5.05-13.94a239.93,239.93,0,0,1,36.12,16.51Z"/><path d="M785.53,614.56a136.21,136.21,0,0,0-21.42-19.13l32.35-45a192.07,192.07,0,0,1,30.13,26.91Z"/><path d="M811.49,648.07l-.24-.39-.74-1.2a181.25,181.25,0,0,0-11.8-16.61l42.92-35A241.83,241.83,0,0,1,857.41,617l.95,1.56a42.88,42.88,0,0,1,3.16,5.92l-47.16,20.21-3.48,2.24A11.93,11.93,0,0,0,811.49,648.07Z"/><path d="M829.9,684.32a178,178,0,0,0-9-19.78L870,638.93a233.08,233.08,0,0,1,11.75,25.94Z"/><path d="M841,720.19a194.81,194.81,0,0,0-5.49-20.12l52.32-18.2A247.88,247.88,0,0,1,895,707.8Z"/><path d="M846,754.54a126.42,126.42,0,0,0-2.27-18.86l54.37-10.63a181.31,181.31,0,0,1,3.25,27.18Z"/><rect x="458.35" y="258.12" width="55.4" height="23.02"/><rect x="458.35" y="297.51" width="55.4" height="22.86"/><rect x="458.35" y="336.91" width="55.4" height="22.86"/><rect x="458.35" y="376.14" width="55.4" height="23.02"/><rect x="458.35" y="415.53" width="55.4" height="23.02"/><rect x="458.35" y="454.93" width="55.4" height="22.86"/><path d="M527.54,539h-69.2V494.32H486V483.65h41.5c29.67,0,53.29-4.61,70.21-13.72L624,518.72C598.57,532.39,567,539,527.54,539Z"/><path d="M650.68,499.95l-26-34.64L616,456.84l.06-.07-.1.09.18-.17a70.26,70.26,0,0,0,11.32-15.13L676,468.29a125,125,0,0,1-20.31,27.21l-.28.28A42.13,42.13,0,0,1,650.68,499.95Zm-34.4-43.37,7.53,7.53-6.36-8.48C617,455.94,616.65,456.24,616.27,456.58Z"/><path d="M685,449l-51.27-21a83.6,83.6,0,0,0,5-17.34l54.56,9.62A140.37,140.37,0,0,1,685,449Z"/><path d="M696.28,402.22l-55.06-6.12a180.82,180.82,0,0,0,1.13-20h55.4A237,237,0,0,1,696.28,402.22Z"/><path d="M642.24,361.43a135.17,135.17,0,0,0-2.25-19l54.28-11.09a188.31,188.31,0,0,1,3.27,26.74Z"/><path d="M636.69,327.7A74.83,74.83,0,0,0,630,311l48.37-27a130.39,130.39,0,0,1,11.77,29Z"/><path d="M621.75,297.92a55.71,55.71,0,0,0-5.79-6.59l-.52-.5a59.63,59.63,0,0,0-11.45-9l28.68-47.4a116,116,0,0,1,21.7,17,110.92,110.92,0,0,1,11.45,12.94Z"/><path d="M572.53,268.65c-11.51-2.81-25-4.24-40-4.24H486V241.74h-27.7V209h74.23c19.42,0,37.29,2,53.1,5.81Z"/><path d="M770.86,795.84l-55.06-6.12a135.35,135.35,0,0,0,.81-15.1c0-.71,0-1.43,0-2.14L771.7,767a73.38,73.38,0,0,1,.3,7.62A190.72,190.72,0,0,1,770.86,795.84Z"/><path d="M715.58,757.3a124.47,124.47,0,0,0-4.1-18.87l53-16.12a179.28,179.28,0,0,1,5.95,27.17Z"/><path d="M706.38,725.33a99.24,99.24,0,0,0-10.52-18l44.67-32.76a154.48,154.48,0,0,1,16.39,28.06Z"/><path d="M683,692.35c-.24-.25-.63-.64-1-1a78.83,78.83,0,0,0-21.45-14.6l23.92-50a135.28,135.28,0,0,1,36.44,25.14l.24.23c1.3,1.31,2.83,2.84,4.4,4.72Z"/><path d="M612.4,662.7c-16.91-2.77-36.84-4.18-59.23-4.18H486V635.37h-27.7V603.13h94.82c25.74,0,48,1.6,68.19,4.9Z"/><rect x="458.35" y="651.74" width="55.4" height="22.86"/><rect x="458.35" y="690.97" width="55.4" height="23.02"/><rect x="458.35" y="730.37" width="55.4" height="23.02"/><rect x="458.35" y="769.76" width="55.4" height="23.02"/><rect x="458.35" y="809.16" width="55.4" height="22.86"/><rect x="458.35" y="848.39" width="55.4" height="23.02"/><rect x="458.35" y="887.78" width="55.4" height="23.02"/><path d="M635.55,937.94l-11.08-54.28c19.52-4,35.63-10.28,47.89-18.71l31.38,45.65C685.32,923.27,662.38,932.46,635.55,937.94Z"/><path d="M726.82,890.77,687.2,852.05a91.48,91.48,0,0,0,13.61-17.71l47.74,28.1A146,146,0,0,1,726.82,890.77Z"/><path d="M758.43,843.27l-50.62-22.5a93,93,0,0,0,5.74-17.67l54.05,12.12A150.29,150.29,0,0,1,758.43,843.27Z"/></g></g></g></svg>