<svg xmlns="http://www.w3.org/2000/svg" viewBox="0 0 1179 1178"><defs><style>.cls-1{fill:#fff;}.cls-2{fill:#0a82fd;}.cls-3{fill:#dee7ec;}</style></defs><title>K</title><g id="Layer_2" data-name="Layer 2"><g id="Layer_1-2" data-name="Layer 1"><rect class="cls-1" width="1179" height="1178"/><path class="cls-2" d="M462.88,574.87v0h-.06S462.85,574.87,462.88,574.87Z"/><path class="cls-2" d="M932.59,594.37c-.35-.09.09-.09,0,0Z"/><path class="cls-2" d="M462.88,574.87v0h-.06S462.85,574.87,462.88,574.87Z"/><path class="cls-2" d="M758.16,573.86l-.35.53-.15-.06C757.83,574.16,758,574,758.16,573.86Z"/><path class="cls-2" d="M932.59,594.37c-.35-.09.09-.09,0,0Z"/><path class="cls-2" d="M462.88,574.87v0h-.06S462.85,574.87,462.88,574.87Z"/><path class="cls-2" d="M1050.6,650.38c-4.29-10.61-1.83-21.19-2.48-31.71-.74-11.79-.65-23.61-.89-35.41.09-34.67-17.91-58.07-47-74-20.51-11.23-43.33-11.59-66.06-11.59q-353.5,0-707,0c-14.28,0-28.49.53-42.56,3.16-34.9,6.53-62.77,33.78-68.77,67.38C106.54,602.91,120.43,642,148.8,662c18.47,13,39.4,18.06,61.24,18.09q370.17.4,740.35,0c14.57,0,28.82-2.33,42.62-9.22,11.85-5.94,24.27-10.34,38.81-.18,8.07,5.67,21,10.08,34.19,6.32C1061.6,667.23,1054.45,659.84,1050.6,650.38ZM462.88,574.9h-.06s0,0,.06,0Zm191.22,7.89c0-.12.09-.21.12-.33a.88.88,0,0,1,.12.24A.77.77,0,0,0,654.1,582.79Zm103.71-8.39-.15-.06c.18-.18.33-.33.5-.47Zm174.79,20c-.35-.09.09-.09,0,0Z"/><path class="cls-3" d="M568.52,579.17l38.27-39.22h19.8l-44.44,44.51,44.7,53.81H607l-35.4-43.74-3.06,3.06v40.69H553.69V539.94h14.84Z"/><path class="cls-3" d="M639.58,631.13a8.85,8.85,0,0,1,17.7.06,8.59,8.59,0,0,1-2.61,6.3,9,9,0,0,1-12.54,0A8.64,8.64,0,0,1,639.58,631.13Z"/></g></g></svg>