<svg xmlns="http://www.w3.org/2000/svg" viewBox="0 0 1179 1178"><defs><style>.cls-1{fill:#3a383d;}.cls-2{fill:#f90680;}.cls-3{fill:#db2388;}.cls-4{fill:#c4338a;}.cls-5{fill:#aa4185;}.cls-6{fill:#91447a;}.cls-7{fill:#77446a;}.cls-8{fill:#593d53;}.cls-9{fill:#fff;stroke:#fff;stroke-linejoin:round;}</style></defs><title>L_1</title><g id="Layer_2" data-name="Layer 2"><g id="Layer_1-2" data-name="Layer 1"><rect class="cls-1" width="1179" height="1178"/><polygon points="565.9 982.43 562.16 982.43 564.03 980.56 565.9 982.43"/><text></text><path class="cls-2" d="M69.55,1112.64V717.16H0V1178h205v-65.36Z"/><path class="cls-3" d="M137.31,1048.78V653.3H67.77v460.84h205v-65.36Z"/><path class="cls-4" d="M205.07,984.92V589.44H135.53v460.84h205V984.92Z"/><path class="cls-5" d="M272.82,921.06V525.59H203.29V986.43h205V921.06Z"/><path class="cls-6" d="M340.58,857.21V461.73H271V922.57h205V857.21Z"/><path class="cls-7" d="M408.34,793.35V397.87H338.8V858.71h205V793.35Z"/><path class="cls-8" d="M476.09,729.49V334H406.56V794.86h205V729.49Z"/><path class="cls-9" d="M543.85,665.64V270.16H474.31V731h205V665.64Z"/></g></g></svg>