<svg xmlns="http://www.w3.org/2000/svg" viewBox="0 0 1184.75 1184.75"><defs><style>.cls-1{fill:#fff;}.cls-2{fill:#d6d6d6;}</style></defs><title>Asset 75</title><g id="Layer_2" data-name="Layer 2"><g id="Layer_1-2" data-name="Layer 1"><rect class="cls-1" width="1184.75" height="1184.75"/><path class="cls-2" d="M621.67,202.46a379.46,379.46,0,1,1-148.19,29.91,378.33,378.33,0,0,1,148.19-29.91m0-23.37c-223.18,0-404.1,180.92-404.1,404.1s180.92,404.1,404.1,404.1,404.1-180.92,404.1-404.1-180.92-404.1-404.1-404.1Z"/><path class="cls-2" d="M267.64,910.54a26.69,26.69,0,1,1-26.69,26.69,26.72,26.72,0,0,1,26.69-26.69m0-23.37a50.06,50.06,0,1,0,50.06,50.06,50.07,50.07,0,0,0-50.06-50.06Z"/></g></g></svg>