<svg xmlns="http://www.w3.org/2000/svg" viewBox="0 0 1179 1178"><defs><style>.cls-1{fill:#85bf82;}.cls-2{fill:#fff;}</style></defs><title>C</title><g id="Layer_2" data-name="Layer 2"><g id="Layer_1-2" data-name="Layer 1"><rect class="cls-1" width="1179" height="1178"/><path class="cls-2" d="M732.31,1009.23c-44.74,0-88.62-16.27-126.89-47l-9.71-7.81,9.72-7.8c27-21.63,50.23-50.17,69.17-84.82,19.33-35.36,33-75.06,40.7-118l1.48-8.25H978.36l-2.11,11.78a418,418,0,0,1-32.46,103.61c-14.76,31.54-33.07,59.42-54.4,82.87-21.7,23.86-45.94,42.47-72,55.3A191.31,191.31,0,0,1,732.31,1009.23ZM627.7,954a195.21,195.21,0,0,0,44.67,24.16,169.08,169.08,0,0,0,60,11.07,171.45,171.45,0,0,0,76.2-18.12c23.83-11.72,46.06-28.82,66.06-50.81s37.16-48.17,51.08-77.89a393.9,393.9,0,0,0,28.61-86.87H733.46c-8.3,41.93-22.17,80.86-41.29,115.84C674.25,904.14,652.6,931.87,627.7,954Z"/><path class="cls-2" d="M982.19,543.4H720.83l-.93-9c-5.07-49.13-18.42-96.74-38.62-137.68-19.67-39.88-45.9-73.66-75.85-97.68l-9.72-7.8,9.71-7.81c38.27-30.78,82.15-47,126.89-47,31.37,0,62,7.8,90.93,23.2,27.74,14.74,53.14,36,75.49,63.1,44.75,54.29,74,128.76,82.32,209.68Zm-243.39-20H959.86c-9.35-72.73-36.34-139.13-76.58-188-20.68-25.09-44-44.65-69.44-58.15-26-13.84-53.47-20.85-81.53-20.85a169.08,169.08,0,0,0-60,11.07,195.24,195.24,0,0,0-44.67,24.17c28.14,25,52.73,58.07,71.55,96.22C719.24,428.42,732.85,475.09,738.8,523.37Z"/><path class="cls-2" d="M448.06,967.64c-34.37,0-67.67-9.32-99-27.69-29.93-17.57-56.76-42.65-79.73-74.53-22.8-31.64-40.68-68.44-53.16-109.36a467.44,467.44,0,0,1,0-266.49c12.47-40.92,30.36-77.72,53.16-109.36,23-31.89,49.8-57,79.73-74.53,31.3-18.37,64.59-27.69,99-27.69,44.74,0,88.62,16.27,126.89,47l9.71,7.81-9.72,7.8C540.21,368.5,511,408.72,490.53,457c-21.24,50-32.47,107.36-32.47,165.86s11.23,115.85,32.47,165.86C511,836.9,540.21,877.12,574.94,905l9.72,7.8-9.71,7.81C536.68,951.37,492.8,967.64,448.06,967.64Zm0-669.64c-127.5,0-231.22,145.71-231.22,324.81S320.56,947.62,448.06,947.62a169.08,169.08,0,0,0,60-11.07,195.23,195.23,0,0,0,44.67-24.17C519.67,883,492,843.24,472.1,796.5,449.82,744,438,684,438,622.81s11.78-121.23,34.06-173.69c19.85-46.74,47.56-86.54,80.57-115.88A195.23,195.23,0,0,0,508,309.08,169.08,169.08,0,0,0,448.06,298Z"/></g></g></svg>