<svg xmlns="http://www.w3.org/2000/svg" viewBox="0 0 1179 1178"><defs><style>.cls-1{fill:#435aaf;}.cls-2{opacity:0.99;}.cls-3{fill:#31457c;}.cls-4{fill:#edd977;}</style></defs><title>D</title><g id="Layer_2" data-name="Layer 2"><g id="Layer_1-2" data-name="Layer 1"><rect class="cls-1" width="1179" height="1178"/><g class="cls-2"><path class="cls-3" d="M241.67,1012V270.66H397.24q111.87,0,176.69,22.09,69.61,21.61,126.27,73.46Q815,470.89,815,641.33q0,170.94-119.56,276.56-60,52.82-125.79,73.46Q508.14,1012,395.32,1012ZM353.54,906.85H404q75.38,0,125.32-15.84a254.31,254.31,0,0,0,90.26-53.3q82.58-75.37,82.59-196.38,0-122-81.63-197.82Q547,375.81,404,375.81H353.54Z"/></g><g class="cls-2"><g id="_Group_" data-name="&lt;Group&gt;"><path class="cls-4" d="M756.67,309.72Q871.48,414.36,871.48,584.87q0,170.94-119.61,276.57-59.95,52.74-125.75,73.43-61.53,20.65-174.33,20.62H298.15V214.19H453.69q111.95,0,176.73,22.1Q700,257.89,756.67,309.72Zm2,275.16q0-122-81.62-197.84-73.5-67.68-216.55-67.71H410.06v531h50.41q75.3,0,125.33-15.82Q635.68,817.7,676,781.23,758.65,705.82,758.65,584.87Z"/><path class="cls-4" d="M677,387q81.55,75.83,81.62,197.84,0,121-82.61,196.36-40.35,36.43-90.24,53.31-50,15.78-125.33,15.82H410.06v-531h50.41Q603.56,319.32,677,387Z"/></g></g><g id="_Group_2" data-name="&lt;Group&gt;"><path d="M508.27,908.37h-163v-760H510.18c75.36,0,135.84,7.6,179.76,22.6,47.21,14.65,90.87,40,129.54,75.38,78.2,71.27,117.85,166.18,117.85,282.07C937.33,644.55,896,740,814.55,812c-40.8,35.9-84.25,61.25-129.15,75.35C643.86,901.27,584.2,908.37,508.27,908.37ZM364,889.64H508.27c73.9,0,131.55-6.77,171.34-20.13,42.56-13.37,83.73-37.43,122.55-71.58,77.25-68.29,116.43-159,116.43-269.54,0-110.4-37.6-200.65-111.75-268.24-36.62-33.48-77.91-57.5-122.71-71.41-42.22-14.41-100.66-21.68-174-21.68H364Z"/></g><rect x="400.81" y="154.38" width="21.18" height="741.38"/><rect x="457.29" y="154.38" width="21.18" height="741.38"/><rect x="513.78" y="154.38" width="21.18" height="741.38"/><rect x="570.27" y="154.38" width="21.18" height="741.38"/><rect x="626.75" y="161.44" width="21.18" height="727.26"/><rect x="683.24" y="175.56" width="21.18" height="699.01"/><rect x="739.72" y="203.81" width="21.18" height="642.53"/><rect x="796.21" y="246.17" width="21.18" height="557.8"/><rect x="852.7" y="309.72" width="21.18" height="430.71"/></g></g></svg>