<svg xmlns="http://www.w3.org/2000/svg" viewBox="0 0 1179 1178"><defs><style>.cls-1{fill:#5e88e5;}.cls-2{fill:#537bc1;}.cls-3{fill:#0071bc;}.cls-4{fill:#ea5975;}.cls-5{fill:#edd977;}.cls-6{fill:#fbb03b;}.cls-7{fill:#85bf82;}.cls-8{fill:#fff;}.cls-9{fill:#6b9367;}.cls-10{fill:#bc4b66;}.cls-11{fill:#cc8a33;}.cls-12{fill:#035c8e;}.cls-13{fill:#c1b065;}</style></defs><title>E</title><g id="Layer_2" data-name="Layer 2"><g id="Layer_1-2" data-name="Layer 1"><rect class="cls-1" width="1179" height="1178"/><rect class="cls-2" x="140.83" y="103.21" width="897.34" height="971.57"/><rect class="cls-2" x="141.85" y="103.73" width="897.34" height="971.57"/><polygon class="cls-3" points="814.44 788.72 814.44 818.43 766.63 818.43 766.63 790.15 766.63 788.72 814.44 788.72"/><rect class="cls-4" x="766.63" y="728.51" width="46.76" height="29.72"/><rect class="cls-5" x="766.63" y="668.31" width="45.72" height="29.72"/><rect class="cls-6" x="766.63" y="608.11" width="44.68" height="29.72"/><rect class="cls-7" x="780.54" y="547.91" width="29.75" height="29.72"/><polygon class="cls-3" points="809.24 487.71 809.24 517.42 780.54 517.42 780.54 502.26 766.95 502.26 766.95 502.75 766.63 502.75 766.63 487.71 809.24 487.71"/><rect class="cls-4" x="766.63" y="427.51" width="41.57" height="29.72"/><rect class="cls-5" x="766.63" y="367.3" width="40.53" height="29.72"/><polygon class="cls-8" points="788.81 854.43 788.81 959.22 766.63 959.22 736.93 959.22 697.33 959.22 697.33 854.43 736.93 854.43 766.63 854.43 788.81 854.43"/><polygon class="cls-8" points="788.81 220.43 788.81 325.22 766.63 325.22 736.93 325.22 697.33 325.22 697.33 220.43 736.93 220.43 766.63 220.43 788.81 220.43"/><polygon class="cls-8" points="780.54 577.63 780.54 607.96 766.95 607.96 766.95 607.54 780.21 607.54 780.21 577.63 780.54 577.63"/><rect class="cls-7" x="780.21" y="547.91" width="0.33" height="29.72"/><rect class="cls-8" x="780.21" y="517.42" width="0.33" height="30.49"/><polygon class="cls-3" points="780.54 502.26 780.54 517.42 780.21 517.42 780.21 502.75 766.95 502.75 766.95 502.26 780.54 502.26"/><rect class="cls-8" x="766.95" y="577.63" width="13.26" height="29.91"/><rect class="cls-7" x="766.95" y="547.91" width="13.26" height="29.72"/><rect class="cls-8" x="766.95" y="517.42" width="13.26" height="30.49"/><rect class="cls-3" x="766.95" y="502.75" width="13.26" height="14.68"/><rect class="cls-8" x="766.63" y="577.63" width="0.32" height="29.91"/><rect class="cls-7" x="766.63" y="547.91" width="0.32" height="29.72"/><rect class="cls-8" x="766.63" y="517.42" width="0.32" height="30.49"/><rect class="cls-3" x="766.63" y="502.75" width="0.32" height="14.68"/><rect class="cls-9" x="736.93" y="959.22" width="29.7" height="117.25"/><rect class="cls-7" x="736.93" y="854.38" width="29.7" height="0.05"/><rect class="cls-7" x="736.93" y="818.43" width="29.7" height="35.95"/><rect class="cls-3" x="736.93" y="790.15" width="29.7" height="28.28"/><rect class="cls-7" x="736.93" y="788.72" width="29.7" height="1.43"/><rect class="cls-7" x="736.93" y="758.23" width="29.7" height="30.49"/><rect class="cls-7" x="736.93" y="728.51" width="29.7" height="29.72"/><rect class="cls-7" x="736.93" y="698.03" width="29.7" height="30.49"/><rect class="cls-5" x="736.93" y="668.31" width="29.7" height="29.72"/><rect class="cls-7" x="736.93" y="637.83" width="29.7" height="30.49"/><rect class="cls-7" x="736.93" y="608.11" width="29.7" height="29.72"/><rect class="cls-7" x="736.93" y="607.54" width="29.7" height="0.57"/><rect class="cls-7" x="736.93" y="577.63" width="29.7" height="29.91"/><rect class="cls-7" x="736.93" y="547.91" width="29.7" height="29.72"/><rect class="cls-7" x="736.93" y="517.42" width="29.7" height="30.49"/><rect class="cls-7" x="736.93" y="502.75" width="29.7" height="14.68"/><rect class="cls-7" x="736.93" y="487.71" width="29.7" height="15.04"/><rect class="cls-7" x="736.93" y="457.22" width="29.7" height="30.49"/><rect class="cls-4" x="736.93" y="427.51" width="29.7" height="29.72"/><rect class="cls-7" x="736.93" y="397.02" width="29.7" height="30.49"/><rect class="cls-5" x="736.93" y="367.3" width="29.7" height="29.72"/><rect class="cls-7" x="736.93" y="325.22" width="29.7" height="42.08"/><rect class="cls-9" x="736.93" y="220.36" width="29.7" height="0.08"/><rect class="cls-7" x="736.93" y="203.29" width="29.7" height="17.06"/><rect class="cls-7" x="736.93" y="105.65" width="29.7" height="97.65"/><polygon class="cls-3" points="736.93 790.15 736.93 818.43 697.33 818.43 697.33 788.72 736.93 788.72 736.93 790.15"/><rect class="cls-4" x="697.33" y="728.51" width="39.61" height="29.72"/><rect class="cls-5" x="697.33" y="668.31" width="39.61" height="29.72"/><rect class="cls-6" x="697.33" y="608.11" width="39.61" height="29.72"/><rect class="cls-8" x="647.81" y="577.63" width="89.12" height="29.91"/><rect class="cls-7" x="647.81" y="547.91" width="89.12" height="29.72"/><rect class="cls-8" x="647.81" y="517.42" width="89.12" height="30.49"/><polygon class="cls-3" points="736.93 502.75 736.93 517.42 647.81 517.42 647.81 502.75 667.63 502.75 697.33 502.75 736.93 502.75"/><rect class="cls-3" x="697.33" y="487.71" width="39.61" height="15.04"/><rect class="cls-4" x="697.33" y="427.51" width="39.61" height="29.72"/><rect class="cls-5" x="697.33" y="367.3" width="39.61" height="29.72"/><rect class="cls-3" x="667.63" y="959.22" width="29.7" height="117.47"/><rect class="cls-3" x="667.63" y="854.43" width="29.7" height="104.79"/><rect class="cls-3" x="667.63" y="818.43" width="29.7" height="36"/><rect class="cls-3" x="667.63" y="788.72" width="29.7" height="29.72"/><rect class="cls-3" x="667.63" y="758.23" width="29.7" height="30.49"/><rect class="cls-3" x="667.63" y="728.51" width="29.7" height="29.72"/><rect class="cls-3" x="667.63" y="698.03" width="29.7" height="30.49"/><rect class="cls-5" x="667.63" y="668.31" width="29.7" height="29.72"/><rect class="cls-3" x="667.63" y="637.83" width="29.7" height="30.49"/><rect class="cls-6" x="667.63" y="608.11" width="29.7" height="29.72"/><rect class="cls-3" x="667.63" y="487.71" width="29.7" height="15.04"/><rect class="cls-3" x="667.63" y="457.22" width="29.7" height="30.49"/><rect class="cls-3" x="667.63" y="427.51" width="29.7" height="29.72"/><rect class="cls-3" x="667.63" y="397.02" width="29.7" height="30.49"/><rect class="cls-5" x="667.63" y="367.3" width="29.7" height="29.72"/><rect class="cls-3" x="667.63" y="325.22" width="29.7" height="42.08"/><rect class="cls-3" x="667.63" y="220.43" width="29.7" height="104.79"/><rect class="cls-3" x="667.63" y="103.98" width="29.7" height="116.45"/><polygon class="cls-8" points="667.63 854.43 667.63 959.22 647.81 959.22 618.11 959.22 608.22 959.22 608.22 854.43 618.11 854.43 647.81 854.43 667.63 854.43"/><polygon class="cls-3" points="667.63 788.72 667.63 818.43 647.81 818.43 647.81 790.47 647.81 788.72 667.63 788.72"/><rect class="cls-4" x="647.81" y="728.51" width="19.81" height="29.72"/><rect class="cls-5" x="647.81" y="668.31" width="19.81" height="29.72"/><rect class="cls-6" x="647.81" y="608.11" width="19.81" height="29.72"/><rect class="cls-3" x="647.81" y="487.71" width="19.81" height="15.04"/><rect class="cls-4" x="647.81" y="427.51" width="19.81" height="29.72"/><rect class="cls-5" x="647.81" y="367.3" width="19.81" height="29.72"/><polygon class="cls-8" points="667.63 220.43 667.63 325.22 647.81 325.22 618.11 325.22 608.22 325.22 608.22 220.43 618.11 220.43 647.81 220.43 667.63 220.43"/><rect class="cls-10" x="618.11" y="959.22" width="29.7" height="117.25"/><rect class="cls-10" x="618.11" y="818.43" width="29.7" height="35.95"/><rect class="cls-3" x="618.11" y="790.47" width="29.7" height="27.96"/><rect class="cls-4" x="618.11" y="577.63" width="29.7" height="29.91"/><rect class="cls-7" x="618.11" y="547.91" width="29.7" height="29.72"/><rect class="cls-4" x="618.11" y="517.42" width="29.7" height="30.49"/><rect class="cls-3" x="618.11" y="502.75" width="29.7" height="14.68"/><rect class="cls-4" x="618.11" y="854.38" width="29.7" height="0.05"/><rect class="cls-3" x="618.11" y="788.72" width="29.7" height="1.75"/><rect class="cls-4" x="618.11" y="758.23" width="29.7" height="30.49"/><rect class="cls-4" x="618.11" y="728.51" width="29.7" height="29.72"/><rect class="cls-4" x="618.11" y="698.03" width="29.7" height="30.49"/><rect class="cls-5" x="618.11" y="668.31" width="29.7" height="29.72"/><rect class="cls-4" x="618.11" y="637.83" width="29.7" height="30.49"/><rect class="cls-4" x="618.11" y="608.11" width="29.7" height="29.72"/><rect class="cls-4" x="618.11" y="607.54" width="29.7" height="0.57"/><rect class="cls-3" x="618.11" y="487.71" width="29.7" height="15.04"/><rect class="cls-4" x="618.11" y="457.22" width="29.7" height="30.49"/><rect class="cls-4" x="618.11" y="427.51" width="29.7" height="29.72"/><rect class="cls-4" x="618.11" y="397.02" width="29.7" height="30.49"/><rect class="cls-4" x="618.11" y="367.3" width="29.7" height="29.72"/><rect class="cls-4" x="618.11" y="325.22" width="29.7" height="42.08"/><rect class="cls-10" x="618.11" y="220.36" width="29.7" height="0.08"/><rect class="cls-4" x="618.11" y="203.29" width="29.7" height="17.06"/><rect class="cls-4" x="618.11" y="104.69" width="29.7" height="98.6"/><polygon class="cls-3" points="618.11 790.47 618.11 818.43 608.22 818.43 608.22 788.72 618.11 788.72 618.11 790.47"/><rect class="cls-8" x="531.19" y="577.63" width="86.93" height="29.91"/><rect class="cls-7" x="531.19" y="547.91" width="86.93" height="29.72"/><rect class="cls-8" x="531.19" y="517.42" width="86.93" height="30.49"/><polygon class="cls-3" points="618.11 502.75 618.11 517.42 531.19 517.42 531.19 502.75 578.51 502.75 608.22 502.75 618.11 502.75"/><rect class="cls-4" x="608.22" y="728.51" width="9.89" height="29.72"/><rect class="cls-5" x="608.22" y="668.31" width="9.89" height="29.72"/><rect class="cls-6" x="608.22" y="608.11" width="9.89" height="29.72"/><rect class="cls-3" x="608.22" y="487.71" width="9.89" height="15.04"/><rect class="cls-4" x="608.22" y="427.51" width="9.89" height="29.72"/><rect class="cls-5" x="608.22" y="367.3" width="9.89" height="29.72"/><rect class="cls-5" x="578.51" y="959.22" width="29.72" height="117.47"/><rect class="cls-5" x="578.51" y="854.43" width="29.72" height="104.79"/><rect class="cls-5" x="578.51" y="818.43" width="29.72" height="36"/><rect class="cls-5" x="578.51" y="788.72" width="29.72" height="29.72"/><rect class="cls-5" x="578.51" y="758.23" width="29.72" height="30.49"/><rect class="cls-4" x="578.51" y="728.51" width="29.72" height="29.72"/><rect class="cls-5" x="578.51" y="698.03" width="29.72" height="30.49"/><rect class="cls-5" x="578.51" y="668.31" width="29.72" height="29.72"/><rect class="cls-5" x="578.51" y="637.83" width="29.72" height="30.49"/><rect class="cls-6" x="578.51" y="608.11" width="29.72" height="29.72"/><rect class="cls-3" x="578.51" y="487.71" width="29.72" height="15.04"/><rect class="cls-5" x="578.51" y="457.22" width="29.72" height="30.49"/><rect class="cls-4" x="578.51" y="427.51" width="29.72" height="29.72"/><rect class="cls-5" x="578.51" y="397.02" width="29.72" height="30.49"/><rect class="cls-5" x="578.51" y="367.3" width="29.72" height="29.72"/><rect class="cls-5" x="578.51" y="325.22" width="29.72" height="42.08"/><rect class="cls-5" x="578.51" y="220.43" width="29.72" height="104.79"/><rect class="cls-5" x="578.51" y="104.69" width="29.72" height="115.74"/><polygon class="cls-8" points="578.51 854.43 578.51 959.22 531.19 959.22 501.49 959.22 469.61 959.22 469.61 818.43 492.62 818.43 492.62 854.43 501.49 854.43 531.19 854.43 578.51 854.43"/><rect class="cls-3" x="531.19" y="788.72" width="47.32" height="29.72"/><rect class="cls-4" x="531.19" y="728.51" width="47.32" height="29.72"/><rect class="cls-5" x="531.19" y="668.31" width="47.32" height="29.72"/><rect class="cls-6" x="531.19" y="608.11" width="47.32" height="29.72"/><rect class="cls-3" x="531.19" y="487.71" width="47.32" height="15.04"/><rect class="cls-4" x="531.19" y="427.51" width="47.32" height="29.72"/><rect class="cls-5" x="531.19" y="367.3" width="47.32" height="29.72"/><rect class="cls-8" x="531.19" y="220.43" width="47.32" height="104.79"/><rect class="cls-11" x="501.49" y="959.22" width="29.7" height="117.25"/><rect class="cls-6" x="501.49" y="818.43" width="29.7" height="36"/><rect class="cls-3" x="501.49" y="788.72" width="29.7" height="29.72"/><rect class="cls-6" x="501.49" y="758.23" width="29.7" height="30.49"/><rect class="cls-6" x="501.49" y="728.51" width="29.7" height="29.72"/><rect class="cls-6" x="501.49" y="698.03" width="29.7" height="30.49"/><rect class="cls-5" x="501.49" y="668.31" width="29.7" height="29.72"/><rect class="cls-6" x="501.49" y="637.83" width="29.7" height="30.49"/><rect class="cls-6" x="501.49" y="608.11" width="29.7" height="29.72"/><polygon class="cls-6" points="531.19 607.54 531.19 608.11 501.49 608.11 501.49 607.54 519.11 607.54 531.19 607.54"/><rect class="cls-6" x="519.11" y="577.63" width="12.08" height="29.91"/><rect class="cls-6" x="519.11" y="547.91" width="12.08" height="29.72"/><rect class="cls-6" x="519.11" y="517.42" width="12.08" height="30.49"/><rect class="cls-3" x="519.11" y="502.75" width="12.08" height="14.68"/><polygon class="cls-3" points="531.19 487.71 531.19 502.75 519.11 502.75 501.49 502.75 501.49 487.71 531.19 487.71"/><rect class="cls-6" x="501.49" y="457.22" width="29.7" height="30.49"/><rect class="cls-6" x="501.49" y="427.51" width="29.7" height="29.72"/><rect class="cls-6" x="501.49" y="397.02" width="29.7" height="30.49"/><rect class="cls-5" x="501.49" y="367.3" width="29.7" height="29.72"/><rect class="cls-6" x="501.49" y="325.22" width="29.7" height="42.08"/><polygon class="cls-8" points="531.19 220.43 531.19 325.22 501.49 325.22 492.62 325.22 492.62 367.31 469.61 367.31 469.61 220.43 501.49 220.43 531.19 220.43"/><rect class="cls-11" x="501.49" y="220.36" width="29.7" height="0.08"/><rect class="cls-6" x="501.49" y="203.29" width="29.7" height="17.06"/><rect class="cls-6" x="501.49" y="104.69" width="29.7" height="98.6"/><rect class="cls-6" x="501.49" y="577.63" width="17.62" height="29.91"/><rect class="cls-6" x="501.49" y="547.91" width="17.62" height="29.72"/><rect class="cls-6" x="501.49" y="517.42" width="17.62" height="30.49"/><rect class="cls-3" x="501.49" y="502.75" width="17.62" height="14.68"/><polygon class="cls-8" points="501.49 577.63 501.49 607.54 492.62 607.54 492.62 608.11 469.61 608.11 469.61 577.63 501.49 577.63"/><rect class="cls-7" x="469.61" y="547.91" width="31.88" height="29.72"/><rect class="cls-8" x="469.61" y="517.42" width="31.88" height="30.49"/><polygon class="cls-3" points="501.49 502.75 501.49 517.42 469.61 517.42 469.61 487.71 492.62 487.71 492.62 502.75 501.49 502.75"/><rect class="cls-3" x="492.62" y="788.72" width="8.86" height="29.72"/><rect class="cls-4" x="492.62" y="728.51" width="8.86" height="29.72"/><rect class="cls-5" x="492.62" y="668.31" width="8.86" height="29.72"/><rect class="cls-6" x="492.62" y="608.11" width="8.86" height="29.72"/><rect class="cls-3" x="492.62" y="487.71" width="8.86" height="15.04"/><rect class="cls-4" x="492.62" y="427.51" width="8.86" height="29.72"/><rect class="cls-5" x="492.62" y="367.3" width="8.86" height="29.72"/><rect class="cls-3" x="469.61" y="788.72" width="23.01" height="29.72"/><rect class="cls-8" x="469.61" y="758.23" width="23.01" height="30.49"/><rect class="cls-4" x="469.61" y="728.51" width="23.01" height="29.72"/><rect class="cls-8" x="469.61" y="698.03" width="23.01" height="30.49"/><rect class="cls-5" x="469.61" y="668.31" width="23.01" height="29.72"/><rect class="cls-8" x="469.61" y="637.83" width="23.01" height="30.49"/><rect class="cls-6" x="469.61" y="608.11" width="23.01" height="29.72"/><rect class="cls-8" x="469.61" y="457.22" width="23.01" height="30.49"/><rect class="cls-4" x="469.61" y="427.51" width="23.01" height="29.72"/><rect class="cls-8" x="469.61" y="397.02" width="23.01" height="30.49"/><rect class="cls-5" x="469.61" y="367.3" width="23.01" height="29.72"/><rect class="cls-8" x="465.62" y="818.43" width="3.99" height="140.79"/><rect class="cls-3" x="465.62" y="788.72" width="3.99" height="29.72"/><rect class="cls-8" x="465.62" y="758.23" width="3.99" height="30.49"/><rect class="cls-4" x="465.62" y="728.51" width="3.99" height="29.72"/><rect class="cls-8" x="465.62" y="698.03" width="3.99" height="30.49"/><rect class="cls-5" x="465.62" y="668.31" width="3.99" height="29.72"/><rect class="cls-8" x="465.62" y="637.83" width="3.99" height="30.49"/><rect class="cls-6" x="465.62" y="608.11" width="3.99" height="29.72"/><rect class="cls-8" x="465.62" y="577.63" width="3.99" height="30.49"/><rect class="cls-7" x="465.62" y="547.91" width="3.99" height="29.72"/><rect class="cls-8" x="465.62" y="517.42" width="3.99" height="30.49"/><rect class="cls-3" x="465.62" y="487.71" width="3.99" height="29.72"/><rect class="cls-8" x="465.62" y="457.22" width="3.99" height="30.49"/><rect class="cls-4" x="465.62" y="427.51" width="3.99" height="29.72"/><rect class="cls-8" x="465.62" y="397.02" width="3.99" height="30.49"/><rect class="cls-5" x="465.62" y="367.3" width="3.99" height="29.72"/><rect class="cls-8" x="465.62" y="220.43" width="3.99" height="146.87"/><rect class="cls-7" x="435.92" y="959.22" width="29.7" height="115.59"/><rect class="cls-7" x="435.92" y="818.43" width="29.7" height="140.79"/><rect class="cls-7" x="435.92" y="788.72" width="29.7" height="29.72"/><rect class="cls-7" x="435.92" y="758.23" width="29.7" height="30.49"/><rect class="cls-7" x="435.92" y="728.51" width="29.7" height="29.72"/><rect class="cls-7" x="435.92" y="698.03" width="29.7" height="30.49"/><rect class="cls-5" x="435.92" y="668.31" width="29.7" height="29.72"/><rect class="cls-7" x="435.92" y="637.83" width="29.7" height="30.49"/><rect class="cls-7" x="435.92" y="608.11" width="29.7" height="29.72"/><rect class="cls-7" x="435.92" y="577.63" width="29.7" height="30.49"/><rect class="cls-7" x="435.92" y="547.91" width="29.7" height="29.72"/><rect class="cls-7" x="435.92" y="517.42" width="29.7" height="30.49"/><rect class="cls-7" x="435.92" y="487.71" width="29.7" height="29.72"/><rect class="cls-7" x="435.92" y="457.22" width="29.7" height="30.49"/><rect class="cls-4" x="435.92" y="427.51" width="29.7" height="29.72"/><rect class="cls-7" x="435.92" y="397.02" width="29.7" height="30.49"/><rect class="cls-5" x="435.92" y="367.3" width="29.7" height="29.72"/><rect class="cls-7" x="435.92" y="220.43" width="29.7" height="146.87"/><rect class="cls-7" x="435.92" y="104.45" width="29.7" height="115.98"/><rect class="cls-8" x="381.14" y="818.43" width="54.78" height="140.79"/><rect class="cls-3" x="381.14" y="788.72" width="54.78" height="29.72"/><rect class="cls-8" x="381.14" y="758.23" width="54.78" height="30.49"/><rect class="cls-4" x="381.14" y="728.51" width="54.78" height="29.72"/><rect class="cls-8" x="381.14" y="698.03" width="54.78" height="30.49"/><rect class="cls-5" x="381.14" y="668.31" width="54.78" height="29.72"/><rect class="cls-8" x="381.14" y="637.83" width="54.78" height="30.49"/><rect class="cls-6" x="381.14" y="608.11" width="54.78" height="29.72"/><rect class="cls-8" x="381.14" y="577.63" width="54.78" height="30.49"/><rect class="cls-7" x="381.14" y="547.91" width="54.78" height="29.72"/><rect class="cls-8" x="381.14" y="517.42" width="54.78" height="30.49"/><rect class="cls-3" x="381.14" y="487.71" width="54.78" height="29.72"/><rect class="cls-8" x="381.14" y="457.22" width="54.78" height="30.49"/><rect class="cls-4" x="381.14" y="427.51" width="54.78" height="29.72"/><rect class="cls-8" x="381.14" y="397.02" width="54.78" height="30.49"/><rect class="cls-5" x="381.14" y="367.3" width="54.78" height="29.72"/><rect class="cls-8" x="381.14" y="220.43" width="54.78" height="146.87"/><rect class="cls-3" x="352.88" y="788.72" width="28.27" height="29.72"/><rect class="cls-4" x="351.85" y="728.51" width="29.29" height="29.72"/><rect class="cls-5" x="350.81" y="668.31" width="30.33" height="29.72"/><rect class="cls-6" x="349.77" y="608.11" width="31.38" height="29.72"/><rect class="cls-7" x="348.72" y="547.91" width="32.42" height="29.72"/><rect class="cls-3" x="347.7" y="487.71" width="33.45" height="29.72"/><rect class="cls-4" x="346.66" y="427.51" width="34.49" height="29.72"/><rect class="cls-5" x="345.61" y="367.3" width="35.53" height="29.72"/><rect class="cls-10" x="618.11" y="457.38" width="29.7" height="15.64"/><rect class="cls-10" x="618.11" y="325.36" width="29.7" height="15.64"/><rect class="cls-12" x="667.65" y="397.17" width="29.7" height="15.64"/><rect class="cls-13" x="578.53" y="457.14" width="29.7" height="15.88"/><rect class="cls-13" x="578.53" y="397.17" width="29.7" height="15.88"/><rect class="cls-11" x="501.5" y="397.17" width="29.7" height="15.88"/><rect class="cls-10" x="531.17" y="427.47" width="15.88" height="29.7"/><rect class="cls-10" x="697.31" y="427.47" width="15.88" height="29.7"/><rect class="cls-9" x="531.17" y="548.12" width="15.88" height="29.7"/><rect class="cls-9" x="766.76" y="547.88" width="15.88" height="29.7"/><rect class="cls-13" x="647.78" y="367.27" width="15.88" height="29.7"/><rect class="cls-10" x="531.17" y="728.49" width="15.88" height="29.7"/><rect class="cls-12" x="608.2" y="788.69" width="15.88" height="29.7"/><rect class="cls-12" x="465.51" y="487.68" width="15.88" height="29.7"/><rect class="cls-10" x="697.31" y="728.49" width="15.88" height="29.7"/><rect class="cls-11" x="647.78" y="608.08" width="15.88" height="29.7"/><rect class="cls-11" x="465.75" y="608.08" width="15.88" height="29.7"/><rect class="cls-10" x="766.76" y="728.49" width="15.88" height="29.7"/><rect class="cls-11" x="501.5" y="325.59" width="29.7" height="15.88"/><rect class="cls-10" x="618.11" y="517.81" width="29.7" height="15.64"/><rect class="cls-11" x="501.5" y="517.58" width="29.7" height="15.88"/><rect class="cls-10" x="618.11" y="578.25" width="29.7" height="15.64"/><rect class="cls-12" x="667.65" y="638.46" width="29.7" height="15.64"/><rect class="cls-13" x="578.53" y="638.46" width="29.7" height="15.88"/><rect class="cls-11" x="501.5" y="638.46" width="29.7" height="15.88"/><rect class="cls-10" x="618.11" y="698.18" width="29.7" height="15.64"/><rect class="cls-12" x="667.65" y="698.18" width="29.7" height="15.64"/><rect class="cls-13" x="578.53" y="698.18" width="29.7" height="15.88"/><rect class="cls-11" x="501.5" y="698.18" width="29.7" height="15.88"/><rect class="cls-9" x="736.86" y="698.18" width="29.7" height="15.88"/><rect class="cls-9" x="435.85" y="577.78" width="29.7" height="15.88"/><rect class="cls-9" x="435.85" y="697.95" width="29.7" height="15.88"/><rect class="cls-10" x="618.11" y="758.39" width="29.7" height="15.64"/><rect class="cls-13" x="578.53" y="758.39" width="29.7" height="15.88"/><rect class="cls-12" x="667.65" y="818.59" width="29.7" height="15.64"/><rect class="cls-11" x="501.5" y="818.59" width="29.7" height="15.88"/><rect class="cls-9" x="736.86" y="818.35" width="29.7" height="15.88"/><rect class="cls-9" x="736.86" y="397.41" width="29.7" height="15.88"/><rect class="cls-9" x="736.86" y="457.38" width="29.7" height="15.88"/><rect class="cls-9" x="736.86" y="325.12" width="29.7" height="15.88"/><rect class="cls-9" x="435.85" y="457.14" width="29.7" height="15.88"/><rect class="cls-9" x="435.85" y="396.94" width="29.7" height="15.88"/><rect class="cls-13" x="578.53" y="637.74" width="29.7" height="15.88"/><rect class="cls-12" x="667.65" y="637.74" width="29.7" height="15.88"/><rect class="cls-4" x="618.11" y="834.23" width="29.7" height="20.15"/></g></g></svg>