<svg xmlns="http://www.w3.org/2000/svg" viewBox="0 0 1179 1178"><defs><style>.cls-1{fill:#fff;}.cls-2{fill:#d6d6d6;}.cls-3{fill:#4c4c4c;}.cls-4{fill:#85bf82;}.cls-5{fill:#c9b769;}.cls-6{fill:#edd977;}.cls-7{fill:#0071bc;}.cls-8{fill:#ea5975;}.cls-9{fill:#b54863;}.cls-10{fill:#1e1e1e;}.cls-11{fill:#b7b7b7;}</style></defs><title>F</title><g id="Layer_2" data-name="Layer 2"><g id="Layer_1-2" data-name="Layer 1"><rect class="cls-1" width="1179" height="1178"/><g id="_Group_" data-name="&lt;Group&gt;"><rect class="cls-2" x="706.38" y="286.26" width="133.27" height="0.42"/><path class="cls-2" d="M839.65,255.65v30.6H706.38v-6.42A44.36,44.36,0,0,0,741,255.65Z"/><path class="cls-3" d="M839.65,164.6v91.05H741a44.35,44.35,0,1,0-79.3,0H523.55l-31,30.6h-.24V164.6Zm-42.82,30.54A12.89,12.89,0,1,0,783.94,208,12.89,12.89,0,0,0,796.83,195.14Zm-182.2-8.08a9.18,9.18,0,1,0-9.18,9.18A9.17,9.17,0,0,0,614.62,187.05ZM575.3,217.64a18.79,18.79,0,1,0-18.79,18.79A18.79,18.79,0,0,0,575.3,217.64Z"/><circle class="cls-4" cx="783.94" cy="195.14" r="12.89"/><path class="cls-5" d="M745.7,235.77a44.13,44.13,0,0,1-4.7,19.88H661.7a44.35,44.35,0,1,1,84-19.88Z"/><path class="cls-2" d="M706.38,255.65H741a44.36,44.36,0,0,1-34.63,24.18Z"/><rect class="cls-2" x="704.63" y="286.26" width="1.75" height="0.42"/><path class="cls-2" d="M706.38,279.84v6.42h-1.75V280C705.22,280,705.8,279.91,706.38,279.84Z"/><path class="cls-2" d="M706.38,255.65v24.18c-.58.07-1.16.12-1.75.16V255.65Z"/><polygon class="cls-2" points="705.07 542.74 705.07 542.94 492.87 542.94 492.33 542.74 705.07 542.74"/><path class="cls-2" d="M705.07,567.59v31.07H492.33l0,0,31.05-31.05H579q0,.29,0,.58a14.75,14.75,0,0,0,29.49,0q0-.29,0-.58Z"/><path class="cls-3" d="M705.07,477v90.59H608.49a14.74,14.74,0,0,0-29.47,0H523.33l-31.05,31.05V477Zm-12.23,61.67A19.33,19.33,0,1,0,673.5,558,19.33,19.33,0,0,0,692.84,538.68ZM635.6,499.46a9.18,9.18,0,1,0-9.18,9.18A9.17,9.17,0,0,0,635.6,499.46Z"/><polygon class="cls-2" points="704.63 286.26 704.63 286.68 492.91 286.68 492.36 286.47 492.31 286.46 492.52 286.26 704.63 286.26"/><path class="cls-2" d="M704.63,280v6.26H492.52l31-30.6H661.7a44.34,44.34,0,0,0,39.65,24.47Q703,280.12,704.63,280Z"/><path class="cls-2" d="M704.63,255.65V280q-1.63.12-3.28.12a44.34,44.34,0,0,1-39.65-24.47Z"/><circle class="cls-6" cx="673.5" cy="538.68" r="19.33"/><circle class="cls-7" cx="626.42" cy="499.46" r="9.18"/><circle class="cls-8" cx="605.45" cy="187.05" r="9.18"/><path class="cls-2" d="M608.49,567.59q0,.29,0,.58a14.75,14.75,0,0,1-29.49,0q0-.29,0-.58Z"/><path class="cls-9" d="M608.49,567.59H579a14.74,14.74,0,0,1,29.47,0Z"/><circle class="cls-7" cx="556.51" cy="217.64" r="18.79"/><path class="cls-6" d="M492.28,767.19a27.1,27.1,0,0,1,0,47.42Z"/><polygon class="cls-10" points="492.33 542.74 492.28 542.74 492.28 542.72 492.33 542.74"/><polygon class="cls-2" points="492.28 1009.85 492.28 1041.13 339.36 1041.13 344 1036.49 370.63 1036.49 370.63 1009.85 492.28 1009.85"/><path class="cls-3" d="M492.28,814.61v195.24H370.63V666.1a30.59,30.59,0,1,0,0-45.77V298.92a27.11,27.11,0,0,0,38.08-12.67h83.57V421.08H377.15V542.74H492.28V767.19a27.09,27.09,0,1,0,0,47.42ZM490.7,570.28V543.64l-47,26.64ZM470,600.94a9.5,9.5,0,1,0-9.5,9.5A9.5,9.5,0,0,0,470,600.94ZM453,372.42a20.86,20.86,0,1,0-20.86,20.86A20.86,20.86,0,0,0,453,372.42Zm-21,478a23,23,0,1,0-23,23A23,23,0,0,0,432,850.43ZM419.75,955.19a16.6,16.6,0,1,0-16.6,16.6A16.6,16.6,0,0,0,419.75,955.19Z"/><path class="cls-6" d="M492.28,767.19v47.42a27.09,27.09,0,1,1,0-47.42Z"/><path class="cls-3" d="M492.28,542.72v0H377.15V421.08H492.28Zm-17.91-70.78a21,21,0,1,0-21,21A21,21,0,0,0,474.37,471.94Z"/><path class="cls-3" d="M492.28,164.6V286.26H408.71a27.1,27.1,0,0,0-24.79-38,27.24,27.24,0,0,0-6.77.85V164.6Zm-21,40.15a22.5,22.5,0,1,0-22.5,22.5A22.5,22.5,0,0,0,471.31,204.75Z"/><path class="cls-11" d="M492.28,164.57v0H377.15v84.48a26.85,26.85,0,0,0-6.52,2.63V164.57Z"/><polygon class="cls-3" points="490.7 543.64 490.7 570.28 443.67 570.28 490.7 543.64"/><circle class="cls-4" cx="453.39" cy="471.94" r="20.97"/><circle class="cls-8" cx="460.5" cy="600.94" r="9.5"/><circle class="cls-4" cx="448.81" cy="204.75" r="22.5"/><circle class="cls-6" cx="432.09" cy="372.42" r="20.86"/><circle class="cls-4" cx="408.94" cy="850.43" r="23.05"/><circle class="cls-8" cx="403.15" cy="955.19" r="16.6"/><path class="cls-7" d="M390.91,612.63a30.59,30.59,0,1,1-20.29,53.47V620.33A30.46,30.46,0,0,1,390.91,612.63Z"/><path class="cls-8" d="M411,275.32a27,27,0,0,1-2.3,10.94H377.15V249.08A27.12,27.12,0,0,1,411,275.32Z"/><path class="cls-8" d="M377.15,286.26h31.56a27.11,27.11,0,0,1-38.08,12.67V251.71a26.85,26.85,0,0,1,6.52-2.63Z"/><polygon class="cls-2" points="370.63 1009.85 370.63 1036.49 344 1036.49 370.63 1009.85"/><path class="cls-11" d="M370.63,666.1v343.75H339.35V163.6h31.27v88.11a27.1,27.1,0,0,0,0,47.22v321.4a30.58,30.58,0,0,0,0,45.77Z"/><path class="cls-7" d="M370.63,620.33V666.1a30.58,30.58,0,0,1,0-45.77Z"/><path class="cls-8" d="M370.63,251.71v47.22a27.1,27.1,0,0,1,0-47.22Z"/><polygon class="cls-11" points="370.63 1009.85 344 1036.49 339.36 1036.49 339.36 1009.85 370.63 1009.85"/><polygon class="cls-11" points="344 1036.49 339.36 1041.13 339.36 1036.49 344 1036.49"/></g></g></g></svg>