<svg xmlns="http://www.w3.org/2000/svg" viewBox="0 0 1179 1178"><defs><style>.cls-1{fill:#e8ca80;}.cls-2{fill:#fff;}.cls-3{fill:#eac5ea;}.cls-4{fill:#b1d6f2;}.cls-5{fill:#e0b8df;}.cls-6{fill:#a1c3e2;}.cls-7{fill:#606060;}</style></defs><title>G</title><g id="Layer_2" data-name="Layer 2"><g id="Layer_1-2" data-name="Layer 1"><rect class="cls-1" width="1179" height="1178"/><g id="_Group_" data-name="&lt;Group&gt;"><path class="cls-1" d="M1001.27,589a415.17,415.17,0,0,1-7.36,77.94l-7.24-.55v-1.46h-3.74A401.78,401.78,0,0,0,990.14,589c0-109.92-44.51-209.65-116.46-282.11A399.26,399.26,0,0,0,591,188.36H589.5c-220.92,0-400.64,179.72-400.64,400.64v1.46a398.67,398.67,0,0,0,7.24,74.47h-6.69v1.46l-4.32.55A415.17,415.17,0,0,1,177.73,589c0-227.41,184.36-411.77,411.77-411.77S1001.27,361.59,1001.27,589Z"/><path class="cls-1" d="M986.67,666.39l7.24.55c-36.45,190.14-203.67,333.82-404.41,333.82s-368-143.68-404.41-333.82l4.32-.55v1.46h7.24A400.38,400.38,0,0,0,305.32,871.13l-.12.12,2,2,.12-.12c72.45,71.93,172.21,116.46,282.13,116.46,193.94,0,356.11-138.51,392.85-321.79h4.32Z"/><path class="cls-2" d="M989.59,589h.55a401.78,401.78,0,0,1-7.21,75.93h-3a396.23,396.23,0,0,0,7.3-74.47h2.37Z"/><path class="cls-1" d="M990.14,589h-.55v-1.46h-2.37A396.33,396.33,0,0,0,871.61,309l2-2,.12-.12C945.64,379.35,990.14,479.08,990.14,589Z"/><path class="cls-2" d="M989.59,589v1.46h-2.37v-2.92h2.37Z"/><path class="cls-2" d="M987.22,589v1.46H857c0-.5,0-1,0-1.46s0-1,0-1.46H987.22Z"/><path class="cls-1" d="M987.22,587.54H857a266.74,266.74,0,0,0-77.39-186.61l92-92A396.33,396.33,0,0,1,987.22,587.54Z"/><path class="cls-3" d="M857,590.46H987.22a396.23,396.23,0,0,1-7.3,74.47H846.05A264.69,264.69,0,0,0,857,590.46Z"/><path class="cls-1" d="M986.67,666.39v1.46h-4.32c.09-.5.2-1,.29-1.46Z"/><path class="cls-1" d="M986.67,664.93v1.46h-4c.09-.5.18-1,.29-1.46Z"/><path class="cls-2" d="M982.93,664.93c-.12.5-.2,1-.29,1.46h-3c.09-.5.2-1,.26-1.46Z"/><path class="cls-2" d="M982.64,666.39c-.09.5-.2,1-.29,1.46h-3c.09-.5.2-1,.29-1.46Z"/><path class="cls-2" d="M979.37,667.85h3C945.61,851.13,783.44,989.64,589.5,989.64v-.55H591v-2.37C782.59,986,942.75,849.06,979.37,667.85Z"/><path class="cls-3" d="M979.92,664.93c-.06.5-.18,1-.26,1.46h-134l.44-1.46Z"/><path class="cls-3" d="M979.66,666.39c-.09.5-.2,1-.29,1.46H845.15c.18-.5.32-1,.47-1.46Z"/><path class="cls-3" d="M845.15,667.85H979.37C942.75,849.06,782.59,986,591,986.72V856.53C710.43,855.92,811.62,776.57,845.15,667.85Z"/><path class="cls-2" d="M873.68,306.89l-.12.12-2.07-2.07-2,2A396.33,396.33,0,0,0,591,191.28v-2.92A399.26,399.26,0,0,1,873.68,306.89Z"/><path class="cls-2" d="M873.56,307l-2,2c-.67-.7-1.37-1.4-2.07-2.07l2-2Z"/><path class="cls-2" d="M871.61,309l-92,92-2.07-2.07,92-92C870.23,307.57,870.93,308.27,871.61,309Z"/><path class="cls-4" d="M869.53,306.89l-92,92A266.74,266.74,0,0,0,591,321.47V191.28A396.33,396.33,0,0,1,869.53,306.89Z"/><path class="cls-2" d="M857,587.54c0,.5,0,1,0,1.46s0,1,0,1.46h-2.89c0-1,0-1.93,0-2.92Z"/><path class="cls-1" d="M857,587.54h-2.86c0-3.62-.12-7.3-.29-11a263.64,263.64,0,0,0-76.4-173.5l2.16-2.16A266.74,266.74,0,0,1,857,587.54Z"/><path class="cls-2" d="M854.14,590.46H857a264.69,264.69,0,0,1-11,74.47h-3A262.33,262.33,0,0,0,854.14,590.46Z"/><path class="cls-2" d="M854.17,587.54c0,1,0,2,0,2.92h-85.8c0-.5,0-1,0-1.46s0-1,0-1.46Z"/><path class="cls-1" d="M854.17,587.54H768.34a178.07,178.07,0,0,0-51.4-123.91l60.54-60.54a263.64,263.64,0,0,1,76.4,173.5C854.05,580.24,854.14,583.92,854.17,587.54Z"/><path class="cls-3" d="M768.34,590.46h85.8a262.33,262.33,0,0,1-11.07,74.47H751.4A177.24,177.24,0,0,0,768.34,590.46Z"/><path class="cls-2" d="M846.05,664.93l-.44,1.46h-3l.44-1.46Z"/><path class="cls-2" d="M845.61,666.39c-.15.5-.29,1-.47,1.46h-3c.18-.47.32-1,.47-1.46Z"/><path class="cls-2" d="M842.17,667.85h3C811.62,776.57,710.43,855.92,591,856.53v-2.89C708.83,853,808.67,774.94,842.17,667.85Z"/><path class="cls-3" d="M843.07,664.93l-.44,1.46h-91.9c.23-.5.47-1,.67-1.46Z"/><path class="cls-3" d="M842.64,666.39c-.15.5-.29,1-.47,1.46H750c.26-.47.5-1,.73-1.46Z"/><path class="cls-5" d="M750,667.85h92.17C808.67,774.94,708.83,853,591,853.64v-85.8A179,179,0,0,0,750,667.85Z"/><path class="cls-2" d="M779.64,400.93l-2.16,2.16c-.67-.7-1.37-1.4-2.07-2.07l2.16-2.16Z"/><path class="cls-2" d="M777.57,398.86,775.41,401a263.64,263.64,0,0,0-173.5-76.4c-3.65-.18-7.33-.26-11-.29v-2.86A266.74,266.74,0,0,1,777.57,398.86Z"/><path class="cls-2" d="M777.48,403.09l-60.54,60.54c-.67-.7-1.37-1.4-2.07-2.07L775.41,401C776.11,401.69,776.81,402.39,777.48,403.09Z"/><path class="cls-6" d="M775.41,401l-60.54,60.54A178.07,178.07,0,0,0,591,410.16V324.33c3.62,0,7.3.12,11,.29A263.64,263.64,0,0,1,775.41,401Z"/><path class="cls-2" d="M768.34,587.54c0,.5,0,1,0,1.46s0,1,0,1.46h-2.92c0-.5,0-1,0-1.46s0-1,0-1.46Z"/><path class="cls-1" d="M768.34,587.54h-2.92A175.23,175.23,0,0,0,714.87,465.7l2.07-2.07A178.07,178.07,0,0,1,768.34,587.54Z"/><path class="cls-2" d="M765.42,590.46h2.92a177.24,177.24,0,0,1-16.94,74.47h-3.21A174.43,174.43,0,0,0,765.42,590.46Z"/><path class="cls-2" d="M765.42,587.54c0,.5,0,1,0,1.46s0,1,0,1.46H709.23v-2.92Z"/><path class="cls-1" d="M765.42,587.54H709.23a119.32,119.32,0,0,0-34.08-82.12l39.72-39.72A175.23,175.23,0,0,1,765.42,587.54Z"/><path class="cls-3" d="M709.23,590.46h56.19a174.43,174.43,0,0,1-17.23,74.47H682A119.07,119.07,0,0,0,709.23,590.46Z"/><path class="cls-2" d="M751.4,664.93c-.2.5-.44,1-.67,1.46h-3.24l.7-1.46Z"/><path class="cls-2" d="M750.73,666.39c-.23.5-.47,1-.73,1.46h-3.27c.26-.47.53-1,.76-1.46Z"/><path class="cls-2" d="M746.73,667.85H750a179,179,0,0,1-159,100v-2.92C659,764.4,718,725,746.73,667.85Z"/><path class="cls-3" d="M748.19,664.93l-.7,1.46h-66.7c.41-.47.82-1,1.2-1.46Z"/><path class="cls-3" d="M747.49,666.39c-.23.5-.5,1-.76,1.46H679.51c.44-.47.88-1,1.28-1.46Z"/><path class="cls-5" d="M679.51,667.85h67.23C718,725,659,764.4,591,764.92V708.73A119.48,119.48,0,0,0,679.51,667.85Z"/><path class="cls-2" d="M716.94,463.63l-2.07,2.07c-.67-.7-1.37-1.4-2.07-2.07l2.07-2.07C715.57,462.23,716.27,462.93,716.94,463.63Z"/><path class="cls-2" d="M714.87,461.56l-2.07,2.07A175.23,175.23,0,0,0,591,413.08v-2.92A178.07,178.07,0,0,1,714.87,461.56Z"/><path class="cls-2" d="M714.87,465.7l-39.72,39.72c-.67-.7-1.37-1.4-2.07-2.07l39.72-39.72C713.5,464.3,714.2,465,714.87,465.7Z"/><path class="cls-6" d="M712.8,463.63l-39.72,39.72A119.32,119.32,0,0,0,591,469.27V413.08A175.23,175.23,0,0,1,712.8,463.63Z"/><path class="cls-2" d="M709.23,589v1.46h-2.92v-2.92h2.92Z"/><path class="cls-1" d="M709.23,587.54h-2.92a116.23,116.23,0,0,0-33.23-80l2.07-2.07A119.32,119.32,0,0,1,709.23,587.54Z"/><path class="cls-2" d="M706.31,590.46h2.92A119.07,119.07,0,0,1,682,664.93h-3.85A116,116,0,0,0,706.31,590.46Z"/><path class="cls-2" d="M706.31,589v1.46H669.78c0-.47,0-1,0-1.46s0-1,0-1.46h36.53Z"/><path class="cls-1" d="M706.31,587.54H669.78a79.78,79.78,0,0,0-22.52-54.26l25.82-25.79A116.23,116.23,0,0,1,706.31,587.54Z"/><path class="cls-3" d="M669.78,590.46h36.53a116,116,0,0,1-28.18,74.47H615.52A80.33,80.33,0,0,0,669.78,590.46Z"/><path class="cls-2" d="M682,664.93c-.38.5-.79,1-1.2,1.46h-3.88c.44-.5.85-1,1.23-1.46Z"/><path class="cls-2" d="M680.79,666.39c-.41.5-.85,1-1.28,1.46h-3.91l1.31-1.46Z"/><path class="cls-2" d="M675.59,667.85h3.91A119.48,119.48,0,0,1,591,708.73v-2.92A116.54,116.54,0,0,0,675.59,667.85Z"/><path class="cls-3" d="M678.13,664.93c-.38.5-.79,1-1.23,1.46h-66c1.58-.44,3.12-.91,4.64-1.46Z"/><path class="cls-3" d="M676.91,666.39l-1.31,1.46H604.69c2.07-.41,4.15-.88,6.19-1.46Z"/><path class="cls-5" d="M604.69,667.85h70.91a116.54,116.54,0,0,1-84.63,38V669.28A79,79,0,0,0,604.69,667.85Z"/><path class="cls-2" d="M675.15,505.42l-2.07,2.07c-.67-.73-1.34-1.4-2.07-2.07l2.07-2.07C673.78,504,674.48,504.72,675.15,505.42Z"/><path class="cls-2" d="M673.08,503.35,671,505.42a116.23,116.23,0,0,0-80-33.23v-2.92A119.32,119.32,0,0,1,673.08,503.35Z"/><path class="cls-2" d="M673.08,507.49l-25.82,25.79c-.64-.7-1.34-1.4-2-2L671,505.42C671.74,506.09,672.41,506.76,673.08,507.49Z"/><path class="cls-6" d="M671,505.42l-25.79,25.82A79.78,79.78,0,0,0,591,508.72V472.19A116.23,116.23,0,0,1,671,505.42Z"/><path class="cls-2" d="M669.78,587.54c0,.47,0,1,0,1.46s0,1,0,1.46h-2.92c0-.47,0-1,0-1.46s0-1,0-1.46Z"/><path class="cls-1" d="M669.78,587.54h-2.92a76.87,76.87,0,0,0-21.64-52.19l2-2.07A79.78,79.78,0,0,1,669.78,587.54Z"/><path class="cls-2" d="M666.86,590.46h2.92a80.33,80.33,0,0,1-54.26,74.47H604.34A77.46,77.46,0,0,0,666.86,590.46Z"/><path class="cls-2" d="M666.86,587.54c0,.47,0,1,0,1.46s0,1,0,1.46H643.5c0-.47,0-1,0-1.46s0-1,0-1.46Z"/><path class="cls-1" d="M666.86,587.54H643.5a53.8,53.8,0,0,0-14.81-35.69l16.53-16.5A76.87,76.87,0,0,1,666.86,587.54Z"/><path class="cls-3" d="M643.5,590.46h23.36a77.46,77.46,0,0,1-62.52,74.47H591V643A54.09,54.09,0,0,0,643.5,590.46Z"/><path class="cls-2" d="M647.26,533.28l-2,2.07c-.67-.7-1.37-1.4-2.07-2.07l2.07-2C645.92,531.88,646.62,532.58,647.26,533.28Z"/><path class="cls-2" d="M645.22,531.24l-2.07,2A76.87,76.87,0,0,0,591,511.64v-2.92A79.78,79.78,0,0,1,645.22,531.24Z"/><path class="cls-2" d="M645.22,535.35l-16.53,16.5c-.67-.7-1.34-1.37-2-2l16.5-16.53C643.85,534,644.55,534.65,645.22,535.35Z"/><path class="cls-2" d="M643.5,587.54c0,.47,0,1,0,1.46s0,1,0,1.46h-2.92c0-.5,0-1,0-1.46s0-1,0-1.46Z"/><path class="cls-1" d="M643.5,587.54h-2.92a50.78,50.78,0,0,0-14-33.61l2.07-2.07A53.8,53.8,0,0,1,643.5,587.54Z"/><path class="cls-2" d="M640.58,590.46h2.92A54.09,54.09,0,0,1,591,643v-2.92A51.16,51.16,0,0,0,640.58,590.46Z"/><path class="cls-6" d="M643.15,533.28l-16.5,16.53A53.8,53.8,0,0,0,591,535V511.64A76.87,76.87,0,0,1,643.15,533.28Z"/><path class="cls-2" d="M640.58,587.54c0,.5,0,1,0,1.46s0,1,0,1.46H625.95a18.28,18.28,0,0,0,0-2.92Z"/><path class="cls-1" d="M640.58,587.54H625.95a36,36,0,0,0-9.64-23.28l10.31-10.34A50.78,50.78,0,0,1,640.58,587.54Z"/><path class="cls-3" d="M625.95,590.46h14.63A51.16,51.16,0,0,1,591,640.08V625.45A36.5,36.5,0,0,0,625.95,590.46Z"/><path class="cls-2" d="M628.69,551.85l-2.07,2.07c-.64-.7-1.34-1.4-2-2l2.07-2.07C627.35,550.48,628,551.15,628.69,551.85Z"/><path class="cls-2" d="M626.65,549.81l-2.07,2.07a50.78,50.78,0,0,0-33.61-14V535A53.8,53.8,0,0,1,626.65,549.81Z"/><path class="cls-2" d="M626.62,553.93l-10.31,10.34c-.67-.73-1.34-1.4-2.07-2.07l10.34-10.31C625.27,552.52,626,553.23,626.62,553.93Z"/><path class="cls-2" d="M625.95,587.54a18.28,18.28,0,0,1,0,2.92h-2.89c0-.5,0-1,0-1.46s0-1,0-1.46Z"/><path class="cls-1" d="M625.95,587.54h-2.89a33.4,33.4,0,0,0-8.82-21.23l2.07-2A36,36,0,0,1,625.95,587.54Z"/><path class="cls-2" d="M623.05,590.46h2.89a36.5,36.5,0,0,1-35,35v-2.89A33.67,33.67,0,0,0,623.05,590.46Z"/><path class="cls-6" d="M624.57,551.88l-10.34,10.31A36,36,0,0,0,591,552.55V537.92A50.78,50.78,0,0,1,624.57,551.88Z"/><path class="cls-2" d="M623.05,587.54c0,.5,0,1,0,1.46s0,1,0,1.46h-8.76c0-.5,0-1,0-1.46s0-1,0-1.46Z"/><path class="cls-1" d="M623.05,587.54h-8.76a24.69,24.69,0,0,0-6.25-15l6.19-6.22A33.4,33.4,0,0,1,623.05,587.54Z"/><path class="cls-3" d="M614.29,590.46h8.76A33.67,33.67,0,0,1,591,622.55v-8.76A24.88,24.88,0,0,0,614.29,590.46Z"/><path class="cls-2" d="M616.31,564.26l-2.07,2c-.64-.7-1.34-1.4-2-2l2-2.07C615,562.86,615.64,563.53,616.31,564.26Z"/><path class="cls-2" d="M604.34,664.93h11.18c-1.52.55-3.07,1-4.64,1.46H591v0A74.71,74.71,0,0,0,604.34,664.93Z"/><path class="cls-2" d="M614.29,587.54c0,.5,0,1,0,1.46s0,1,0,1.46h-3a12.21,12.21,0,0,0,0-2.92Z"/><path class="cls-1" d="M614.29,587.54h-3A21.4,21.4,0,0,0,606,574.6l2.07-2.07A24.69,24.69,0,0,1,614.29,587.54Z"/><path class="cls-2" d="M611.31,590.46h3A24.88,24.88,0,0,1,591,613.79v-3A21.77,21.77,0,0,0,611.31,590.46Z"/><path class="cls-2" d="M614.24,562.19l-2,2.07A33.4,33.4,0,0,0,591,555.45v-2.89A36,36,0,0,1,614.24,562.19Z"/><path class="cls-2" d="M614.24,566.31,608,572.53a23.16,23.16,0,0,0-2.07-2.07l6.22-6.19C612.89,564.91,613.59,565.61,614.24,566.31Z"/><path class="cls-6" d="M612.19,564.26,606,570.46a24.69,24.69,0,0,0-15-6.25v-8.76A33.4,33.4,0,0,1,612.19,564.26Z"/><path class="cls-2" d="M611.31,587.54a12.21,12.21,0,0,1,0,2.92h-5.84a12.21,12.21,0,0,0,0-2.92Z"/><path class="cls-1" d="M611.31,587.54h-5.84a15.82,15.82,0,0,0-3.65-8.82L606,574.6A21.4,21.4,0,0,1,611.31,587.54Z"/><path class="cls-3" d="M605.47,590.46h5.84A21.77,21.77,0,0,1,591,610.81V605A16,16,0,0,0,605.47,590.46Z"/><path class="cls-2" d="M591,666.39h19.92c-2,.58-4.12,1.05-6.19,1.46H591Z"/><path class="cls-2" d="M608,572.53,606,574.6a13.92,13.92,0,0,0-2.07-2.07l2.07-2.07A23.16,23.16,0,0,1,608,572.53Z"/><path class="cls-2" d="M606,570.46l-2.07,2.07A21.4,21.4,0,0,0,591,567.19v-3A24.69,24.69,0,0,1,606,570.46Z"/><path class="cls-2" d="M606,574.6l-4.15,4.12a16.9,16.9,0,0,0-2-2l4.12-4.15A13.92,13.92,0,0,1,606,574.6Z"/><path class="cls-2" d="M605.47,587.54a12.21,12.21,0,0,1,0,2.92h-2.92a12.21,12.21,0,0,0,0-2.92Z"/><path class="cls-1" d="M605.47,587.54h-2.92a12.91,12.91,0,0,0-2.8-6.75l2.07-2.07A15.82,15.82,0,0,1,605.47,587.54Z"/><path class="cls-2" d="M602.55,590.46h2.92A16,16,0,0,1,591,605v-2.92A13.16,13.16,0,0,0,602.55,590.46Z"/><path class="cls-2" d="M591,667.85h13.73A79,79,0,0,1,591,669.28Z"/><path class="cls-3" d="M591,664.93h13.38A74.71,74.71,0,0,1,591,666.36Z"/><path class="cls-6" d="M603.9,572.53l-4.12,4.15A15.82,15.82,0,0,0,591,573v-5.84A21.4,21.4,0,0,1,603.9,572.53Z"/><path class="cls-2" d="M602.55,587.54a12.21,12.21,0,0,1,0,2.92H591v-.85l2.07-2.07Z"/><path class="cls-1" d="M602.55,587.54H593l6.72-6.75A12.91,12.91,0,0,1,602.55,587.54Z"/><path class="cls-3" d="M591,590.46h11.59A13.16,13.16,0,0,1,591,602.05Z"/><path class="cls-2" d="M601.82,578.72l-2.07,2.07a13.53,13.53,0,0,0-2-2l2.07-2.07A16.9,16.9,0,0,1,601.82,578.72Z"/><path class="cls-2" d="M599.78,576.68l-2.07,2.07a12.91,12.91,0,0,0-6.75-2.8V573A15.82,15.82,0,0,1,599.78,576.68Z"/><path class="cls-2" d="M599.75,580.79,593,587.54H591v-2.07l6.75-6.72A13.53,13.53,0,0,1,599.75,580.79Z"/><path class="cls-6" d="M597.71,578.75,591,585.47v-9.52A12.91,12.91,0,0,1,597.71,578.75Z"/><polygon class="cls-2" points="593.03 587.54 590.96 589.61 590.96 587.54 593.03 587.54"/><path class="cls-7" d="M591,986.72v2.37H588v-2.37H591Z"/><path class="cls-3" d="M591,856.53V986.72H588V856.53c.5,0,1,0,1.46,0S590.46,856.56,591,856.53Z"/><path class="cls-2" d="M591,853.64v2.89c-.5,0-1,0-1.46,0s-1,0-1.46,0v-2.86C589,853.67,590,853.67,591,853.64Z"/><path class="cls-5" d="M591,767.84v85.8c-1,0-1.93,0-2.92,0V767.84c.5,0,1,0,1.46,0S590.46,767.87,591,767.84Z"/><path class="cls-2" d="M591,764.92v2.92c-.5,0-1,0-1.46,0s-1,0-1.46,0v-2.92c.5,0,1,0,1.46,0S590.46,765,591,764.92Z"/><path class="cls-5" d="M591,708.73v56.19c-.5,0-1,0-1.46,0s-1,0-1.46,0V708.73H591Z"/><path class="cls-2" d="M591,705.81v2.92H588v-2.92H591Z"/><path class="cls-5" d="M591,669.28v36.53H588V669.28c.47,0,1,0,1.46,0S590.49,669.31,591,669.28Z"/><path class="cls-2" d="M591,667.85v1.43c-.47,0-1,0-1.46,0s-1,0-1.46,0v-1.43Z"/><polygon class="cls-2" points="590.96 666.39 590.96 667.85 588.04 667.85 588.04 666.39 589 666.39 589.5 666.39 590.96 666.39"/><path class="cls-2" d="M591,666.36v0H589.5C590,666.39,590.49,666.39,591,666.36Z"/><path class="cls-3" d="M591,664.93v1.43c-.47,0-1,0-1.46,0H589c-.32,0-.64,0-1,0v-1.43Z"/><path class="cls-3" d="M591,643v21.93H588V643c.47,0,1,0,1.46,0S590.49,643,591,643Z"/><path class="cls-2" d="M591,640.08V643c-.47,0-1,0-1.46,0s-1,0-1.46,0v-2.92c.5,0,1,0,1.46,0S590.46,640.11,591,640.08Z"/><path class="cls-3" d="M591,625.45v14.63c-.5,0-1,0-1.46,0s-1,0-1.46,0V625.45a18.28,18.28,0,0,0,2.92,0Z"/><path class="cls-2" d="M591,622.55v2.89a18.28,18.28,0,0,1-2.92,0v-2.89c.5,0,1,0,1.46,0S590.46,622.58,591,622.55Z"/><path class="cls-3" d="M591,613.79v8.76c-.5,0-1,0-1.46,0s-1,0-1.46,0v-8.76c.5,0,1,0,1.46,0S590.46,613.82,591,613.79Z"/><path class="cls-2" d="M591,610.81v3c-.5,0-1,0-1.46,0s-1,0-1.46,0v-3a12.21,12.21,0,0,0,2.92,0Z"/><path class="cls-3" d="M591,605v5.84a12.21,12.21,0,0,1-2.92,0V605a12.21,12.21,0,0,0,2.92,0Z"/><path class="cls-2" d="M591,602.05V605a12.21,12.21,0,0,1-2.92,0v-2.92a12.21,12.21,0,0,0,2.92,0Z"/><path class="cls-3" d="M591,590.46v11.59a12.21,12.21,0,0,1-2.92,0V592.5l2-2Z"/><polygon class="cls-2" points="590.96 589.61 590.96 590.46 590.08 590.46 590.96 589.61"/><polygon class="cls-2" points="590.96 587.54 590.96 589.61 590.08 590.46 588.04 590.46 588.04 588.42 588.89 587.54 590.96 587.54"/><polygon class="cls-2" points="590.96 585.47 590.96 587.54 588.89 587.54 590.96 585.47"/><path class="cls-6" d="M591,575.95v9.52l-2.07,2.07H588V575.95a12.21,12.21,0,0,1,2.92,0Z"/><path class="cls-2" d="M591,573v2.92a12.21,12.21,0,0,0-2.92,0V573a12.21,12.21,0,0,1,2.92,0Z"/><path class="cls-6" d="M591,567.19V573a12.21,12.21,0,0,0-2.92,0v-5.84a12.21,12.21,0,0,1,2.92,0Z"/><path class="cls-2" d="M591,564.21v3a12.21,12.21,0,0,0-2.92,0v-3c.5,0,1,0,1.46,0S590.46,564.18,591,564.21Z"/><path class="cls-6" d="M591,555.45v8.76c-.5,0-1,0-1.46,0s-1,0-1.46,0v-8.76c.5,0,1,0,1.46,0S590.46,555.42,591,555.45Z"/><path class="cls-2" d="M591,552.55v2.89c-.5,0-1,0-1.46,0s-1,0-1.46,0v-2.89a18.28,18.28,0,0,1,2.92,0Z"/><path class="cls-6" d="M591,537.92v14.63a18.28,18.28,0,0,0-2.92,0V537.92c.5,0,1,0,1.46,0S590.46,537.89,591,537.92Z"/><path class="cls-2" d="M591,535v2.92c-.5,0-1,0-1.46,0s-1,0-1.46,0V535c.47,0,1,0,1.46,0S590.49,535,591,535Z"/><path class="cls-6" d="M591,511.64V535c-.47,0-1,0-1.46,0s-1,0-1.46,0V511.64c.47,0,1,0,1.46,0S590.49,511.61,591,511.64Z"/><path class="cls-2" d="M591,508.72v2.92c-.47,0-1,0-1.46,0s-1,0-1.46,0v-2.92c.47,0,1,0,1.46,0S590.49,508.69,591,508.72Z"/><path class="cls-6" d="M591,472.19v36.53c-.47,0-1,0-1.46,0s-1,0-1.46,0V472.19H591Z"/><path class="cls-2" d="M591,469.27v2.92H588v-2.92H591Z"/><path class="cls-6" d="M591,413.08v56.19H588V413.08c.5,0,1,0,1.46,0S590.46,413,591,413.08Z"/><path class="cls-2" d="M591,410.16v2.92c-.5,0-1,0-1.46,0s-1,0-1.46,0v-2.92c.5,0,1,0,1.46,0S590.46,410.13,591,410.16Z"/><path class="cls-6" d="M591,324.33v85.83c-.5,0-1,0-1.46,0s-1,0-1.46,0v-85.8C589,324.33,590,324.33,591,324.33Z"/><path class="cls-2" d="M591,321.47v2.86c-1,0-2,0-2.92,0v-2.89c.5,0,1,0,1.46,0S590.46,321.44,591,321.47Z"/><path class="cls-4" d="M591,191.28V321.47c-.5,0-1,0-1.46,0s-1,0-1.46,0V191.28H591Z"/><path class="cls-7" d="M591,188.91v2.37H588v-2.37Z"/><path class="cls-2" d="M591,188.36v.55H588v2.37c-218.12.79-395.47,178.14-396.26,396.26h-2.37v2.92h-.55V589c0-220.92,179.72-400.64,400.64-400.64Z"/><polygon class="cls-2" points="590.08 590.46 588.04 592.5 588.04 590.46 590.08 590.46"/><path class="cls-2" d="M589.5,989.09v.55c-109.92,0-209.68-44.54-282.13-116.46l2.07-2.07A396.47,396.47,0,0,0,588,986.72v2.37Z"/><path class="cls-2" d="M589,666.39h-1v0C588.36,666.39,588.68,666.39,589,666.39Z"/><polygon class="cls-6" points="588.89 587.54 588.04 588.42 588.04 587.54 588.89 587.54"/><path class="cls-3" d="M588,856.53V986.72a396.47,396.47,0,0,1-278.6-115.62l92-92A266.88,266.88,0,0,0,588,856.53Z"/><path class="cls-2" d="M588,853.67v2.86A266.88,266.88,0,0,1,401.4,779.14l2.16-2.16a263.65,263.65,0,0,0,173.53,76.4C580.74,853.55,584.42,853.64,588,853.67Z"/><path class="cls-5" d="M588,767.84v85.83c-3.62,0-7.3-.12-11-.29A263.65,263.65,0,0,1,403.56,777l60.54-60.54A178.21,178.21,0,0,0,588,767.84Z"/><path class="cls-2" d="M588,764.92v2.92a178.21,178.21,0,0,1-123.94-51.4l2.07-2.07A175.37,175.37,0,0,0,588,764.92Z"/><path class="cls-5" d="M588,708.73v56.19a175.37,175.37,0,0,1-121.87-50.55l39.72-39.72A119.47,119.47,0,0,0,588,708.73Z"/><path class="cls-2" d="M588,705.81v2.92a119.47,119.47,0,0,1-82.15-34.08l2.1-2.07A116.23,116.23,0,0,0,588,705.81Z"/><path class="cls-5" d="M588,669.28v36.53a116.23,116.23,0,0,1-80-33.23l4.7-4.73h61.62A79,79,0,0,0,588,669.28Z"/><path class="cls-2" d="M588,667.85v1.43a79,79,0,0,1-13.73-1.43Z"/><path class="cls-2" d="M588,666.39v1.46H574.31c-2.07-.41-4.15-.88-6.19-1.46Z"/><path class="cls-2" d="M588,666.36v0H568.12c-1.61-.44-3.18-.93-4.76-1.46h11.27A75,75,0,0,0,588,666.36Z"/><path class="cls-5" d="M588,664.93v1.43a75,75,0,0,1-13.4-1.43Z"/><path class="cls-5" d="M588,643v21.93h-13.4a76.64,76.64,0,0,1-38.78-20.24l16.5-16.5A53.8,53.8,0,0,0,588,643Z"/><path class="cls-2" d="M588,640.08V643a53.8,53.8,0,0,1-35.69-14.81l2.07-2.07A50.78,50.78,0,0,0,588,640.08Z"/><path class="cls-5" d="M588,625.45v14.63a50.78,50.78,0,0,1-33.61-14l10.34-10.31A36,36,0,0,0,588,625.45Z"/><path class="cls-2" d="M588,622.55v2.89a36,36,0,0,1-23.28-9.64l2-2.07A33.4,33.4,0,0,0,588,622.55Z"/><path class="cls-5" d="M588,613.79v8.76a33.4,33.4,0,0,1-21.23-8.82l6.22-6.19A24.69,24.69,0,0,0,588,613.79Z"/><path class="cls-2" d="M588,610.81v3a24.69,24.69,0,0,1-15-6.25l2.07-2.1A21.26,21.26,0,0,0,588,610.81Z"/><path class="cls-5" d="M588,605v5.84a21.26,21.26,0,0,1-12.94-5.37l4.12-4.12A15.82,15.82,0,0,0,588,605Z"/><path class="cls-2" d="M588,602.05V605a15.82,15.82,0,0,1-8.82-3.65l2.07-2.07A12.91,12.91,0,0,0,588,602.05Z"/><path class="cls-5" d="M588,592.5v9.55a12.91,12.91,0,0,1-6.75-2.8Z"/><path class="cls-2" d="M588,590.46v2l-6.75,6.75a13.53,13.53,0,0,1-2-2l6.75-6.75Z"/><polygon class="cls-2" points="588.04 588.42 588.04 590.46 586 590.46 588.04 588.42"/><path class="cls-6" d="M588,587.54v.88l-2,2h-9.55a12.21,12.21,0,0,1,0-2.92Z"/><path class="cls-6" d="M588,575.95v11.59H576.45A13.16,13.16,0,0,1,588,575.95Z"/><path class="cls-2" d="M588,573v2.92a13.16,13.16,0,0,0-11.59,11.59h-2.92A16,16,0,0,1,588,573Z"/><path class="cls-6" d="M588,567.19V573a16,16,0,0,0-14.51,14.51h-5.84A21.77,21.77,0,0,1,588,567.19Z"/><path class="cls-2" d="M588,564.21v3a21.77,21.77,0,0,0-20.35,20.35h-3A24.88,24.88,0,0,1,588,564.21Z"/><path class="cls-6" d="M588,555.45v8.76a24.88,24.88,0,0,0-23.33,23.33h-8.76A33.67,33.67,0,0,1,588,555.45Z"/><path class="cls-2" d="M588,552.55v2.89a33.67,33.67,0,0,0-32.09,32.09h-2.89A36.5,36.5,0,0,1,588,552.55Z"/><path class="cls-6" d="M588,537.92v14.63a36.5,36.5,0,0,0-35,35H538.42A51.16,51.16,0,0,1,588,537.92Z"/><path class="cls-2" d="M588,535v2.92a51.16,51.16,0,0,0-49.62,49.62H535.5A54.09,54.09,0,0,1,588,535Z"/><path class="cls-6" d="M588,511.64V535a54.09,54.09,0,0,0-52.54,52.54H512.14A77.46,77.46,0,0,1,588,511.64Z"/><path class="cls-2" d="M588,508.72v2.92a77.46,77.46,0,0,0-75.9,75.9h-2.92A80.39,80.39,0,0,1,588,508.72Z"/><path class="cls-6" d="M588,472.19v36.53a80.39,80.39,0,0,0-78.82,78.82H472.69A117,117,0,0,1,588,472.19Z"/><path class="cls-2" d="M588,469.27v2.92A117,117,0,0,0,472.69,587.54h-2.92A119.91,119.91,0,0,1,588,469.27Z"/><path class="cls-6" d="M588,413.08v56.19A119.91,119.91,0,0,0,469.77,587.54H413.58C414.34,491.69,492.19,413.84,588,413.08Z"/><path class="cls-2" d="M588,410.16v2.92c-95.85.76-173.7,78.62-174.46,174.46h-2.92C411.42,490.09,490.59,410.92,588,410.16Z"/><path class="cls-6" d="M588,324.36v85.8c-97.45.76-176.62,79.93-177.38,177.38h-85.8C325.62,442.78,443.28,325.12,588,324.36Z"/><path class="cls-2" d="M588,321.47v2.89c-144.76.76-262.42,118.42-263.18,263.18H322C322.73,441.17,441.67,322.23,588,321.47Z"/><path class="cls-4" d="M588,191.28V321.47C441.67,322.23,322.73,441.17,322,587.54H191.78C192.57,369.42,369.92,192.07,588,191.28Z"/><path class="cls-6" d="M586,590.46l-6.75,6.75a12.91,12.91,0,0,1-2.8-6.75Z"/><path class="cls-2" d="M581.29,599.25l-2.07,2.07a16.9,16.9,0,0,1-2-2l2.07-2.07A13.53,13.53,0,0,0,581.29,599.25Z"/><path class="cls-2" d="M579.25,597.21l-2.07,2.07a15.82,15.82,0,0,1-3.65-8.82h2.92A12.91,12.91,0,0,0,579.25,597.21Z"/><path class="cls-2" d="M579.22,601.32l-4.12,4.12a11.29,11.29,0,0,1-2-2l4.12-4.12A16.9,16.9,0,0,0,579.22,601.32Z"/><path class="cls-6" d="M577.18,599.28l-4.12,4.12a21.26,21.26,0,0,1-5.37-12.94h5.84A15.82,15.82,0,0,0,577.18,599.28Z"/><path class="cls-2" d="M576.45,587.54a12.21,12.21,0,0,0,0,2.92h-2.92a12.21,12.21,0,0,1,0-2.92Z"/><path class="cls-2" d="M575.1,605.44l-2.07,2.1a23.16,23.16,0,0,1-2.07-2.07l2.1-2.07A11.29,11.29,0,0,0,575.1,605.44Z"/><path class="cls-2" d="M574.64,664.93H563.36a79.63,79.63,0,0,1-29.58-18.16l2.07-2.07A76.64,76.64,0,0,0,574.64,664.93Z"/><path class="cls-5" d="M574.31,667.85H512.69l1.46-1.46h54C570.17,667,572.24,667.44,574.31,667.85Z"/><path class="cls-6" d="M573.53,587.54a12.21,12.21,0,0,0,0,2.92h-5.84a12.21,12.21,0,0,1,0-2.92Z"/><path class="cls-2" d="M573.06,603.4l-2.1,2.07a24.69,24.69,0,0,1-6.25-15h3A21.26,21.26,0,0,0,573.06,603.4Z"/><path class="cls-2" d="M573,607.54l-6.22,6.19c-.7-.64-1.4-1.34-2-2l6.19-6.22A23.16,23.16,0,0,0,573,607.54Z"/><path class="cls-6" d="M571,605.47l-6.19,6.22a33.4,33.4,0,0,1-8.82-21.23h8.76A24.69,24.69,0,0,0,571,605.47Z"/><path class="cls-5" d="M568.12,666.39h-54l1.46-1.46h47.75C564.94,665.45,566.52,666,568.12,666.39Z"/><path class="cls-2" d="M567.69,587.54a12.21,12.21,0,0,0,0,2.92h-3c0-.5,0-1,0-1.46s0-1,0-1.46Z"/><path class="cls-2" d="M566.81,613.74l-2,2.07c-.73-.67-1.4-1.34-2.07-2.07l2.07-2C565.41,612.39,566.11,613.09,566.81,613.74Z"/><path class="cls-2" d="M564.76,611.69l-2.07,2a36,36,0,0,1-9.64-23.28h2.89A33.4,33.4,0,0,0,564.76,611.69Z"/><path class="cls-2" d="M564.76,615.81l-10.34,10.31c-.7-.64-1.4-1.34-2-2l10.31-10.34C563.36,614.47,564,615.14,564.76,615.81Z"/><path class="cls-6" d="M564.71,587.54c0,.5,0,1,0,1.46s0,1,0,1.46h-8.76c0-.5,0-1,0-1.46s0-1,0-1.46Z"/><path class="cls-5" d="M563.36,664.93H515.62l18.16-18.16A79.63,79.63,0,0,0,563.36,664.93Z"/><path class="cls-6" d="M562.69,613.74l-10.31,10.34a50.78,50.78,0,0,1-14-33.61h14.63A36,36,0,0,0,562.69,613.74Z"/><path class="cls-2" d="M555.95,587.54c0,.5,0,1,0,1.46s0,1,0,1.46h-2.89a18.28,18.28,0,0,1,0-2.92Z"/><path class="cls-2" d="M554.43,626.12l-2.07,2.07c-.7-.67-1.37-1.34-2-2l2.07-2.07C553,624.77,553.73,625.48,554.43,626.12Z"/><path class="cls-6" d="M538.42,587.54h14.63a18.28,18.28,0,0,0,0,2.92H538.42c0-.5,0-1,0-1.46S538.39,588,538.42,587.54Z"/><path class="cls-2" d="M552.38,624.07l-2.07,2.07a53.8,53.8,0,0,1-14.81-35.69h2.92A50.78,50.78,0,0,0,552.38,624.07Z"/><path class="cls-2" d="M552.35,628.19l-16.5,16.5c-.7-.64-1.4-1.34-2-2l16.5-16.5C551,626.85,551.65,627.52,552.35,628.19Z"/><path class="cls-6" d="M550.31,626.15l-16.5,16.5a76.76,76.76,0,0,1-21.67-52.19H535.5A53.8,53.8,0,0,0,550.31,626.15Z"/><path class="cls-2" d="M538.42,587.54c0,.5,0,1,0,1.46s0,1,0,1.46H535.5c0-.47,0-1,0-1.46s0-1,0-1.46Z"/><path class="cls-2" d="M535.85,644.69l-2.07,2.07c-.7-.64-1.4-1.34-2-2l2.07-2.07C534.45,643.35,535.15,644,535.85,644.69Z"/><path class="cls-6" d="M535.5,587.54c0,.47,0,1,0,1.46s0,1,0,1.46H512.14c0-.47,0-1,0-1.46s0-1,0-1.46Z"/><path class="cls-2" d="M533.81,642.65l-2.07,2.07a79.78,79.78,0,0,1-22.52-54.26h2.92A76.76,76.76,0,0,0,533.81,642.65Z"/><path class="cls-2" d="M533.78,646.76l-18.16,18.16h-4.09l20.21-20.21C532.38,645.42,533.08,646.12,533.78,646.76Z"/><path class="cls-6" d="M531.74,644.72l-20.21,20.21H500.87a116,116,0,0,1-28.18-74.47h36.53A79.78,79.78,0,0,0,531.74,644.72Z"/><polygon class="cls-2" points="515.62 664.93 514.15 666.39 510.07 666.39 511.53 664.93 515.62 664.93"/><polygon class="cls-2" points="514.15 666.39 512.7 667.85 508.61 667.85 510.07 666.39 514.15 666.39"/><path class="cls-2" d="M512.69,667.85l-4.7,4.73c-.73-.67-1.4-1.34-2.07-2.07l2.69-2.66Z"/><path class="cls-2" d="M512.14,587.54c0,.47,0,1,0,1.46s0,1,0,1.46h-2.92c0-.47,0-1,0-1.46s0-1,0-1.46Z"/><path class="cls-6" d="M511.53,664.93l-1.46,1.46h-8c-.44-.5-.85-1-1.23-1.46Z"/><path class="cls-6" d="M510.07,666.39l-1.46,1.46h-5.2c-.44-.47-.88-1-1.31-1.46Z"/><path class="cls-6" d="M509.22,587.54c0,.47,0,1,0,1.46s0,1,0,1.46H472.69v-2.92Z"/><path class="cls-6" d="M508.61,667.85l-2.69,2.66c-.85-.88-1.69-1.75-2.51-2.66Z"/><path class="cls-2" d="M508,672.58l-2.1,2.07-2-2,2.07-2.1C506.59,671.24,507.26,671.91,508,672.58Z"/><path class="cls-2" d="M505.92,670.51l-2.07,2.1c-1.49-1.55-2.95-3.12-4.35-4.76h3.91C504.23,668.75,505.07,669.63,505.92,670.51Z"/><path class="cls-2" d="M505.89,674.65l-39.72,39.72c-.7-.67-1.37-1.34-2-2l39.72-39.72Z"/><path class="cls-6" d="M503.85,672.61l-39.72,39.72a177.36,177.36,0,0,1-31.89-44.48h67.26C500.9,669.48,502.36,671.06,503.85,672.61Z"/><path class="cls-2" d="M502.09,666.39c.44.5.88,1,1.31,1.46h-3.91c-.44-.47-.88-1-1.28-1.46Z"/><path class="cls-2" d="M500.87,664.93c.38.5.79,1,1.23,1.46h-3.88c-.41-.47-.82-1-1.2-1.46Z"/><path class="cls-2" d="M500.87,664.93H497a119.07,119.07,0,0,1-27.25-74.47h2.92A116,116,0,0,0,500.87,664.93Z"/><path class="cls-6" d="M498.21,666.39c.41.5.85,1,1.28,1.46H432.24c-.23-.5-.5-1-.73-1.46Z"/><path class="cls-6" d="M497,664.93c.38.5.79,1,1.2,1.46h-66.7l-.7-1.46Z"/><path class="cls-6" d="M497,664.93h-66.2a174.43,174.43,0,0,1-17.23-74.47h56.19A119.07,119.07,0,0,0,497,664.93Z"/><path class="cls-2" d="M472.69,589v1.46h-2.92v-2.92h2.92Z"/><path class="cls-6" d="M469.77,589v1.46H413.58c0-.5,0-1,0-1.46s0-1,0-1.46h56.19Z"/><path class="cls-2" d="M466.17,714.37l-2.07,2.07c-.67-.7-1.34-1.37-2-2l2.07-2.07C464.8,713,465.47,713.7,466.17,714.37Z"/><path class="cls-2" d="M464.13,712.33l-2.07,2.07A179.77,179.77,0,0,1,429,667.85h3.24A177.36,177.36,0,0,0,464.13,712.33Z"/><path class="cls-2" d="M464.1,716.44,403.56,777c-.7-.67-1.37-1.34-2-2l60.54-60.54C462.76,715.07,463.43,715.74,464.1,716.44Z"/><path class="cls-6" d="M462.06,714.4l-60.54,60.54a265,265,0,0,1-64.63-107.09H429A179.77,179.77,0,0,0,462.06,714.4Z"/><path class="cls-2" d="M431.51,666.39c.23.5.5,1,.73,1.46H429c-.26-.47-.5-1-.73-1.46Z"/><path class="cls-2" d="M430.81,664.93l.7,1.46h-3.24c-.23-.5-.47-1-.67-1.46Z"/><path class="cls-2" d="M430.81,664.93H427.6a177.24,177.24,0,0,1-16.94-74.47h2.92A174.43,174.43,0,0,0,430.81,664.93Z"/><path class="cls-6" d="M429,667.85H336.89c-.18-.47-.32-1-.47-1.46h91.84C428.5,666.89,428.73,667.38,429,667.85Z"/><path class="cls-6" d="M427.6,664.93c.2.5.44,1,.67,1.46H336.42l-.44-1.46Z"/><path class="cls-6" d="M427.6,664.93H336a259.62,259.62,0,0,1-10.86-63.52c-.18-3.65-.26-7.33-.29-11h85.83A177.24,177.24,0,0,0,427.6,664.93Z"/><path class="cls-2" d="M413.58,587.54c0,.5,0,1,0,1.46s0,1,0,1.46h-2.92c0-.5,0-1,0-1.46s0-1,0-1.46Z"/><path class="cls-6" d="M410.66,587.54c0,.5,0,1,0,1.46s0,1,0,1.46H324.83c0-1,0-2,0-2.92Z"/><path class="cls-2" d="M403.56,777l-2.16,2.16c-.67-.7-1.34-1.37-2-2l2.16-2.16C402.19,775.64,402.86,776.31,403.56,777Z"/><path class="cls-2" d="M401.52,774.94l-2.16,2.16a267.56,267.56,0,0,1-65.5-109.25h3A265,265,0,0,0,401.52,774.94Z"/><path class="cls-2" d="M401.4,779.14l-92,92c-.7-.67-1.37-1.34-2-2l92-92C400.06,777.77,400.73,778.44,401.4,779.14Z"/><path class="cls-4" d="M399.36,777.1l-92,92A397,397,0,0,1,199.63,667.85H333.85A267.56,267.56,0,0,0,399.36,777.1Z"/><path class="cls-2" d="M336.42,666.39c.15.5.29,1,.47,1.46h-3c-.18-.5-.32-1-.47-1.46Z"/><path class="cls-2" d="M336,664.93l.44,1.46h-3l-.44-1.46Z"/><path class="cls-2" d="M336,664.93h-3a264.69,264.69,0,0,1-11-74.47h2.86c0,3.62.12,7.3.29,11A259.62,259.62,0,0,0,336,664.93Z"/><path class="cls-4" d="M333.85,667.85H199.63c-.09-.5-.2-1-.29-1.46h134C333.53,666.89,333.68,667.35,333.85,667.85Z"/><path class="cls-4" d="M332.95,664.93l.44,1.46h-134c-.09-.5-.2-1-.26-1.46Z"/><path class="cls-4" d="M332.95,664.93H199.08a396.23,396.23,0,0,1-7.3-74.47H322A264.69,264.69,0,0,0,332.95,664.93Z"/><path class="cls-2" d="M324.86,587.54c0,1,0,1.93,0,2.92H322c0-.5,0-1,0-1.46s0-1,0-1.46Z"/><path class="cls-4" d="M322,587.54c0,.5,0,1,0,1.46s0,1,0,1.46H191.78v-2.92Z"/><path class="cls-2" d="M309.44,871.11l-2.07,2.07c-.7-.67-1.37-1.34-2-2l2.07-2.07C308.07,869.76,308.74,870.43,309.44,871.11Z"/><path class="cls-2" d="M307.39,869.06l-2.07,2.07A400.38,400.38,0,0,1,196.65,667.85h3A397,397,0,0,0,307.39,869.06Z"/><path class="cls-7" d="M307.37,873.18l-.12.12-2-2,.12-.12C306,871.84,306.66,872.51,307.37,873.18Z"/><path class="cls-2" d="M199.34,666.39c.09.5.2,1,.29,1.46h-3c-.09-.5-.2-1-.29-1.46Z"/><path class="cls-2" d="M199.08,664.93c.06.5.18,1,.26,1.46h-3c-.09-.5-.2-1-.26-1.46Z"/><path class="cls-2" d="M199.08,664.93h-3a398.67,398.67,0,0,1-7.24-74.47h2.92A396.23,396.23,0,0,0,199.08,664.93Z"/><path class="cls-1" d="M196.36,666.39c.09.5.2,1,.29,1.46h-7.24v-1.46Z"/><path class="cls-1" d="M196.1,664.93c.06.5.18,1,.26,1.46h-7v-1.46Z"/><path class="cls-2" d="M191.78,589v1.46h-2.37v-2.92h2.37Z"/></g></g></g></svg>