<svg xmlns="http://www.w3.org/2000/svg" viewBox="0 0 1179 1178.53"><defs><style>.cls-1,.cls-10,.cls-11,.cls-12,.cls-13,.cls-7,.cls-8,.cls-9{fill:#fff;}.cls-2,.cls-3,.cls-4,.cls-5,.cls-6{fill:#29abe2;}.cls-11,.cls-2{opacity:0.6;}.cls-3,.cls-9{opacity:0.7;}.cls-4,.cls-8{opacity:0.8;}.cls-5,.cls-7{opacity:0.9;}.cls-10{opacity:0.5;}.cls-12{opacity:0.4;}.cls-13{opacity:0.1;}</style></defs><title>J_2</title><g id="Layer_2" data-name="Layer 2"><g id="Layer_1-2" data-name="Layer 1"><rect class="cls-1" width="1179" height="1178"/><rect class="cls-1" x="2.55" y="0.69" width="1176.45" height="1176.45"/><rect class="cls-2" x="0.47" width="1178.53" height="235.84"/><rect class="cls-3" x="0.47" y="235.15" width="1178.53" height="235.84"/><rect class="cls-4" x="0.47" y="469.61" width="1178.53" height="235.84"/><rect class="cls-5" x="0.47" y="704.76" width="1178.53" height="235.84"/><rect class="cls-6" x="0.47" y="939.92" width="1178.53" height="238.61"/><circle class="cls-7" cx="417.87" cy="972.77" r="115.85"/><rect class="cls-1" x="621.32" y="76.45" width="212.33" height="621.08" rx="105.58" ry="105.58"/><circle class="cls-8" cx="718.38" cy="852.77" r="87.14"/><circle class="cls-9" cx="662.01" cy="989.37" r="44.61"/><circle class="cls-1" cx="591.12" cy="908.1" r="38.04"/><circle class="cls-10" cx="755.38" cy="987.29" r="30.09"/><circle class="cls-11" cx="606.68" cy="1059.22" r="23.17"/><circle class="cls-12" cx="538.9" cy="850.35" r="23.17"/><circle class="cls-1" cx="801.37" cy="937.84" r="15.22"/><circle class="cls-1" cx="562.76" cy="1023.6" r="15.22"/><circle class="cls-1" cx="723.22" cy="742.11" r="11.75" transform="translate(-159.26 198.96) rotate(-14.13)"/><circle class="cls-13" cx="520.57" cy="947.52" r="11.75" transform="translate(-215.52 155.71) rotate(-14.13)"/><circle class="cls-9" cx="603.91" cy="806.09" r="30.09"/><circle class="cls-1" cx="649.56" cy="756.29" r="20.4"/><circle class="cls-11" cx="794.11" cy="743.15" r="30.09"/></g></g></svg>