<svg xmlns="http://www.w3.org/2000/svg" viewBox="0 0 1179 1178"><defs><style>.cls-1{fill:#fff;}.cls-2{fill:#bddff4;}.cls-3{fill:#0071bc;}.cls-4{fill:#046499;}.cls-5{fill:#024866;}.cls-6{fill:#013d5e;}.cls-7{fill:#011723;}.cls-8{fill:#e0dda4;}.cls-9{fill:#756e61;}.cls-10{fill:#778e6f;}.cls-11{fill:#819979;}.cls-12{fill:#86a07d;}.cls-13{fill:#8aaa81;}</style></defs><title>O</title><g id="Layer_2" data-name="Layer 2"><g id="Layer_1-2" data-name="Layer 1"><rect class="cls-1" width="1179" height="1178"/><path class="cls-2" d="M934.3,589a347.54,347.54,0,0,1-3,45.63H700.11c-16-41.38-59.2-71-110-71s-94,29.61-110,71H247.69a347.54,347.54,0,0,1-3-45.63c0-190.42,154.37-344.8,344.8-344.8S934.3,398.58,934.3,589Z"/><path class="cls-3" d="M700.11,634.63H931.31a344.24,344.24,0,0,1-15.44,65.92h-214a98.08,98.08,0,0,0-1.8-65.92Z"/><path class="cls-4" d="M701.91,700.55h214a343.89,343.89,0,0,1-30.68,65.92H639.85C669.59,753.67,692.41,729.73,701.91,700.55Z"/><path class="cls-5" d="M639.85,766.47H885.19a346.34,346.34,0,0,1-51.44,65.92H345.25a346.34,346.34,0,0,1-51.44-65.92H540.42a126.94,126.94,0,0,0,99.43,0Z"/><path class="cls-6" d="M345.25,832.39h488.5A346.8,346.8,0,0,1,742,898.3H437A346.8,346.8,0,0,1,345.25,832.39Z"/><path class="cls-7" d="M437,898.3H742a345.56,345.56,0,0,1-305.09,0Z"/><path class="cls-3" d="M706.76,670.13a97.87,97.87,0,0,1-4.84,30.42H478.35a98.08,98.08,0,0,1,1.8-65.92h220A97.77,97.77,0,0,1,706.76,670.13Z"/><path class="cls-4" d="M478.35,700.55H701.91c-9.51,29.18-32.32,53.11-62.06,65.92H540.42C510.68,753.67,487.86,729.73,478.35,700.55Z"/><path class="cls-8" d="M700.11,634.63h-220c16-41.38,59.2-71,110-71S684.12,593.26,700.11,634.63Z"/><path class="cls-5" d="M540.42,766.47h99.43a126.94,126.94,0,0,1-99.43,0Z"/><path class="cls-4" d="M540.42,766.47H293.81a343.89,343.89,0,0,1-30.68-65.92H478.35C487.86,729.73,510.68,753.67,540.42,766.47Z"/><path class="cls-3" d="M247.69,634.63H480.15a98.08,98.08,0,0,0-1.8,65.92H263.13A344.24,344.24,0,0,1,247.69,634.63Z"/><path class="cls-9" d="M577.09,600.51c-2.82-2.88-2.51-5.5-2.15-8.09l.89-7.8q.94-7.79,2.09-15.54c1.61-10.33,3.48-20.65,5.92-30.87a213.1,213.1,0,0,1,9.31-30.28,98.92,98.92,0,0,1,7.26-14.42c2.89-4.59,6.42-9.14,11.58-12.17l2.69,4.3c-3.53,2.75-6.23,6.85-8.48,11.18a95,95,0,0,0-5.52,13.87,255,255,0,0,0-7.33,29.56q-2.88,15.05-4.89,30.33-1.06,7.62-1.91,15.27l-.8,7.65c-.16,2.56-.35,5.1-3.59,7.38Z"/><path class="cls-1" d="M498.59,478.69a12,12,0,0,1-8.2,3.25H482A58.5,58.5,0,0,0,498.59,478.69Z"/><path class="cls-1" d="M931.08,537.71H754.3a58.31,58.31,0,1,1,10.81-112.82,58.35,58.35,0,0,1,73.84-75.25h0a346.73,346.73,0,0,1,38.84,48.66h0c.06.46.1.92.14,1.39.36.15.72.3,1.07.47a0,0,0,0,1,0,0,343.6,343.6,0,0,1,33.48,65.93h0A57.62,57.62,0,0,1,909,476.86h7.36A342.73,342.73,0,0,1,931.08,537.71Z"/><path class="cls-1" d="M539.47,419.6c0,27.41-17.1,50.7-40.88,59.08A58.5,58.5,0,0,1,482,481.94H260.53A346.13,346.13,0,0,1,387,308.33c37.05,6.46,66.17,26.2,75.56,51.23a58.67,58.67,0,0,1,16.53-2.37C512.45,357.2,539.47,385.14,539.47,419.6Z"/><path class="cls-10" d="M643.57,481.51a17.75,17.75,0,1,1-16.33-31.1l1.31-.39C640.8,446.34,668,441.8,668,441.8s-12.57,24.26-19.85,34.86l-.89,1.28c-.32.42-.64.81-1,1.19A18.36,18.36,0,0,1,643.57,481.51Z"/><path class="cls-1" d="M482,481.94c-.95.05-1.9.07-2.85.07s-1.9,0-2.84-.07Z"/><path class="cls-1" d="M615.49,393.78Z"/><path class="cls-11" d="M617,453.83A17.75,17.75,0,1,1,586.36,471q-.19-.62-.43-1.3c-4-12.14-9.3-39.18-9.3-39.18s24.6,11.89,35.39,18.88l1.3.86c.43.31.82.61,1.21,1A18.36,18.36,0,0,1,617,453.83Z"/><path class="cls-12" d="M588.13,463.46a17.75,17.75,0,1,1,11.5,33.19l-1.36.19c-12.66,1.81-40.21,2.23-40.21,2.23s16.05-22.11,24.83-31.5l1.07-1.13c.38-.37.75-.7,1.15-1A18.36,18.36,0,0,1,588.13,463.46Z"/><path class="cls-13" d="M611.72,503.84a17.75,17.75,0,1,1,28.19-21q.27.59.59,1.24c5.53,11.53,14.24,37.67,14.24,37.67s-25.92-8.65-37.52-14.2l-1.4-.68c-.47-.25-.9-.5-1.33-.79A18.36,18.36,0,0,1,611.72,503.84Z"/></g></g></svg>